<svg xmlns="http://www.w3.org/2000/svg" width="80" height="78" viewBox="0 0 80 78" fill="none"><path d="M6.29524 59.4127V63.5679H3.11617V59.4127H0V70.8365H3.11617V66.0666H6.29524V70.8365H9.4114V59.4127H6.29524ZM17.285 71.0702C20.6994 71.0702 23.1745 68.378 23.1745 65.1135C23.1745 61.8288 20.6994 59.1567 17.285 59.1567C13.8503 59.1567 11.3732 61.8268 11.3732 65.1135C11.3732 68.378 13.8503 71.0702 17.285 71.0702ZM17.285 68.2309C16.1104 68.2309 14.8951 67.5518 14.8951 65.0933C14.8951 62.6349 16.1124 61.9981 17.285 61.9981C18.4171 61.9981 19.6526 62.6328 19.6526 65.0933C19.6526 67.5518 18.415 68.2309 17.285 68.2309ZM31.5614 62.4656L31.9245 59.8157C31.178 59.5396 29.8978 59.1789 28.5751 59.1789C26.8242 59.1789 24.479 59.8157 24.479 62.5281C24.479 64.6258 25.8869 65.3472 28.4046 66.4495C29.1938 66.7679 29.7923 67.0218 29.7923 67.6163C29.7923 68.1664 29.2161 68.2954 28.5974 68.2954C27.7656 68.2954 26.6335 68.0415 24.9476 67.4269L24.4567 70.2037C26.313 70.9876 27.7859 71.0521 28.4675 71.0521C31.4762 71.0521 32.9267 69.8007 32.9267 67.576C32.9267 65.5629 31.7541 64.6097 29.277 63.6968C28.145 63.2515 27.3355 63.0601 27.3355 62.5321C27.3355 62.0444 28.0395 61.8107 28.8084 61.8107C29.7477 61.8087 30.7499 62.1472 31.5614 62.4656ZM38.8365 59.4127H34.5254V70.8365H37.6192V67.3181C41.0336 67.3181 43.5939 66.641 43.5939 63.1004C43.596 60.4525 41.9527 59.4127 38.8365 59.4127ZM37.6213 64.9442V61.5951H38.6032C39.3295 61.5951 40.5244 61.5951 40.5244 63.2051C40.5224 64.9241 39.8184 64.9442 37.6213 64.9442ZM48.674 59.4127H45.5578V70.8365H48.674V59.4127ZM59.2154 59.4127H50.019V61.9356H53.0703V70.8385H56.1864V61.9356H59.2174V59.4127H59.2154ZM67.1742 70.8365H70.9294L66.9815 59.4127H63.2465L59.4487 70.8365H63.2039L63.8004 68.2712H66.5534L67.1742 70.8365ZM64.3786 65.7724L65.0623 62.7417H65.2327L65.959 65.7724H64.3786ZM75.3055 59.4127H72.2116V70.8365H80V68.3135H75.3055V59.4127Z" fill="white"></path><path d="M45.0038 76.221C45.0038 76.0718 44.9836 75.9449 44.9186 75.8603C44.876 75.7555 44.7908 75.6688 44.7056 75.6064C44.5981 75.5217 44.4926 75.4794 44.3851 75.4371C44.2775 75.3948 44.1497 75.3303 43.9793 75.288C43.8292 75.2456 43.7014 75.2033 43.6162 75.161C43.5086 75.1187 43.4234 75.0764 43.3605 75.0119C43.2753 74.9696 43.2104 74.9051 43.1678 74.8204C43.1252 74.7358 43.0826 74.6512 43.0826 74.5444C43.0826 74.4376 43.1252 74.3529 43.1678 74.2683C43.2104 74.2038 43.2753 74.1413 43.3605 74.099C43.4234 74.0567 43.5107 74.0144 43.6162 73.9922C43.7014 73.9701 43.7866 73.9499 43.8718 73.9499C43.9793 73.9499 44.0645 73.9499 44.1497 73.9721C44.2349 73.9942 44.3201 74.0144 44.3851 74.0567C44.45 74.099 44.5129 74.1635 44.5555 74.226C44.5981 74.2884 44.6204 74.3751 44.6204 74.4799H44.9409C44.9207 74.3106 44.876 74.1837 44.8131 74.0769C44.7482 73.9701 44.6427 73.8854 44.5575 73.8431C44.45 73.7786 44.3222 73.7363 44.2167 73.7162C44.0889 73.6738 43.9611 73.6738 43.8535 73.6738C43.7034 73.6738 43.5756 73.696 43.4478 73.7383C43.32 73.7806 43.2125 73.823 43.107 73.9076C42.9994 73.9922 42.9142 74.0769 42.8513 74.2038C42.7864 74.3106 42.7661 74.4376 42.7661 74.5847C42.7661 74.7318 42.8087 74.8607 42.8736 74.9877C42.9365 75.0945 43.0441 75.1791 43.1516 75.2638C43.2591 75.3484 43.3869 75.3907 43.4924 75.4552C43.6202 75.4975 43.7704 75.5399 43.9611 75.6043C44.0463 75.6245 44.1112 75.6467 44.1538 75.6688C44.3242 75.7111 44.452 75.7958 44.5372 75.8804C44.6448 75.965 44.6874 76.092 44.6874 76.2613C44.6874 76.3459 44.665 76.4527 44.6021 76.5373C44.5595 76.622 44.4946 76.6865 44.4317 76.7288C44.3465 76.7933 44.2613 76.8336 44.1538 76.8557C44.0686 76.8779 43.9611 76.8981 43.8556 76.8981C43.748 76.8981 43.6425 76.8981 43.535 76.8759C43.4275 76.8537 43.3423 76.8114 43.2794 76.7489C43.1942 76.7066 43.1293 76.6421 43.0867 76.5575C43.0441 76.4729 43.0217 76.3661 43.0217 76.2391H42.6809C42.6809 76.3661 42.7235 76.493 42.7661 76.5998C42.831 76.7268 42.8939 76.8336 43.0015 76.9182C43.0867 77.0028 43.1942 77.0653 43.322 77.1076C43.4295 77.1499 43.5573 77.1721 43.7054 77.1721C43.8758 77.1721 44.0463 77.1721 44.1964 77.1298C44.3465 77.0875 44.4946 77.0452 44.6224 76.9605C44.73 76.896 44.8354 76.7913 44.9004 76.6643C44.9835 76.5595 45.0038 76.4124 45.0038 76.221ZM45.9432 73.7403H45.6652V77.1096H45.9432V73.7403ZM48.4182 75.9449C48.4182 76.0517 48.3959 76.1786 48.3756 76.2834C48.333 76.4104 48.2904 76.495 48.2255 76.6018C48.1606 76.7086 48.0754 76.7711 47.9902 76.8356C47.8827 76.9001 47.7548 76.9202 47.627 76.9202C47.4992 76.9202 47.3714 76.8981 47.2639 76.8356C47.1787 76.7731 47.0935 76.7086 47.0285 76.6018C46.9636 76.497 46.9007 76.4104 46.8784 76.2834C46.8358 76.1766 46.8358 76.0497 46.8358 75.9449C46.8358 75.8179 46.8358 75.7111 46.8784 75.6064C46.9007 75.4794 46.9636 75.3726 47.0285 75.288C47.0935 75.1812 47.1787 75.0965 47.2639 75.0542C47.3714 74.9897 47.4992 74.9474 47.627 74.9474C47.7548 74.9474 47.8827 74.9897 47.9902 75.0542C48.0754 75.0965 48.1606 75.1812 48.2255 75.288C48.2884 75.3726 48.333 75.4794 48.3756 75.6064C48.3959 75.7132 48.4182 75.8179 48.4182 75.9449ZM47.6291 74.6955C47.4363 74.6955 47.2882 74.7378 47.1381 74.8023C47.0103 74.8668 46.8825 74.9716 46.7973 75.0784C46.7121 75.2053 46.6471 75.3323 46.6045 75.4814C46.5619 75.6285 46.5193 75.7776 46.5193 75.9469C46.5193 76.094 46.5619 76.2653 46.6045 76.3922C46.6471 76.5414 46.7121 76.6885 46.7973 76.7953C46.8825 76.9222 47.0103 77.0069 47.1381 77.0714C47.2882 77.156 47.4363 77.1782 47.6291 77.1782C47.7995 77.1782 47.9699 77.158 48.0977 77.0714C48.2478 77.0089 48.3533 76.9242 48.4608 76.7953C48.546 76.6885 48.611 76.5414 48.6536 76.3922C48.6962 76.2653 48.7185 76.096 48.7185 75.9469C48.7185 75.7776 48.6962 75.6285 48.6536 75.4814C48.611 75.3323 48.546 75.2053 48.4608 75.0784C48.3533 74.9736 48.2478 74.8668 48.0977 74.8023C47.9699 74.7378 47.7995 74.6955 47.6291 74.6955ZM50.9359 75.8824C50.9359 76.0094 50.9156 76.1162 50.8933 76.2431C50.871 76.3499 50.8081 76.4547 50.7655 76.5394C50.7006 76.6462 50.6154 76.7086 50.5302 76.7731C50.4226 76.8154 50.3172 76.8356 50.1893 76.8356C50.0615 76.8356 49.954 76.8134 49.8688 76.7731C49.7613 76.7086 49.6984 76.624 49.6335 76.5394C49.5685 76.4547 49.5259 76.3479 49.4833 76.2431C49.4631 76.1162 49.4407 76.0094 49.4407 75.9046C49.4407 75.7998 49.461 75.6708 49.4833 75.566C49.5259 75.4592 49.5685 75.3545 49.6335 75.2698C49.6761 75.163 49.7613 75.1005 49.8465 75.0361C49.954 74.9937 50.0595 74.9514 50.167 74.9514C50.2948 74.9514 50.4024 74.9937 50.5079 75.0361C50.5931 75.1005 50.6783 75.163 50.7432 75.2477C50.8081 75.3323 50.8507 75.4391 50.8933 75.5439C50.9156 75.6708 50.9359 75.7756 50.9359 75.8824ZM50.9359 75.1187L50.9156 75.1409C50.8304 74.9917 50.7229 74.8869 50.5951 74.8225C50.4673 74.7378 50.3172 74.6955 50.1467 74.6955C49.9763 74.6955 49.8262 74.7378 49.6984 74.8023C49.5706 74.8668 49.463 74.9514 49.3778 75.0784C49.2926 75.1852 49.25 75.3121 49.2074 75.4592C49.1648 75.6084 49.1425 75.7555 49.1425 75.9247C49.1425 76.094 49.1648 76.2431 49.2074 76.3902C49.25 76.5172 49.3149 76.6441 49.3778 76.7509C49.463 76.8578 49.5706 76.9424 49.6984 77.0049C49.8262 77.0673 49.9763 77.1096 50.167 77.1096C50.3172 77.1096 50.4652 77.0673 50.6154 76.9827C50.7432 76.898 50.8507 76.7913 50.9136 76.6643H50.9339V77.1096C50.9339 77.3011 50.8487 77.4482 50.7209 77.5751C50.5707 77.6819 50.4003 77.7444 50.2096 77.7444C50.0392 77.7444 49.8891 77.7243 49.7613 77.6598C49.6335 77.5953 49.5685 77.5107 49.5483 77.3837H49.25C49.25 77.4885 49.2723 77.5953 49.3352 77.6799C49.3778 77.7444 49.4631 77.8069 49.5483 77.8714C49.6335 77.9137 49.741 77.956 49.8465 77.9782C49.954 78.0003 50.0595 78.0003 50.1873 78.0003C50.2948 78.0003 50.4003 78.0003 50.4653 77.9782C50.5505 77.9782 50.6154 77.9358 50.7209 77.8935C50.8284 77.8512 50.9136 77.7867 50.9988 77.7021C51.0637 77.6175 51.1063 77.5328 51.1489 77.426C51.1692 77.3414 51.1916 77.2346 51.1916 77.1076C51.2139 77.0028 51.2139 76.8739 51.2139 76.7046V75.2839C51.2139 75.1993 51.2139 75.0502 51.2342 74.8607V74.7761H50.9359V75.1187ZM52.0254 76.4547C52.0254 76.3278 52.0457 76.2431 52.1106 76.1585C52.1958 76.094 52.281 76.0517 52.3885 76.0094C52.496 75.9671 52.6015 75.9449 52.7091 75.9449C52.8166 75.9449 52.9444 75.9449 53.0925 75.9227C53.1777 75.9227 53.2203 75.9227 53.2426 75.9227C53.2426 75.9449 53.2426 75.965 53.2426 75.9872C53.2649 76.0295 53.2649 76.0517 53.2649 76.0718C53.2649 76.1787 53.2426 76.2834 53.2223 76.3902C53.2 76.497 53.1574 76.5817 53.1148 76.6663C53.0499 76.751 52.987 76.8154 52.8795 76.8577C52.7943 76.9001 52.6867 76.9222 52.5386 76.9222C52.3885 76.9222 52.2607 76.8799 52.1755 76.8154C52.068 76.7288 52.0254 76.6018 52.0254 76.4547ZM53.2406 75.6708C53.198 75.6708 53.1128 75.6708 52.9627 75.6708C52.7922 75.6708 52.6421 75.693 52.5143 75.693C52.4068 75.7152 52.279 75.7353 52.1938 75.7776C52.0436 75.8421 51.9158 75.9268 51.8306 76.0537C51.7454 76.1605 51.7028 76.3076 51.7028 76.4567C51.7028 76.6905 51.788 76.8598 51.9381 76.9867C52.0883 77.1137 52.279 77.1782 52.492 77.1782C52.6421 77.1782 52.7902 77.158 52.9403 77.0714C53.0905 76.9867 53.1757 76.9021 53.2386 76.7953V76.7751H53.2609V77.1137H53.5591C53.5591 77.0714 53.5591 77.029 53.5591 77.029C53.5368 76.8376 53.5368 76.7106 53.5368 76.5837V75.4814C53.5368 75.2053 53.4516 75.0159 53.3015 74.8869C53.1737 74.76 52.9606 74.6955 52.705 74.6955C52.4494 74.6955 52.2567 74.76 52.1086 74.8648C51.9381 74.9716 51.8529 75.1408 51.8103 75.3726H52.1086C52.1288 75.2033 52.1938 75.1187 52.3013 75.0542C52.3865 74.9897 52.5366 74.9474 52.6847 74.9474C52.8774 74.9474 53.0053 74.9897 53.0905 75.0744C53.1757 75.1388 53.2406 75.2658 53.2406 75.4552V75.6708ZM54.5431 75.7555C54.5431 75.5439 54.608 75.3524 54.7135 75.1832C54.8413 75.034 55.0117 74.9494 55.2247 74.9494C55.4175 74.9494 55.5656 75.0139 55.6731 75.1187C55.7806 75.2456 55.8435 75.3948 55.8435 75.6064V77.1117H56.1214V75.6487C56.1214 75.564 56.1214 75.4572 56.0991 75.3524C56.0768 75.2678 56.0342 75.161 55.9916 75.0562C55.9267 74.9494 55.8415 74.8648 55.736 74.8023C55.6082 74.7398 55.4803 74.6955 55.2876 74.6955C55.1375 74.6955 54.9894 74.7378 54.8616 74.8023C54.7338 74.8869 54.6262 74.9937 54.5633 75.1207H54.5431V74.7822H54.2448V74.8668C54.2671 75.0582 54.2671 75.2053 54.2671 75.29V77.1117H54.5451V75.7555H54.5431ZM59.621 75.3948V75.6708H60.4528V76.7731C60.3027 76.8154 60.1749 76.8356 60.0471 76.8577C59.9396 76.9001 59.8117 76.9001 59.7063 76.9001C59.4932 76.9001 59.3005 76.8577 59.1301 76.7933C58.9597 76.7288 58.8319 76.624 58.7243 76.497C58.6391 76.3701 58.5539 76.2008 58.5113 76.0315C58.4687 75.8401 58.4261 75.6507 58.4261 75.4371C58.4261 75.2456 58.4464 75.0764 58.491 74.8869C58.5336 74.7177 58.5986 74.5686 58.704 74.4214C58.7893 74.2743 58.8968 74.1675 59.0449 74.0829C59.195 73.9983 59.3654 73.956 59.5561 73.956C59.7691 73.956 59.9619 74.0204 60.112 74.1252C60.2824 74.232 60.3676 74.3791 60.3899 74.5706H60.7531C60.7328 74.4436 60.6882 74.3167 60.6253 74.1897C60.5401 74.0829 60.4549 73.9781 60.3473 73.9136C60.2398 73.829 60.112 73.7645 59.9639 73.7444C59.8361 73.702 59.686 73.6799 59.5581 73.6799C59.3228 73.6799 59.1098 73.7222 58.9171 73.829C58.7466 73.9136 58.5965 74.0628 58.4687 74.232C58.3409 74.3811 58.2557 74.5706 58.1908 74.7822C58.1258 74.9937 58.1056 75.2053 58.1056 75.4391C58.1056 75.693 58.1258 75.9267 58.1908 76.1383C58.2557 76.3499 58.3612 76.5414 58.489 76.6905C58.5965 76.8598 58.7669 76.9666 58.9373 77.0512C59.1301 77.1358 59.3208 77.1782 59.5561 77.1782C59.7691 77.1782 59.9822 77.1782 60.1749 77.1358C60.3676 77.0935 60.5583 77.0512 60.7734 76.9666V75.3988H59.621V75.3948ZM63.2911 75.9449C63.2911 76.0517 63.2708 76.1786 63.2485 76.2834C63.2059 76.4104 63.1633 76.495 63.0983 76.6018C63.0334 76.7086 62.9482 76.7711 62.8427 76.8356C62.7575 76.9001 62.6297 76.9202 62.5019 76.9202C62.3741 76.9202 62.2463 76.8981 62.1387 76.8356C62.0535 76.7731 61.9683 76.7086 61.9034 76.6018C61.8385 76.497 61.7756 76.4104 61.7533 76.2834C61.7107 76.1766 61.7107 76.0497 61.7107 75.9449C61.7107 75.8179 61.7107 75.7111 61.7533 75.6064C61.7756 75.4794 61.8385 75.3726 61.9034 75.288C61.9683 75.1812 62.0535 75.0965 62.1387 75.0542C62.2442 74.9897 62.3741 74.9474 62.5019 74.9474C62.6297 74.9474 62.7575 74.9897 62.8427 75.0542C62.9502 75.0965 63.0354 75.1812 63.0983 75.288C63.1633 75.3726 63.2059 75.4794 63.2485 75.6064C63.2708 75.7132 63.2911 75.8179 63.2911 75.9449ZM62.5019 74.6955C62.3091 74.6955 62.161 74.7378 62.0109 74.8023C61.8831 74.8668 61.7553 74.9716 61.6701 75.0784C61.5849 75.2053 61.52 75.3323 61.4774 75.4814C61.4124 75.6285 61.3922 75.7776 61.3922 75.9469C61.3922 76.094 61.4124 76.2653 61.4774 76.3922C61.52 76.5414 61.5849 76.6885 61.6701 76.7953C61.7553 76.9222 61.8831 77.0069 62.0109 77.0714C62.161 77.156 62.3091 77.1782 62.5019 77.1782C62.6723 77.1782 62.8427 77.158 62.9705 77.0714C63.1206 77.0089 63.2261 76.9242 63.3337 76.7953C63.4189 76.6885 63.4838 76.5414 63.5264 76.3922C63.569 76.2653 63.5913 76.096 63.5913 75.9469C63.5913 75.7776 63.569 75.6285 63.5264 75.4814C63.4838 75.3323 63.4189 75.2053 63.3337 75.0784C63.2261 74.9736 63.1206 74.8668 62.9705 74.8023C62.8427 74.7378 62.6723 74.6955 62.5019 74.6955ZM66.1719 76.0094C66.1719 75.8179 66.1516 75.6487 66.109 75.4794C66.0664 75.3303 66.0015 75.1832 65.9163 75.0764C65.8311 74.9494 65.7235 74.8648 65.5957 74.8003C65.4456 74.7378 65.2752 74.6935 65.0845 74.6935C64.9141 74.6935 64.7639 74.7358 64.6361 74.8003C64.5083 74.8648 64.4008 74.9494 64.3156 75.0764C64.2081 75.1832 64.1452 75.3303 64.1026 75.4794C64.06 75.6265 64.0376 75.7756 64.0376 75.9449C64.0376 76.092 64.0579 76.2633 64.1026 76.4104C64.1452 76.5595 64.2101 76.6865 64.2953 76.8134C64.3805 76.9202 64.488 77.0049 64.6158 77.0895C64.7437 77.154 64.9141 77.1741 65.0642 77.1741C65.6404 77.1741 66.0035 76.8981 66.1313 76.3681H65.8534C65.8108 76.5172 65.7256 76.6643 65.5978 76.7711C65.4699 76.8759 65.3198 76.9202 65.1717 76.9202C64.8938 76.9202 64.6808 76.8356 64.5529 76.6663C64.4251 76.497 64.3602 76.2855 64.3399 76.0094H66.1719ZM64.3582 75.7555C64.3805 75.5217 64.4434 75.3323 64.5712 75.1832C64.699 75.034 64.8694 74.9494 65.1048 74.9494C65.3401 74.9494 65.5105 75.034 65.6383 75.1832C65.7662 75.3101 65.8514 75.5016 65.8514 75.7555H64.3582ZM66.7055 75.3524C66.7055 75.4592 66.7278 75.5439 66.7704 75.6064C66.813 75.691 66.8779 75.7555 66.9408 75.7978C67.0057 75.8401 67.0686 75.8824 67.1538 75.9026C67.239 75.9247 67.3242 75.9449 67.452 75.9872C67.4744 75.9872 67.4946 75.9872 67.5373 76.0094C67.6448 76.0315 67.73 76.0517 67.8152 76.0718C67.8801 76.092 67.943 76.1142 68.0079 76.1343C68.0728 76.1766 68.1154 76.219 68.1581 76.2613C68.1783 76.3237 68.2007 76.3882 68.2007 76.4527C68.2007 76.6018 68.1357 76.7288 68.0302 76.8134C67.9024 76.8779 67.7523 76.9202 67.5819 76.9202C67.4115 76.9202 67.2613 76.8981 67.1335 76.8134C67.0057 76.7509 66.9408 76.6441 66.9408 76.4749H66.6203C66.6405 76.6018 66.6629 76.7086 66.7055 76.7933C66.7704 76.8779 66.8333 76.9625 66.9185 77.027C67.0037 77.0693 67.0889 77.1117 67.1964 77.1338C67.3019 77.1761 67.4094 77.1761 67.517 77.1761C67.6448 77.1761 67.7726 77.1761 67.8801 77.1338C68.0079 77.1117 68.1155 77.0492 68.2007 76.9847C68.3082 76.9222 68.3711 76.8578 68.436 76.7509C68.4786 76.6663 68.5009 76.5394 68.5009 76.4124C68.5009 76.2855 68.4806 76.1787 68.3934 76.0739C68.3285 75.9892 68.2433 75.9046 68.1154 75.8623C67.9876 75.8199 67.8172 75.7776 67.6042 75.7152C67.3912 75.6728 67.2411 75.6305 67.1558 75.566C67.0706 75.5237 67.028 75.4391 67.028 75.3323C67.028 75.2053 67.0706 75.1207 67.1782 75.0562C67.2857 74.9917 67.3912 74.9494 67.5413 74.9494C67.7117 74.9494 67.8395 74.9917 67.9471 75.0562C68.0526 75.1207 68.1175 75.2053 68.1398 75.3524H68.438C68.4177 75.1187 68.3305 74.9494 68.1824 74.8446C68.0323 74.76 67.8193 74.6955 67.5859 74.6955C67.4784 74.6955 67.3729 74.7177 67.2654 74.7378C67.1579 74.758 67.0727 74.8003 66.9875 74.8426C66.9022 74.9071 66.8373 74.9696 66.7947 75.0542C66.7257 75.1409 66.7055 75.2456 66.7055 75.3524ZM70.8441 77.1117V75.5016H72.6802V77.1117H73.0007V73.7423H72.6802V75.2255H70.8441V73.7423H70.5236V77.1117H70.8441ZM75.8166 76.0094C75.8166 75.8179 75.7963 75.6487 75.7537 75.4794C75.7111 75.3303 75.6685 75.1832 75.5833 75.0764C75.4981 74.9494 75.3703 74.8648 75.2425 74.8003C75.0923 74.7378 74.9442 74.6935 74.7515 74.6935C74.5811 74.6935 74.431 74.7358 74.2829 74.8003C74.1551 74.8648 74.0475 74.9494 73.9623 75.0764C73.8771 75.1832 73.8122 75.3303 73.7696 75.4794C73.7047 75.6265 73.6844 75.7756 73.6844 75.9449C73.6844 76.092 73.7067 76.2633 73.7493 76.4104C73.7919 76.5595 73.8548 76.6865 73.942 76.8134C74.0273 76.9202 74.1348 77.0049 74.2829 77.0895C74.4107 77.154 74.5608 77.1741 74.7312 77.1741C75.2851 77.1741 75.6482 76.8981 75.7984 76.3681H75.5001C75.4575 76.5172 75.3723 76.6643 75.2648 76.7711C75.137 76.8759 74.9869 76.9202 74.8164 76.9202C74.5385 76.9202 74.3478 76.8356 74.1977 76.6663C74.0699 76.497 74.0049 76.2855 74.0049 76.0094H75.8166ZM74.0029 75.7555C74.0252 75.5217 74.1104 75.3323 74.2382 75.1832C74.366 75.034 74.5365 74.9494 74.7495 74.9494C74.9848 74.9494 75.1552 75.034 75.2831 75.1832C75.4332 75.3101 75.4961 75.5016 75.5184 75.7555H74.0029ZM76.7133 75.7131C76.7356 75.4794 76.7985 75.29 76.9061 75.161C77.0136 75.034 77.1617 74.9494 77.3747 74.9494C77.395 74.9494 77.4396 74.9716 77.4822 74.9716C77.5025 74.9716 77.5248 74.9716 77.5451 74.9716V74.6955C77.5248 74.6955 77.5025 74.6955 77.4599 74.6955C77.395 74.6955 77.3321 74.6955 77.2672 74.6955C77.1394 74.6955 77.0318 74.7378 76.9466 74.8225C76.8391 74.9071 76.7762 74.9917 76.7336 75.1187H76.7113V74.7801H76.4131C76.4131 74.8225 76.4131 74.8426 76.4131 74.8648C76.4334 75.0341 76.4334 75.1832 76.4334 75.288V77.1096H76.7113V75.7131H76.7133ZM79.9999 76.0094C79.9999 75.8179 79.9776 75.6487 79.935 75.4794C79.8924 75.3303 79.8275 75.1832 79.7423 75.0764C79.657 74.9494 79.5495 74.8648 79.4014 74.8003C79.2736 74.7378 79.1032 74.6935 78.9105 74.6935C78.7401 74.6935 78.5899 74.7358 78.4621 74.8003C78.3343 74.8648 78.2268 74.9494 78.1213 75.0764C78.0361 75.1832 77.9711 75.3303 77.9285 75.4794C77.8859 75.6265 77.8636 75.7756 77.8636 75.9449C77.8636 76.092 77.8839 76.2633 77.9285 76.4104C77.9711 76.5595 78.0361 76.6865 78.1213 76.8134C78.2065 76.9202 78.314 77.0049 78.4418 77.0895C78.5696 77.154 78.7198 77.1741 78.8902 77.1741C79.4664 77.1741 79.8295 76.8981 79.9573 76.3681H79.6591C79.6388 76.5172 79.5536 76.6643 79.4237 76.7711C79.2959 76.8759 79.1458 76.9202 78.9977 76.9202C78.7198 76.9202 78.5067 76.8356 78.3789 76.6663C78.2511 76.497 78.1862 76.2855 78.1659 76.0094H79.9999ZM78.1862 75.7555C78.2065 75.5217 78.2714 75.3323 78.3992 75.1832C78.527 75.034 78.6975 74.9494 78.9105 74.9494C79.1458 74.9494 79.3365 75.034 79.4643 75.1832C79.5921 75.3101 79.6773 75.5016 79.6773 75.7555H78.1862Z" fill="#04CE78"></path><path d="M33.651 28.9756V32.897V44.6614C33.651 45.3184 33.929 45.9128 34.355 46.336C34.8034 46.7592 35.3998 47.0353 36.0409 47.0353H43.9369C44.5982 47.0353 45.1967 46.7592 45.6228 46.336C46.0488 45.9128 46.3267 45.3184 46.3267 44.6614V32.897C46.3267 32.0487 47.0307 31.3494 47.8848 31.3494H59.7287C60.3901 31.3494 60.9886 31.0733 61.4146 30.6502C61.8406 30.227 62.1186 29.6325 62.1186 28.9756V21.1327C62.1186 20.4959 61.8406 19.9034 61.4146 19.4581C60.9886 19.0349 60.3901 18.7588 59.7287 18.7588H50.4674V15.6636H59.7287C61.2442 15.6636 62.6298 16.2782 63.6118 17.2757C64.614 18.2712 65.2327 19.6294 65.2327 21.1327V28.9756C65.2327 30.4809 64.614 31.8593 63.6118 32.8326C62.6298 33.828 61.2442 34.4427 59.7287 34.4427H49.4429V44.6594C49.4429 46.1647 48.8241 47.5209 47.8219 48.5164C46.84 49.5119 45.4523 50.1265 43.9389 50.1265H36.043C34.5275 50.1265 33.1621 49.5119 32.1599 48.5164C31.1577 47.5209 30.5389 46.1627 30.5389 44.6594V32.895V28.9736C30.5389 25.306 32.0544 21.979 34.4869 19.585C36.8991 17.1689 40.2486 15.6636 43.9409 15.6636H45.3063V18.7588H43.9409C41.125 18.7588 38.5424 19.9256 36.6861 21.7694C34.8257 23.6133 33.651 26.1786 33.651 28.9756Z" fill="#04CE78"></path><path d="M46.3266 21.1328V17.2113V5.46909C46.3266 4.81216 46.0487 4.21769 45.6227 3.79451C45.1966 3.34916 44.5981 3.09526 43.9368 3.09526H36.0408C35.3998 3.09526 34.8033 3.34916 34.3549 3.79451C33.9289 4.21769 33.651 4.81216 33.651 5.46909V17.2113C33.651 18.0798 32.9673 18.7589 32.0929 18.7589H20.2713C19.6099 18.7589 19.0114 19.035 18.5854 19.4582C18.1371 19.9035 17.8814 20.496 17.8814 21.1328V28.9757C17.8814 29.6326 18.1371 30.2271 18.5854 30.6503C19.0114 31.0734 19.6099 31.3495 20.2713 31.3495H29.5103V34.4448H20.2713C18.7558 34.4448 17.3702 33.8302 16.3659 32.8347C15.384 31.8594 14.7653 30.483 14.7653 28.9777V21.1328C14.7653 19.6275 15.384 18.2713 16.3659 17.2758C17.3682 16.2803 18.7558 15.6637 20.2713 15.6637H30.5348V5.46909C30.5348 3.94363 31.1536 2.58744 32.1558 1.58995C33.158 0.61462 34.5233 0 36.0388 0H43.9347C45.4502 0 46.8359 0.61462 47.8178 1.58995C48.82 2.58543 49.4388 3.94363 49.4388 5.46909V17.2113V21.1328C49.4388 24.8003 47.9456 28.1273 45.5131 30.5435C43.0806 32.9596 39.7312 34.4428 36.0388 34.4428H34.6937V31.3495H36.0388C38.877 31.3495 41.4373 30.2049 43.316 28.3409C45.1743 26.4951 46.3266 23.952 46.3266 21.1328Z" fill="white"></path></svg>