<svg xmlns="http://www.w3.org/2000/svg" width="80" height="78" viewBox="0 0 80 78" fill="none"><path d="M6.29716 58.945V63.1825H3.0948V58.945H0V70.6574H3.0948V65.7671H6.29716V70.6574H9.39196V58.945H6.29716ZM17.2882 70.8971C20.7037 70.8971 23.1795 68.1369 23.1795 64.7899C23.1795 61.4222 20.7037 58.6826 17.2882 58.6826C13.8525 58.6826 11.3767 61.4201 11.3767 64.7899C11.3767 68.1369 13.8525 70.8971 17.2882 70.8971ZM17.2882 67.986C16.1132 67.986 14.8976 67.2898 14.8976 64.7692C14.8976 62.2486 16.1153 61.5957 17.2882 61.5957C18.4186 61.5957 19.6585 62.2486 19.6585 64.7692C19.6585 67.2898 18.4206 67.986 17.2882 67.986ZM31.5466 62.0751L31.9302 59.3582C31.1611 59.0752 29.8805 58.7074 28.5797 58.7074C26.8304 58.7074 24.4803 59.3582 24.4803 62.1412C24.4803 64.2919 25.8684 65.0316 28.4072 66.139C29.1966 66.4861 29.7953 66.7485 29.7953 67.3332C29.7953 67.8993 29.2189 68.0501 28.6 68.0501C27.7679 68.0501 26.6153 67.7898 24.9289 67.1596L24.4377 70.0066C26.2946 70.8103 27.7679 70.8764 28.4498 70.8764C31.4817 70.8764 32.9327 69.5934 32.9327 67.3125C32.9327 65.2485 31.7374 64.2486 29.2819 63.3147C28.1495 62.8808 27.3397 62.6845 27.3397 62.1412C27.3397 61.6412 28.0236 61.4015 28.8131 61.4015C29.7547 61.4015 30.7572 61.7486 31.5466 62.0751ZM38.826 58.945H34.5136V70.6574H37.6307V67.0501C41.0461 67.0501 43.5869 66.3539 43.5869 62.7259C43.5869 60.0111 41.9634 58.945 38.826 58.945ZM37.6307 64.6163V61.1825H38.6129C39.3171 61.1825 40.5347 61.1825 40.5347 62.8333C40.5347 64.5956 39.8285 64.6163 37.6307 64.6163ZM48.6888 58.945H45.5717V70.6574H48.6888V58.945ZM59.2314 58.945H50.0322V61.5317H53.0844V70.6595H56.1792V61.5317H59.2314V58.945ZM67.1947 70.6595H70.951L67.0018 58.9471H63.2658L59.4668 70.6595H63.2232L63.8198 68.0294H66.5737L67.1947 70.6595ZM64.3758 65.4427L65.0598 62.3561H65.2302L65.977 65.4427H64.3758ZM75.3263 58.945H72.2093V70.6574H80V68.0708H75.3263V58.945Z" fill="white"></path><path d="M45.0156 76.1776C45.0156 76.0247 44.9932 75.8946 44.9303 75.8078C44.8654 75.6983 44.8025 75.6115 44.6949 75.5248C44.6097 75.4586 44.5022 75.4153 44.3966 75.3719C44.2891 75.3285 44.1612 75.2624 43.9908 75.219C43.8406 75.1549 43.7127 75.1116 43.6275 75.0888C43.5199 75.0454 43.4347 75.0021 43.3495 74.9359C43.2845 74.8926 43.2216 74.8264 43.1567 74.7396C43.114 74.6529 43.0938 74.5661 43.0938 74.4566C43.0938 74.3492 43.114 74.2603 43.1567 74.1736C43.2216 74.1095 43.2845 74.0434 43.3495 74C43.4347 73.936 43.5199 73.9132 43.6051 73.8905C43.6904 73.8678 43.798 73.8471 43.8832 73.8471C43.9684 73.8471 44.076 73.8471 44.1612 73.8678C44.2465 73.8905 44.3114 73.9112 44.3966 73.9546C44.4616 73.998 44.5042 74.0413 44.5468 74.1281C44.5894 74.1942 44.6117 74.281 44.632 74.3884H44.9527C44.9324 74.2149 44.8877 74.0847 44.8248 73.9752C44.7396 73.8657 44.6544 73.7789 44.5468 73.7149C44.4392 73.6715 44.3337 73.6281 44.2059 73.6054C44.0983 73.562 43.9705 73.562 43.8426 73.562C43.7148 73.562 43.5869 73.5827 43.459 73.6281C43.3312 73.6715 43.2034 73.7149 43.0958 73.8017C43.0106 73.8885 42.9253 73.9752 42.8604 74.1054C42.7954 74.2149 42.7752 74.345 42.7752 74.4959C42.7752 74.6488 42.7955 74.7789 42.8827 74.8864C42.9456 75.0165 43.0329 75.1033 43.1607 75.1901C43.2662 75.2562 43.3738 75.3202 43.5017 75.3636C43.6295 75.4297 43.7797 75.4731 43.9704 75.5371C44.0557 75.5599 44.1206 75.5805 44.1632 75.6033C44.3134 75.6467 44.4413 75.7334 44.5468 75.8202C44.632 75.907 44.6746 76.0371 44.6746 76.19C44.6746 76.2995 44.6523 76.4069 44.6118 76.4937C44.5691 76.5598 44.5042 76.6466 44.4189 76.69C44.3337 76.7561 44.2485 76.7995 44.1632 76.8202C44.0557 76.8408 43.9704 76.8636 43.8649 76.8636C43.7574 76.8636 43.6295 76.8408 43.5443 76.8202C43.4367 76.7974 43.3515 76.7768 43.2663 76.7107C43.2033 76.6673 43.1384 76.6012 43.0958 76.5144C43.0532 76.4049 43.0105 76.2975 43.0105 76.1879H42.6899C42.6899 76.3181 42.7122 76.4483 42.7752 76.5578C42.8178 76.6879 42.903 76.7974 42.9883 76.8842C43.0958 76.971 43.2013 77.0371 43.3089 77.0805C43.4367 77.1239 43.5646 77.1466 43.6924 77.1466C43.8852 77.1466 44.0557 77.1239 44.2038 77.1032C44.354 77.0598 44.5022 77.0165 44.6097 76.9297C44.7376 76.8636 44.8451 76.7561 44.908 76.626C44.975 76.5247 45.0156 76.3512 45.0156 76.1776ZM45.9552 73.6364H45.6569V77.0908H45.9552V73.6364ZM48.431 75.8946C48.431 76.002 48.4087 76.1342 48.3884 76.2417C48.3458 76.3512 48.3032 76.4586 48.2382 76.5681C48.1733 76.6549 48.088 76.7417 47.9825 76.8078C47.877 76.8739 47.7694 76.8945 47.6416 76.8945C47.4914 76.8945 47.3859 76.8739 47.2783 76.8078C47.1708 76.7417 47.0855 76.6549 47.0226 76.5681C46.9597 76.4586 46.9151 76.3512 46.8948 76.2417C46.8522 76.1322 46.8298 76.002 46.8298 75.8946C46.8298 75.7644 46.8522 75.6549 46.8948 75.5248C46.9171 75.4153 46.9597 75.3078 47.0226 75.1983C47.0876 75.1116 47.1728 75.0248 47.2783 74.9587C47.3839 74.9153 47.4914 74.8719 47.6416 74.8719C47.7694 74.8719 47.877 74.9153 47.9825 74.9587C48.0901 75.0227 48.1753 75.1116 48.2382 75.1983C48.3032 75.3078 48.3458 75.4153 48.3884 75.5248C48.4107 75.657 48.431 75.7644 48.431 75.8946ZM47.6416 74.6136C47.4488 74.6136 47.3007 74.657 47.1505 74.7231C47.0227 74.7872 46.8948 74.8967 46.8095 75.0062C46.7243 75.1363 46.6391 75.2665 46.5965 75.4194C46.5539 75.5723 46.5315 75.7231 46.5315 75.8987C46.5315 76.0495 46.5539 76.2024 46.5965 76.3553C46.6391 76.5061 46.7243 76.659 46.8095 76.7685C46.8948 76.8987 47.0227 76.9855 47.1505 77.0516C47.3007 77.1383 47.4488 77.1611 47.6416 77.1611C47.8121 77.1611 47.9825 77.1383 48.1104 77.0516C48.2606 76.9855 48.3661 76.8987 48.4513 76.7685C48.5589 76.659 48.6218 76.5082 48.6644 76.3553C48.707 76.2024 48.7293 76.0516 48.7293 75.8987C48.7293 75.7252 48.7091 75.5723 48.6644 75.4194C48.6218 75.2665 48.5568 75.1363 48.4513 75.0062C48.3661 74.8967 48.2585 74.7892 48.1104 74.7231C47.9825 74.657 47.8121 74.6136 47.6416 74.6136ZM50.9292 75.8305C50.9292 75.9607 50.9292 76.0702 50.8866 76.2004C50.8642 76.3099 50.8216 76.4173 50.7587 76.5041C50.7161 76.6136 50.6309 76.6776 50.5233 76.7437C50.4381 76.7871 50.3305 76.8098 50.1824 76.8098C50.0748 76.8098 49.9693 76.7871 49.8617 76.7231C49.7765 76.6797 49.6913 76.5929 49.6284 76.5061C49.5857 76.3966 49.5208 76.3099 49.5005 76.1797C49.4802 76.0702 49.4579 75.9628 49.4579 75.8533C49.4579 75.7231 49.4802 75.6136 49.5005 75.5062C49.5228 75.3967 49.5634 75.2892 49.6284 75.2024C49.6913 75.0929 49.7562 75.0289 49.8617 74.9628C49.947 74.9194 50.0545 74.876 50.1824 74.876C50.3102 74.876 50.4178 74.9194 50.503 74.9628C50.6106 75.0062 50.6958 75.0929 50.7587 75.1797C50.8236 75.2665 50.8663 75.376 50.8866 75.4834C50.9292 75.6136 50.9292 75.721 50.9292 75.8305ZM50.9292 75.0475V75.0682C50.8216 74.9153 50.7161 74.8078 50.5883 74.7211C50.4604 74.6549 50.3325 74.6116 50.1621 74.6116C49.9916 74.6116 49.8414 74.6549 49.7136 74.7211C49.5857 74.7851 49.4802 74.874 49.3929 74.9814C49.3077 75.1115 49.2428 75.2417 49.2001 75.3946C49.1799 75.5475 49.1575 75.6983 49.1575 75.8718C49.1575 76.0454 49.1799 76.1983 49.2205 76.3491C49.2428 76.4793 49.3057 76.6094 49.3909 76.7189C49.4761 76.8284 49.5837 76.9152 49.7116 76.9793C49.8394 77.0454 49.9896 77.066 50.16 77.066C50.3305 77.066 50.4786 77.0433 50.6085 76.9565C50.7587 76.8697 50.8642 76.7602 50.9292 76.6301V77.064C50.9292 77.2602 50.8642 77.4338 50.7161 77.5412C50.5882 77.6714 50.4178 77.7375 50.225 77.7375C50.0545 77.7375 49.9044 77.7148 49.7765 77.6507C49.6487 77.5867 49.5837 77.4978 49.5634 77.347H49.2428C49.2428 77.4772 49.2854 77.5867 49.328 77.6507C49.3909 77.7375 49.4559 77.8036 49.5634 77.8676C49.6486 77.911 49.7562 77.9544 49.8617 77.9772C49.9693 77.9999 50.0748 77.9999 50.1824 77.9999C50.3102 77.9999 50.3955 77.9999 50.4807 77.9772C50.5456 77.9565 50.6308 77.9338 50.7161 77.8904C50.8439 77.847 50.9292 77.7602 50.9941 77.6941C51.0591 77.6073 51.122 77.5206 51.1443 77.4111C51.1869 77.3016 51.2093 77.1941 51.2093 77.0846C51.2093 76.9751 51.2295 76.8243 51.2295 76.6714V75.2148C51.2295 75.1281 51.2295 74.9752 51.2519 74.7583V74.6715H50.9536L50.9292 75.0475ZM52.0169 76.4173C52.0169 76.2871 52.0596 76.2003 52.1245 76.1136C52.1894 76.0475 52.2747 75.9834 52.3802 75.9607C52.4878 75.9173 52.5933 75.8967 52.7008 75.8967C52.8084 75.8967 52.9362 75.8739 53.1067 75.8739C53.1919 75.8739 53.2345 75.8739 53.2569 75.8739C53.2569 75.8966 53.2569 75.9173 53.2569 75.94C53.2569 75.9834 53.2569 76.0041 53.2569 76.0041C53.2569 76.1342 53.2569 76.2437 53.2366 76.3512C53.2143 76.4586 53.1716 76.5474 53.1087 76.6342C53.0661 76.721 52.9809 76.785 52.8956 76.8305C52.8104 76.8739 52.6826 76.8945 52.5547 76.8945C52.4045 76.8945 52.2767 76.8512 52.1712 76.7644C52.0819 76.7003 52.0169 76.5681 52.0169 76.4173ZM53.2548 75.6136C53.2122 75.6136 53.1047 75.6136 52.9768 75.6136C52.784 75.6136 52.6359 75.6136 52.5283 75.6363C52.4005 75.657 52.2949 75.6797 52.1874 75.7231C52.0372 75.7892 51.9317 75.876 51.8465 76.0061C51.7612 76.1156 51.7186 76.2665 51.7186 76.4193C51.7186 76.6363 51.7835 76.8326 51.9317 76.9627C52.0819 77.0929 52.2726 77.159 52.508 77.159C52.6582 77.159 52.8063 77.1156 52.9565 77.0495C53.0844 76.9627 53.192 76.876 53.2346 76.7665L53.2548 76.7437L53.2751 77.0908H53.5531C53.5531 77.0474 53.5531 77.0041 53.5531 77.0041C53.5531 76.8078 53.5329 76.6569 53.5329 76.5474V75.4173C53.5329 75.1343 53.4679 74.9401 53.3198 74.8099C53.1696 74.6798 52.9788 74.6136 52.7008 74.6136C52.4654 74.6136 52.2747 74.6797 52.1042 74.7872C51.954 74.8967 51.8485 75.0702 51.8261 75.2872H52.1245C52.1468 75.1343 52.2097 75.0268 52.2949 74.9835C52.4025 74.9194 52.5283 74.876 52.7008 74.876C52.8713 74.876 52.9991 74.9194 53.1067 75.0062C53.1919 75.0723 53.2569 75.2025 53.2569 75.3967V75.6136H53.2548ZM54.5577 75.7004C54.5577 75.4834 54.6226 75.2872 54.7282 75.1136C54.8357 74.9607 55.0062 74.8739 55.2416 74.8739C55.4344 74.8739 55.5825 74.9401 55.6901 75.0475C55.7976 75.1776 55.8606 75.3305 55.8606 75.5475V77.0908H56.1386V75.5909C56.1386 75.4814 56.1163 75.3946 56.1163 75.2872C56.0939 75.1777 56.0533 75.0909 55.9884 74.9835C55.9458 74.876 55.8605 74.7872 55.7327 74.7231C55.6251 74.657 55.477 74.6136 55.3066 74.6136C55.1564 74.6136 55.0082 74.657 54.8783 74.7231C54.7505 74.7872 54.645 74.8967 54.5577 75.0496L54.5374 74.6798H54.2594V74.7665C54.2594 74.9834 54.2817 75.1363 54.2817 75.2231V77.0929H54.5598V75.7004H54.5577ZM59.6169 75.3305V75.6136H60.4713V76.7231C60.3211 76.7665 60.1933 76.8098 60.0654 76.8326C59.9599 76.8532 59.83 76.876 59.7245 76.876C59.4891 76.876 59.2983 76.8326 59.1481 76.7665C58.9777 76.7003 58.8498 76.5929 58.7423 76.4628C58.6347 76.3119 58.5718 76.159 58.5069 75.9855C58.4643 75.7892 58.4419 75.595 58.4419 75.3553C58.4419 75.1818 58.4643 74.9855 58.5069 74.812C58.5495 74.6384 58.6144 74.4855 58.6997 74.3347C58.7849 74.1818 58.9128 74.0744 59.0629 73.9876C59.1908 73.9008 59.3612 73.8574 59.554 73.8574C59.7894 73.8574 59.9599 73.9009 60.1304 74.0104C60.2806 74.1199 60.3861 74.2934 60.4084 74.4897H60.7494C60.7494 74.3368 60.7067 74.2066 60.6215 74.0992C60.5565 73.9897 60.4713 73.8822 60.3658 73.8161C60.2379 73.7294 60.1101 73.6633 59.9822 73.6426C59.8544 73.5992 59.7042 73.5765 59.5561 73.5765C59.3206 73.5765 59.1299 73.6198 58.9371 73.7293C58.7443 73.8161 58.5962 73.969 58.4886 74.1198C58.3608 74.2934 58.2755 74.4897 58.2106 74.7066C58.1457 74.9235 58.1253 75.1405 58.1253 75.3595C58.1253 75.6425 58.1457 75.8822 58.2106 76.0991C58.2755 76.3161 58.381 76.5123 58.4886 76.6632C58.6165 76.8367 58.7666 76.9462 58.9574 77.033C59.1279 77.1198 59.343 77.1631 59.5561 77.1631C59.7915 77.1631 60.0045 77.1404 60.1953 77.1197C60.3881 77.0764 60.5789 77.033 60.7716 76.9462V75.3367H59.6169V75.3305ZM63.3084 75.8946C63.3084 76.002 63.2861 76.1342 63.2658 76.2417C63.2231 76.3512 63.1805 76.4586 63.1156 76.5681C63.0506 76.6549 62.9654 76.7417 62.8599 76.8078C62.7523 76.8739 62.6468 76.8945 62.519 76.8945C62.3688 76.8945 62.2633 76.8739 62.1557 76.8078C62.0481 76.7417 61.9629 76.6549 61.9 76.5681C61.8371 76.4586 61.7924 76.3512 61.7721 76.2417C61.7295 76.1322 61.7072 76.002 61.7072 75.8946C61.7072 75.7644 61.7295 75.6549 61.7721 75.5248C61.7924 75.4153 61.8351 75.3078 61.9 75.1983C61.9649 75.1116 62.0502 75.0248 62.1557 74.9587C62.2612 74.9153 62.3688 74.8719 62.519 74.8719C62.6468 74.8719 62.7544 74.9153 62.8599 74.9587C62.9674 75.0227 63.0527 75.1116 63.1156 75.1983C63.1805 75.3078 63.2211 75.4153 63.2658 75.5248C63.2881 75.657 63.3084 75.7644 63.3084 75.8946ZM62.519 74.6136C62.3262 74.6136 62.178 74.657 62.0278 74.7231C61.8776 74.7872 61.7721 74.8967 61.6869 75.0062C61.6017 75.1363 61.5164 75.2665 61.4738 75.4194C61.4312 75.5723 61.4109 75.7231 61.4109 75.8987C61.4109 76.0495 61.4312 76.2024 61.4738 76.3553C61.5164 76.5061 61.6017 76.659 61.6869 76.7685C61.7721 76.8987 61.8797 76.9855 62.0278 77.0516C62.178 77.1383 62.3262 77.1611 62.519 77.1611C62.6894 77.1611 62.8599 77.1383 62.9877 77.0516C63.1379 76.9855 63.2434 76.8987 63.3287 76.7685C63.4362 76.659 63.4992 76.5082 63.5418 76.3553C63.5844 76.2024 63.6067 76.0516 63.6067 75.8987C63.6067 75.7252 63.5844 75.5723 63.5418 75.4194C63.4992 75.2665 63.4362 75.1363 63.3287 75.0062C63.2434 74.8967 63.1359 74.7892 62.9877 74.7231C62.8619 74.657 62.6894 74.6136 62.519 74.6136ZM66.1698 75.9607C66.1698 75.7644 66.1475 75.5909 66.1272 75.4173C66.0846 75.2644 66.0196 75.1136 65.9344 75.0041C65.8491 74.8739 65.7416 74.7872 65.5934 74.7211C65.4656 74.6549 65.2951 74.6116 65.1024 74.6116C64.9319 74.6116 64.7817 74.6549 64.6539 74.7211C64.526 74.7851 64.3981 74.8739 64.3129 75.0041C64.2277 75.1136 64.1627 75.2644 64.1201 75.4173C64.0775 75.5702 64.0552 75.721 64.0552 75.8967C64.0552 76.0475 64.0775 76.2231 64.1201 76.3739C64.1627 76.5268 64.2277 76.657 64.3129 76.7644C64.3981 76.8945 64.5057 76.9813 64.6336 77.0474C64.7614 77.1342 64.9116 77.1569 65.082 77.1569C65.6584 77.1569 65.9993 76.8739 66.1495 76.3305H65.8512C65.8289 76.4834 65.7436 76.6342 65.6158 76.7437C65.4879 76.8532 65.3377 76.8966 65.1673 76.8966C64.9116 76.8966 64.6965 76.8098 64.5686 76.6363C64.4408 76.4627 64.3555 76.2458 64.3555 75.9628H66.1698V75.9607ZM64.3555 75.7004C64.3758 75.4607 64.4611 75.2665 64.5909 75.1136C64.7188 74.9607 64.8893 74.8739 65.1024 74.8739C65.3378 74.8739 65.5285 74.9607 65.6584 75.0909C65.7863 75.2438 65.8512 75.438 65.8715 75.6983H64.3555V75.7004ZM66.7238 75.2872C66.7238 75.3967 66.7462 75.4834 66.7888 75.5475C66.8314 75.6343 66.874 75.6776 66.9389 75.7437C67.0242 75.7871 67.0891 75.8305 67.1743 75.8533C67.2393 75.876 67.3448 75.8966 67.4727 75.94C67.495 75.94 67.5153 75.94 67.5579 75.9607C67.6654 75.9814 67.7507 76.0041 67.8136 76.0247C67.8988 76.0247 67.9638 76.0681 68.0267 76.0909C68.0916 76.1342 68.1342 76.1776 68.1545 76.221C68.1972 76.2871 68.2174 76.3512 68.2174 76.4173C68.2174 76.5702 68.1545 76.7003 68.0246 76.7644C67.9171 76.8512 67.769 76.8945 67.5985 76.8945C67.428 76.8945 67.2575 76.8512 67.15 76.785C67.0221 76.721 66.9572 76.5908 66.9369 76.438H66.6386C66.6386 76.5681 66.6812 76.6776 66.7238 76.7644C66.7664 76.8512 66.8517 76.9379 66.9369 76.9813C67.0222 77.0474 67.1074 77.0908 67.2149 77.1115C67.3204 77.1549 67.428 77.1549 67.5356 77.1549C67.6634 77.1549 67.771 77.1321 67.8988 77.1115C68.0064 77.0887 68.1119 77.0247 68.2194 76.9586C68.3047 76.8925 68.3899 76.8284 68.4325 76.7189C68.4975 76.6094 68.5178 76.502 68.5178 76.3718C68.5178 76.2417 68.4752 76.1322 68.4102 76.0247C68.3473 75.938 68.2397 75.8512 68.1119 75.8078C68.0043 75.7644 67.8339 75.721 67.5985 75.6549C67.3854 75.6115 67.2352 75.5454 67.15 75.502C67.0647 75.4586 67.0221 75.3719 67.0221 75.2624C67.0221 75.1322 67.0871 75.0454 67.1723 74.9793C67.2799 74.9153 67.4077 74.8719 67.5558 74.8719C67.7263 74.8719 67.8542 74.9153 67.9617 74.9793C68.0672 75.0454 68.1322 75.1322 68.1322 75.283H68.4529C68.4305 75.0434 68.3453 74.8698 68.1972 74.7624C68.0267 74.6756 67.8339 74.6095 67.5782 74.6095C67.4706 74.6095 67.3651 74.6322 67.2799 74.6529C67.1723 74.6756 67.0668 74.719 67.0018 74.7624C66.9166 74.8285 66.8517 74.8925 66.7888 74.9793C66.7462 75.0702 66.7238 75.1777 66.7238 75.2872ZM70.8435 77.0908V75.44H72.7003V77.0908H72.9986V73.6364H72.7003V75.157H70.8435V73.6364H70.5451V77.0908H70.8435ZM75.8398 75.9607C75.8398 75.7644 75.8174 75.5909 75.7748 75.4173C75.7322 75.2644 75.6673 75.1136 75.582 75.0041C75.4968 74.8739 75.3893 74.7872 75.2614 74.7211C75.1112 74.6549 74.9408 74.6116 74.75 74.6116C74.5795 74.6116 74.4293 74.6549 74.3015 74.7211C74.1736 74.7851 74.0661 74.8739 73.9809 75.0041C73.8733 75.1136 73.8104 75.2644 73.7678 75.4173C73.7252 75.5702 73.7028 75.721 73.7028 75.8967C73.7028 76.0475 73.7231 76.2231 73.7678 76.3739C73.8104 76.5268 73.8733 76.657 73.9606 76.7644C74.0458 76.8945 74.1534 76.9813 74.2812 77.0474C74.4091 77.1342 74.5795 77.1569 74.7297 77.1569C75.306 77.1569 75.6693 76.8739 75.7972 76.3305H75.5191C75.4765 76.4834 75.3913 76.6342 75.2634 76.7437C75.1356 76.8532 74.9854 76.8966 74.8373 76.8966C74.5592 76.8966 74.3461 76.8098 74.2183 76.6363C74.0904 76.4627 74.0255 76.2458 74.0052 75.9628H75.8398V75.9607ZM74.0255 75.7004C74.0478 75.4607 74.1108 75.2665 74.2386 75.1136C74.3665 74.9607 74.5369 74.8739 74.7723 74.8739C75.0077 74.8739 75.1782 74.9607 75.3061 75.0909C75.4339 75.2438 75.5191 75.438 75.5191 75.6983H74.0255V75.7004ZM76.7347 75.6343C76.7347 75.4173 76.7997 75.2211 76.9052 75.0909C77.033 74.938 77.1832 74.8739 77.3963 74.8739C77.4166 74.8739 77.4389 74.8739 77.5018 74.8967C77.5241 74.8967 77.5444 74.8967 77.5668 74.8967V74.6136C77.5444 74.6136 77.5242 74.6136 77.4815 74.6136C77.4186 74.6136 77.3537 74.6136 77.2685 74.6136C77.1609 74.6136 77.0554 74.657 76.9478 74.7438C76.8626 74.8306 76.7976 74.9173 76.755 75.0475H76.7327L76.7104 74.6777H76.4323C76.4323 74.7417 76.4323 74.7645 76.4323 74.7851C76.4546 74.9587 76.4547 75.1116 76.4547 75.219V77.0887H76.7327V75.6343H76.7347ZM80 75.9607C80 75.7644 79.9797 75.5909 79.9574 75.4173C79.9148 75.2644 79.8498 75.1136 79.7646 75.0041C79.6794 74.8739 79.5718 74.7872 79.4236 74.7211C79.2958 74.6549 79.1253 74.6116 78.9325 74.6116C78.7621 74.6116 78.6119 74.6549 78.484 74.7211C78.3339 74.7851 78.2284 74.8739 78.1431 75.0041C78.0579 75.1136 77.993 75.2644 77.9503 75.4173C77.9077 75.5702 77.8874 75.721 77.8874 75.8967C77.8874 76.0475 77.9077 76.2231 77.9503 76.3739C77.993 76.5268 78.0579 76.657 78.1431 76.7644C78.2284 76.8945 78.3359 76.9813 78.4637 77.0474C78.5916 77.1342 78.7418 77.1569 78.9123 77.1569C79.4886 77.1569 79.8295 76.8739 79.9797 76.3305H79.6814C79.6387 76.4834 79.5758 76.6342 79.446 76.7437C79.3181 76.8532 79.1679 76.8966 78.9975 76.8966C78.7195 76.8966 78.5267 76.8098 78.3988 76.6363C78.2487 76.4627 78.1857 76.2458 78.1857 75.9628H80V75.9607ZM78.1878 75.7004C78.2101 75.4607 78.2953 75.2665 78.4232 75.1136C78.551 74.9607 78.7215 74.8739 78.9366 74.8739C79.172 74.8739 79.3628 74.9607 79.4906 75.0909C79.6185 75.2438 79.6834 75.438 79.7037 75.6983H78.1878V75.7004Z" fill="#04CE78"></path><path d="M33.9595 25.698L15.0477 30.6524C8.1742 23.632 8.1742 12.2666 15.0477 5.24828C21.9415 -1.74943 33.1051 -1.74943 40.0009 5.24828L33.9595 25.698Z" fill="white"></path><path d="M40.0009 5.24828L27.5365 17.9607L19.8309 25.7848C17.8442 27.8281 14.8996 28.3054 12.446 27.262C13.1726 28.4789 14.0249 29.609 15.0497 30.6524L27.4086 43.2346L27.5365 43.3441L32.2325 48.125C36.5023 52.4926 43.5036 52.4926 47.7713 48.125L52.4674 43.3441L52.5952 43.2346L64.9541 30.6524C71.8276 23.632 71.8276 12.2666 64.9541 5.24828C58.0583 -1.74943 46.8947 -1.74943 40.0009 5.24828Z" fill="#04CE78"></path><path d="M40.8757 29.9123V35.9328C40.8757 37.0195 41.7504 37.9327 42.8402 37.9327H46.7893C47.8568 37.9327 48.7537 37.0195 48.7537 35.9328V29.9123H54.6673C55.7551 29.9123 56.6298 28.9991 56.6298 27.8917V23.8939C56.6298 22.7865 55.7551 21.894 54.6673 21.894H48.7537V15.8756C48.7537 14.7661 47.8568 13.855 46.7893 13.855H42.8402C41.7504 13.855 40.8757 14.7682 40.8757 15.8756V21.894H34.9641C33.8764 21.894 33.0017 22.7844 33.0017 23.8939V27.8917C33.0017 28.9991 33.8764 29.9123 34.9641 29.9123H40.8757Z" fill="#FEFEFE"></path></svg>