<svg xmlns="http://www.w3.org/2000/svg" width="80" height="78" viewBox="0 0 80 78" fill="none"><path d="M6.29699 59.4102V63.5654H3.09472V59.4102H0V70.834H3.09472V66.0662H6.29699V70.834H9.39171V59.4102H6.29699ZM17.2898 71.0678C20.7052 71.0678 23.181 68.3756 23.181 65.1111C23.181 61.8264 20.7052 59.1543 17.2898 59.1543C13.8542 59.1543 11.3764 61.8244 11.3764 65.1111C11.3784 68.3756 13.8542 71.0678 17.2898 71.0678ZM17.2898 68.2285C16.1149 68.2285 14.8993 67.5494 14.8993 65.0909C14.8993 62.6324 16.1149 61.9956 17.2898 61.9956C18.4202 61.9956 19.6601 62.6324 19.6601 65.0909C19.6601 67.5494 18.4222 68.2285 17.2898 68.2285ZM31.5479 62.4632L31.9314 59.8133C31.1623 59.5372 29.8818 59.1785 28.581 59.1785C26.8297 59.1785 24.4818 59.8132 24.4818 62.5276C24.4818 64.6254 25.8698 65.3468 28.4085 66.4491C29.1979 66.7675 29.7966 67.0214 29.7966 67.6159C29.7966 68.166 29.2202 68.295 28.6013 68.295C27.7693 68.295 26.6166 68.0411 24.9302 67.4265L24.4391 70.2033C26.296 70.9872 27.7693 71.0517 28.4511 71.0517C31.4829 71.0517 32.9339 69.8003 32.9339 67.5756C32.9339 65.5624 31.7386 64.6093 29.2852 63.6964C28.1528 63.2511 27.3431 63.0596 27.3431 62.5297C27.3431 62.042 28.027 61.8082 28.8164 61.8082C29.756 61.8062 30.7585 62.1448 31.5479 62.4632ZM38.827 59.4102H34.5147V70.834H37.6318V67.3156C41.0471 67.3156 43.5878 66.6385 43.5878 63.0979C43.5878 60.45 41.9644 59.4102 38.827 59.4102ZM37.6318 64.9418V61.5926H38.614C39.3181 61.5926 40.5357 61.5926 40.5357 63.2027C40.5357 64.9216 39.8295 64.9418 37.6318 64.9418ZM48.6896 59.4102H45.5725V70.834H48.6896V59.4102ZM59.2319 59.4102H50.033V61.9332H53.0851V70.834H56.1798V61.9332H59.2319V59.4102ZM67.195 70.834H70.9512L67.0022 59.4102H63.2662L59.4673 70.834H63.2236L63.8202 68.2708H66.574L67.195 70.834ZM64.3762 65.77L65.0601 62.7392H65.2306L65.9774 65.77H64.3762ZM75.3265 59.4102H72.2094V70.834H80V68.3131H75.3265V59.4102Z" fill="white"></path><path d="M45.0163 76.218C45.0163 76.0689 44.994 75.942 44.931 75.8573C44.8661 75.7525 44.8032 75.6659 44.6956 75.6034C44.6104 75.5188 44.5029 75.4765 44.3973 75.4341C44.2918 75.3918 44.1619 75.3273 43.9915 75.285C43.8413 75.2427 43.7135 75.2004 43.6282 75.1581C43.5227 75.1158 43.4354 75.0734 43.3502 75.009C43.2853 74.9666 43.2224 74.9021 43.1574 74.8175C43.1148 74.7329 43.0925 74.6482 43.0925 74.5414C43.0925 74.4346 43.1128 74.35 43.1574 74.2654C43.2203 74.2009 43.2853 74.1384 43.3502 74.0961C43.4354 74.0538 43.5207 74.0114 43.6059 73.9893C43.6911 73.9671 43.7987 73.947 43.8839 73.947C43.9691 73.947 44.0767 73.947 44.1619 73.9691C44.2472 73.9913 44.3121 74.0114 44.3973 74.0538C44.4623 74.0961 44.5049 74.1586 44.5475 74.223C44.5901 74.2875 44.6124 74.3722 44.6327 74.477H44.9534C44.9331 74.3077 44.8884 74.1807 44.8255 74.0739C44.7403 73.9671 44.6551 73.8825 44.5475 73.8402C44.4399 73.7757 44.3344 73.7334 44.2066 73.7132C44.099 73.6709 43.9712 73.6709 43.8433 73.6709C43.7155 73.6709 43.5876 73.6931 43.4598 73.7354C43.3319 73.7777 43.2041 73.82 43.0965 73.9046C43.0113 73.9893 42.9261 74.0739 42.8611 74.2009C42.7962 74.3077 42.7759 74.4346 42.7759 74.5817C42.7759 74.7309 42.7962 74.8578 42.8834 74.9848C42.9464 75.0916 43.0336 75.1762 43.1615 75.2608C43.267 75.3455 43.3746 75.3878 43.5024 75.4523C43.6303 75.4946 43.7804 75.5369 43.9712 75.6014C44.0564 75.6236 44.1213 75.6437 44.164 75.6659C44.3141 75.7082 44.442 75.7928 44.5475 75.8775C44.6327 75.9621 44.6753 76.0891 44.6753 76.2583C44.6753 76.343 44.6551 76.4498 44.6124 76.5344C44.5698 76.619 44.5049 76.6835 44.4196 76.7258C44.3344 76.7903 44.2492 76.8326 44.164 76.8528C44.0564 76.875 43.9712 76.8951 43.8656 76.8951C43.7601 76.8951 43.6302 76.8951 43.545 76.873C43.4375 76.8508 43.3522 76.8085 43.267 76.746C43.2041 76.7037 43.1392 76.6412 43.0965 76.5545C43.0539 76.4699 43.0113 76.3631 43.0113 76.2362H42.6907C42.6907 76.3631 42.713 76.4901 42.7759 76.5969C42.8185 76.7238 42.9037 76.8306 42.989 76.9153C43.0965 76.9999 43.2021 77.0624 43.3096 77.1067C43.4375 77.149 43.5653 77.1712 43.6932 77.1712C43.8859 77.1712 44.0564 77.1712 44.2045 77.1289C44.3547 77.0865 44.5029 77.0442 44.6104 76.9596C44.7383 76.8951 44.8458 76.7903 44.9087 76.6634C44.9737 76.5566 45.0163 76.4095 45.0163 76.218ZM45.9558 73.7374H45.6575V77.1067H45.9558V73.7374ZM48.4316 75.942C48.4316 76.0488 48.4113 76.1757 48.389 76.2805C48.3464 76.4074 48.3038 76.4921 48.2388 76.5989C48.1739 76.7057 48.0887 76.7682 47.9831 76.8326C47.8776 76.8971 47.7701 76.9173 47.6422 76.9173C47.492 76.9173 47.3865 76.8951 47.279 76.8326C47.1714 76.7702 47.0862 76.7057 47.0233 76.5989C46.9583 76.4941 46.9157 76.4074 46.8954 76.2805C46.8528 76.1737 46.8305 76.0468 46.8305 75.942C46.8305 75.815 46.8508 75.7082 46.8954 75.6034C46.9157 75.4765 46.9604 75.3697 47.0233 75.285C47.0882 75.1782 47.1734 75.0936 47.279 75.0513C47.3865 74.9868 47.492 74.9445 47.6422 74.9445C47.7701 74.9445 47.8776 74.9868 47.9831 75.0513C48.0907 75.0936 48.1759 75.1782 48.2388 75.285C48.3017 75.3697 48.3464 75.4765 48.389 75.6034C48.4113 75.7102 48.4316 75.815 48.4316 75.942ZM47.6422 74.6926C47.4494 74.6926 47.3013 74.7349 47.1511 74.7994C47.0233 74.8639 46.8954 74.9686 46.8102 75.0754C46.725 75.2024 46.6397 75.3294 46.5971 75.4785C46.5545 75.6276 46.5322 75.7747 46.5322 75.944C46.5322 76.0931 46.5525 76.2624 46.5971 76.3893C46.6397 76.5364 46.725 76.6855 46.8102 76.7923C46.8954 76.9193 47.0233 77.0039 47.1511 77.0684C47.3013 77.1531 47.4494 77.1752 47.6422 77.1752C47.8127 77.1752 47.9831 77.1531 48.111 77.0684C48.2612 77.006 48.3667 76.9213 48.4519 76.7923C48.5595 76.6855 48.6224 76.5384 48.665 76.3893C48.7076 76.2624 48.7299 76.0931 48.7299 75.944C48.7299 75.7747 48.7096 75.6256 48.665 75.4785C48.6224 75.3294 48.5574 75.2024 48.4519 75.0754C48.3667 74.9686 48.2591 74.8639 48.111 74.7994C47.9831 74.7349 47.8127 74.6926 47.6422 74.6926ZM50.9297 75.8795C50.9297 76.0064 50.9297 76.1132 50.8871 76.2402C50.8648 76.347 50.8222 76.4518 50.7593 76.5364C50.7166 76.6432 50.6314 76.7057 50.5239 76.7702C50.4386 76.8125 50.3311 76.8326 50.1829 76.8326C50.0754 76.8326 49.9699 76.8105 49.8623 76.7702C49.7771 76.7057 49.6918 76.6211 49.6269 76.5364C49.5843 76.4518 49.5193 76.345 49.4991 76.2402C49.4788 76.1132 49.4564 76.0064 49.4564 75.9016C49.4564 75.7948 49.4788 75.6679 49.4991 75.5631C49.5214 75.4563 49.564 75.3515 49.6269 75.2669C49.6918 75.1601 49.7547 75.0976 49.8623 75.0331C49.9475 74.9908 50.0551 74.9485 50.1829 74.9485C50.3108 74.9485 50.4183 74.9908 50.5036 75.0331C50.6111 75.0956 50.6963 75.1601 50.7593 75.2447C50.8242 75.3293 50.8668 75.4361 50.8871 75.5409C50.9297 75.6679 50.9297 75.7727 50.9297 75.8795ZM50.9297 75.1157V75.1379C50.8222 74.9888 50.7166 74.884 50.5888 74.8195C50.461 74.7349 50.3311 74.6926 50.1626 74.6926C49.9922 74.6926 49.842 74.7349 49.7142 74.7994C49.5863 74.8639 49.4788 74.9485 49.3935 75.0754C49.3083 75.1822 49.2434 75.3092 49.2007 75.4563C49.1804 75.6054 49.1581 75.7525 49.1581 75.9218C49.1581 76.0911 49.1804 76.2402 49.221 76.3893C49.2413 76.5163 49.3063 76.6432 49.3915 76.75C49.4767 76.8568 49.5843 76.9415 49.7121 77.0039C49.84 77.0664 49.9902 77.1087 50.1606 77.1087C50.3311 77.1087 50.4812 77.0664 50.6091 76.9818C50.7593 76.8971 50.8648 76.7903 50.9297 76.6634V77.1087C50.9297 77.3002 50.8648 77.4473 50.7166 77.5742C50.5888 77.681 50.4183 77.7435 50.2256 77.7435C50.0551 77.7435 49.9049 77.7213 49.7771 77.6588C49.6492 77.5944 49.5843 77.5097 49.564 77.3828H49.2434C49.2434 77.4896 49.286 77.5944 49.3286 77.679C49.3915 77.7435 49.4564 77.806 49.564 77.8704C49.6492 77.9128 49.7568 77.9551 49.8623 77.9772C49.9699 77.9994 50.0754 77.9994 50.1829 77.9994C50.3108 77.9994 50.396 77.9994 50.4812 77.9772C50.5462 77.9772 50.6314 77.9349 50.7166 77.8926C50.8445 77.8503 50.9297 77.7858 50.9947 77.7012C51.0596 77.6165 51.1225 77.5319 51.1448 77.4251C51.1874 77.3405 51.2098 77.2336 51.2098 77.1067C51.2098 77.0019 51.2301 76.8729 51.2301 76.7037V75.283C51.2301 75.1984 51.2301 75.0492 51.2524 74.8598V74.7752H50.9541L50.9297 75.1157ZM52.0174 76.4518C52.0174 76.3248 52.0601 76.2402 52.125 76.1556C52.1879 76.0911 52.2752 76.0488 52.3807 76.0064C52.4882 75.9641 52.5938 75.944 52.7013 75.944C52.8089 75.944 52.9367 75.944 53.1072 75.9218C53.1924 75.9218 53.235 75.9218 53.2574 75.9218C53.2574 75.944 53.2574 75.9641 53.2574 75.9863C53.2574 76.0286 53.2574 76.0487 53.2574 76.0709C53.2574 76.1777 53.2574 76.2825 53.2371 76.3893C53.2147 76.4961 53.1721 76.5808 53.1092 76.6654C53.0666 76.75 52.9814 76.8145 52.8961 76.8568C52.8109 76.8991 52.6831 76.9213 52.5552 76.9213C52.405 76.9213 52.2772 76.879 52.1717 76.8145C52.0824 76.7279 52.0174 76.5989 52.0174 76.4518ZM53.2553 75.6679C53.2127 75.6679 53.1052 75.6679 52.9773 75.6679C52.7845 75.6679 52.6364 75.6901 52.5288 75.6901C52.401 75.7122 52.2934 75.7324 52.1879 75.7747C52.0377 75.8392 51.9322 75.9238 51.847 76.0508C51.7617 76.1576 51.7191 76.3047 51.7191 76.4538C51.7191 76.6875 51.7841 76.8568 51.9322 76.9838C52.0824 77.1107 52.2731 77.1752 52.5085 77.1752C52.6587 77.1752 52.8068 77.1531 52.957 77.0684C53.0849 76.9838 53.1924 76.8991 53.235 76.7923L53.2553 76.7702L53.2756 77.1087H53.5536C53.5536 77.0664 53.5536 77.0241 53.5536 77.0241C53.5536 76.8327 53.5333 76.7057 53.5333 76.5787V75.4765C53.5333 75.2004 53.4684 75.011 53.3203 74.884C53.1701 74.7571 52.9793 74.6926 52.7013 74.6926C52.4659 74.6926 52.2752 74.757 52.1047 74.8618C51.9545 74.9686 51.849 75.1379 51.8267 75.3696H52.125C52.1473 75.2004 52.2102 75.1157 52.2955 75.0513C52.401 74.9868 52.5309 74.9445 52.7013 74.9445C52.8718 74.9445 52.9996 74.9868 53.1072 75.0714C53.1924 75.1359 53.2574 75.2629 53.2574 75.4523V75.6679H53.2553ZM54.5582 75.7525C54.5582 75.5409 54.6231 75.3495 54.7286 75.1802C54.8362 75.0311 55.0066 74.9465 55.242 74.9465C55.4348 74.9465 55.583 75.011 55.6905 75.1157C55.7981 75.2427 55.861 75.3918 55.861 75.6034V77.1087H56.139V75.6457C56.139 75.5611 56.1187 75.4543 56.1187 75.3495C56.0964 75.2649 56.0538 75.1581 55.9909 75.0533C55.9482 74.9465 55.863 74.8618 55.7352 74.7994C55.6276 74.7349 55.4795 74.6926 55.309 74.6926C55.1588 74.6926 55.0107 74.7349 54.8828 74.7994C54.755 74.884 54.6474 74.9908 54.5622 75.1178L54.5419 74.7792H54.2639V74.8638C54.2639 75.0553 54.2862 75.2024 54.2862 75.287V77.1087H54.5642V75.7525H54.5582ZM59.6173 75.3918V75.6679H60.4716V76.7702C60.3214 76.8125 60.1936 76.8326 60.0657 76.8548C59.9602 76.8971 59.8324 76.8971 59.7248 76.8971C59.4894 76.8971 59.2987 76.8548 59.1485 76.7903C58.978 76.7258 58.8502 76.6211 58.7426 76.4941C58.6351 76.3672 58.5722 76.1979 58.5072 76.0286C58.4646 75.8372 58.4443 75.6477 58.4443 75.4341C58.4443 75.2427 58.4646 75.0734 58.5072 74.884C58.5498 74.7147 58.6148 74.5656 58.7 74.4165C58.7852 74.2694 58.9131 74.1626 59.0633 74.078C59.1911 73.9933 59.3616 73.951 59.5543 73.951C59.7897 73.951 59.9602 74.0155 60.1307 74.1203C60.2809 74.2271 60.3864 74.3742 60.4087 74.5656H60.7496C60.7496 74.4387 60.707 74.3117 60.6218 74.1847C60.5568 74.08 60.4716 73.9732 60.3661 73.9087C60.2382 73.824 60.1104 73.7596 59.9825 73.7394C59.8547 73.6971 59.7045 73.6749 59.5564 73.6749C59.321 73.6749 59.1302 73.7172 58.9374 73.8241C58.7447 73.9087 58.5965 74.0578 58.489 74.2271C58.3611 74.3762 58.2759 74.5656 58.2109 74.7792C58.146 74.9908 58.1257 75.2024 58.1257 75.4362C58.1257 75.6901 58.146 75.9238 58.2109 76.1354C58.2759 76.347 58.3814 76.5384 58.489 76.6876C58.6168 76.8568 58.767 76.9636 58.9577 77.0483C59.1282 77.1329 59.3413 77.1752 59.5564 77.1752C59.7918 77.1752 60.0049 77.1752 60.1976 77.1329C60.3904 77.0906 60.5812 77.0483 60.774 76.9636V75.3958H59.6173V75.3918ZM63.3086 75.942C63.3086 76.0488 63.2863 76.1757 63.266 76.2805C63.2234 76.4074 63.1807 76.4921 63.1158 76.5989C63.0509 76.7057 62.9656 76.7682 62.8601 76.8326C62.7526 76.8971 62.647 76.9173 62.5192 76.9173C62.369 76.9173 62.2635 76.8951 62.1559 76.8326C62.0504 76.7702 61.9632 76.7057 61.9002 76.5989C61.8373 76.4941 61.7927 76.4074 61.7724 76.2805C61.7298 76.1737 61.7095 76.0468 61.7095 75.942C61.7095 75.815 61.7318 75.7082 61.7724 75.6034C61.7927 75.4765 61.8373 75.3697 61.9002 75.285C61.9652 75.1782 62.0504 75.0936 62.1559 75.0513C62.2635 74.9868 62.369 74.9445 62.5192 74.9445C62.647 74.9445 62.7546 74.9868 62.8601 75.0513C62.9677 75.0936 63.0529 75.1782 63.1158 75.285C63.1807 75.3697 63.2234 75.4765 63.266 75.6034C63.2883 75.7102 63.3086 75.815 63.3086 75.942ZM62.5192 74.6926C62.3264 74.6926 62.1783 74.7349 62.0281 74.7994C61.8779 74.8639 61.7724 74.9686 61.6872 75.0754C61.6019 75.2024 61.5167 75.3294 61.4741 75.4785C61.4315 75.6276 61.4112 75.7747 61.4112 75.944C61.4112 76.0931 61.4315 76.2624 61.4741 76.3893C61.5167 76.5364 61.6019 76.6855 61.6872 76.7923C61.7724 76.9193 61.88 77.0039 62.0281 77.0684C62.1783 77.1531 62.3264 77.1752 62.5192 77.1752C62.6896 77.1752 62.8601 77.1531 62.988 77.0684C63.1381 77.006 63.2437 76.9213 63.3289 76.7923C63.4364 76.6855 63.4994 76.5384 63.542 76.3893C63.5846 76.2624 63.6069 76.0931 63.6069 75.944C63.6069 75.7747 63.5846 75.6256 63.542 75.4785C63.4994 75.3294 63.4364 75.2024 63.3289 75.0754C63.2437 74.9686 63.1361 74.8639 62.988 74.7994C62.8601 74.7349 62.6896 74.6926 62.5192 74.6926ZM66.1699 76.0064C66.1699 75.815 66.1476 75.6457 66.1273 75.4765C66.0847 75.3273 66.0198 75.1802 65.9345 75.0734C65.8493 74.9465 65.7418 74.8618 65.5936 74.7974C65.4658 74.7329 65.2953 74.6905 65.1025 74.6905C64.9321 74.6905 64.7819 74.7329 64.654 74.7974C64.5262 74.8618 64.3983 74.9465 64.3131 75.0734C64.2279 75.1802 64.1629 75.3273 64.1203 75.4765C64.0777 75.6256 64.0554 75.7727 64.0554 75.942C64.0554 76.0911 64.0777 76.2603 64.1203 76.4074C64.1629 76.5566 64.2279 76.6835 64.3131 76.8105C64.3983 76.9173 64.5059 77.0019 64.6338 77.0865C64.7616 77.151 64.9118 77.1712 65.0822 77.1712C65.6586 77.1712 65.9995 76.8951 66.1496 76.3651H65.8513C65.829 76.5143 65.7438 76.6614 65.6159 76.7682C65.4881 76.875 65.3379 76.9173 65.1675 76.9173C64.9118 76.9173 64.6987 76.8326 64.5688 76.6634C64.441 76.4941 64.3557 76.2825 64.3557 76.0064H66.1699ZM64.3557 75.7525C64.376 75.5188 64.4613 75.3294 64.5911 75.1802C64.719 75.0311 64.8894 74.9465 65.1025 74.9465C65.3379 74.9465 65.5287 75.0311 65.6586 75.1802C65.7864 75.3072 65.8513 75.4986 65.8716 75.7525H64.3557ZM66.724 75.3495C66.724 75.4563 66.7463 75.5409 66.7869 75.6034C66.8295 75.688 66.8721 75.7525 66.937 75.7948C67.0223 75.8372 67.0872 75.8795 67.1724 75.9016C67.2353 75.9218 67.3429 75.944 67.4707 75.9863C67.491 75.9863 67.5134 75.9863 67.556 76.0064C67.6635 76.0286 67.7488 76.0487 67.8117 76.0709C67.8969 76.0931 67.9618 76.1132 68.0247 76.1354C68.0897 76.1777 68.1323 76.22 68.1526 76.2624C68.1952 76.3248 68.2155 76.3893 68.2155 76.4538C68.2155 76.6009 68.1526 76.7299 68.0227 76.8145C67.9152 76.879 67.767 76.9213 67.5966 76.9213C67.4261 76.9213 67.2556 76.8991 67.1481 76.8145C67.0202 76.752 66.9553 76.6452 66.935 76.476H66.6367C66.6367 76.6029 66.6793 76.7097 66.7219 76.7944C66.7645 76.879 66.8498 76.9636 66.935 77.0281C67.0202 77.0704 67.1055 77.1127 67.213 77.1349C67.3185 77.1772 67.4261 77.1772 67.5336 77.1772C67.6615 77.1772 67.769 77.1772 67.8969 77.1349C68.0044 77.1127 68.11 77.0503 68.2175 76.9858C68.3028 76.9233 68.388 76.8588 68.4306 76.752C68.4935 76.6674 68.5158 76.5405 68.5158 76.4135C68.5158 76.2865 68.4732 76.1797 68.4083 76.0749C68.3433 75.9903 68.2378 75.9057 68.11 75.8634C68.0024 75.8211 67.832 75.7787 67.5986 75.7162C67.3855 75.6739 67.2353 75.6316 67.1501 75.5671C67.0649 75.5248 67.0223 75.4402 67.0223 75.3334C67.0223 75.2064 67.0852 75.1218 67.1724 75.0573C67.28 74.9928 67.4078 74.9505 67.556 74.9505C67.7264 74.9505 67.8543 74.9928 67.9618 75.0573C68.0674 75.1198 68.1323 75.2064 68.1323 75.3535H68.4529C68.4306 75.1198 68.3454 74.9505 68.1972 74.8457C68.0268 74.7611 67.834 74.6966 67.5783 74.6966C67.4707 74.6966 67.3652 74.7188 67.28 74.7389C67.1724 74.7591 67.0669 74.8034 67.002 74.8457C66.9167 74.9082 66.8518 74.9727 66.7889 75.0573C66.7463 75.1379 66.724 75.2427 66.724 75.3495ZM70.8435 77.1087V75.4986H72.7003V77.1087H72.9986V73.7394H72.7003V75.2225H70.8435V73.7394H70.5452V77.1087H70.8435ZM75.8397 76.0064C75.8397 75.815 75.8173 75.6457 75.7747 75.4765C75.7321 75.3273 75.6672 75.1802 75.5819 75.0734C75.4967 74.9465 75.3892 74.8618 75.2613 74.7974C75.1111 74.7329 74.9407 74.6905 74.7499 74.6905C74.5795 74.6905 74.4293 74.7329 74.3014 74.7974C74.1736 74.8618 74.066 74.9465 73.9808 75.0734C73.8733 75.1802 73.8103 75.3273 73.7677 75.4765C73.7251 75.6256 73.7028 75.7727 73.7028 75.942C73.7028 76.0911 73.7231 76.2603 73.7677 76.4074C73.8103 76.5566 73.8733 76.6835 73.9605 76.8105C74.0457 76.9173 74.1533 77.0019 74.2812 77.0865C74.409 77.151 74.5795 77.1712 74.7296 77.1712C75.306 77.1712 75.6692 76.8951 75.7971 76.3651H75.519C75.4764 76.5143 75.3912 76.6614 75.2633 76.7682C75.1355 76.875 74.9853 76.9173 74.8372 76.9173C74.5592 76.9173 74.3461 76.8326 74.2182 76.6634C74.0904 76.4941 74.0255 76.2825 74.0052 76.0064H75.8397ZM74.0234 75.7525C74.0437 75.5188 74.1087 75.3294 74.2365 75.1802C74.3643 75.0311 74.5348 74.9465 74.7702 74.9465C75.0056 74.9465 75.1761 75.0311 75.3039 75.1802C75.4318 75.3072 75.517 75.4986 75.517 75.7525H74.0234ZM76.7346 75.7102C76.7346 75.4765 76.7995 75.287 76.9051 75.1581C77.0329 75.0311 77.1831 74.9465 77.3962 74.9465C77.4165 74.9465 77.4388 74.9686 77.5017 74.9686C77.524 74.9686 77.5443 74.9686 77.5666 74.9686V74.6926C77.5443 74.6926 77.524 74.6926 77.4814 74.6926C77.4185 74.6926 77.3535 74.6926 77.2683 74.6926C77.1608 74.6926 77.0552 74.7349 76.9477 74.8195C76.8625 74.9042 76.7975 74.9888 76.7549 75.1157H76.7346L76.7123 74.7772H76.4343C76.4343 74.8195 76.4343 74.8397 76.4343 74.8618C76.4566 75.0311 76.4566 75.1802 76.4566 75.285V77.1067H76.7346V75.7102ZM79.9998 76.0064C79.9998 75.815 79.9795 75.6457 79.9572 75.4765C79.9145 75.3273 79.8496 75.1802 79.7644 75.0734C79.6792 74.9465 79.5716 74.8618 79.4235 74.7974C79.2956 74.7329 79.1251 74.6905 78.9324 74.6905C78.7619 74.6905 78.6117 74.7329 78.4839 74.7974C78.3337 74.8618 78.2282 74.9465 78.1429 75.0734C78.0577 75.1802 77.9928 75.3273 77.9502 75.4765C77.9076 75.6256 77.8873 75.7727 77.8873 75.942C77.8873 76.0911 77.9076 76.2603 77.9502 76.4074C77.9928 76.5566 78.0577 76.6835 78.1429 76.8105C78.2282 76.9173 78.3357 77.0019 78.4636 77.0865C78.5914 77.151 78.7416 77.1712 78.9121 77.1712C79.4884 77.1712 79.8293 76.8951 79.9795 76.3651H79.6812C79.6386 76.5143 79.5757 76.6614 79.4458 76.7682C79.3179 76.875 79.1678 76.9173 78.9973 76.9173C78.7193 76.9173 78.5285 76.8326 78.3986 76.6634C78.2485 76.4941 78.1856 76.2825 78.1856 76.0064H79.9998ZM78.1876 75.7525C78.2099 75.5188 78.2931 75.3294 78.423 75.1802C78.5508 75.0311 78.7213 74.9465 78.9344 74.9465C79.1698 74.9465 79.3605 75.0311 79.4884 75.1802C79.6162 75.3072 79.6812 75.4986 79.7015 75.7525H78.1876Z" fill="#04CE78"></path><path d="M48.4116 16.7015V33.4029H31.5926H23.1607C18.5298 33.4029 14.7512 29.6729 14.7512 25.0522C14.7512 20.4517 18.5298 16.7015 23.1607 16.7015H31.5926V8.35075C31.5926 3.73003 35.3489 0 40.0021 0C44.6553 0 48.4116 3.73003 48.4116 8.35075V16.7015Z" fill="white"></path><path d="M48.4116 16.7017H56.8211C61.4743 16.7017 65.2529 20.4539 65.2529 25.0524C65.2529 29.6731 61.4743 33.4031 56.8211 33.4031H48.4116V41.776C48.4116 46.3746 44.6553 50.1268 40.002 50.1268C35.3488 50.1268 31.5925 46.3746 31.5925 41.776V33.4031C31.5925 24.2262 39.168 16.7017 48.4116 16.7017Z" fill="#04CE78"></path></svg>