<svg xmlns="http://www.w3.org/2000/svg" width="82" height="78" viewBox="0 0 82 78" fill="none"><path d="M6.45431 58.8086V63.0942H3.17206V58.8086H0V70.5908H3.17206V65.6942H6.45431V70.5908H9.62637V58.8086H6.45431ZM17.7198 70.8298C21.2205 70.8298 23.7582 68.0531 23.7582 64.6862C23.7582 61.2985 21.2205 58.5654 17.7198 58.5654C14.1983 58.5654 11.6586 61.2985 11.6586 64.6862C11.6607 68.0552 14.1983 70.8298 17.7198 70.8298ZM17.7198 67.9242C16.5155 67.9242 15.2695 67.2238 15.2695 64.6882C15.2695 62.1298 16.5155 61.4751 17.7198 61.4751C18.8805 61.4751 20.1493 62.1319 20.1493 64.6882C20.1493 67.2238 18.8805 67.9242 17.7198 67.9242ZM32.3342 61.9781L32.7273 59.2451C31.9389 58.9395 30.6264 58.5675 29.2931 58.5675C27.5001 58.5675 25.0915 59.245 25.0915 62.0425C25.0915 64.1853 26.5142 64.9501 29.1164 66.0641C29.9255 66.3925 30.5391 66.6544 30.5391 67.2675C30.5391 67.8349 29.9484 67.9887 29.314 67.9887C28.4611 67.9887 27.2797 67.7268 25.5511 67.0929L25.0478 69.934C26.951 70.7653 28.4611 70.8298 29.1621 70.8298C32.2676 70.8298 33.7569 69.5184 33.7569 67.2218C33.7569 65.1455 32.5317 64.1625 30.017 63.221C28.8563 62.7824 28.0264 62.5662 28.0264 62.0404C28.0264 61.5375 28.7274 61.2756 29.5365 61.2756C30.4975 61.2777 31.525 61.6497 32.3342 61.9781ZM39.7952 58.8086H35.3752V70.5908H38.5701V66.962C42.0708 66.962 44.675 66.2844 44.675 62.612C44.675 59.8997 43.011 58.8086 39.7952 58.8086ZM38.5701 64.5137V61.0595H39.5768C40.2986 61.0595 41.5467 61.0595 41.5467 62.7429C41.5467 64.5137 40.8228 64.5137 38.5701 64.5137ZM49.9042 58.8086H46.7093V70.5908H49.9042V58.8086ZM60.71 58.8086H51.2812V61.4107H54.4096V70.5929H57.5816V61.4107H60.71V58.8086ZM68.8721 70.5908H72.7222L68.6745 58.8086H64.8452L60.9513 70.5908H64.8014L65.413 67.9679H68.2356L68.8721 70.5908ZM65.9829 65.3658L66.6839 62.2399H66.8586L67.6241 65.3658H65.9829ZM77.2068 58.8086H74.0119V70.5908H81.9972V67.9887H77.2047V58.8086H77.2068Z" fill="white"></path><path d="M46.1392 76.1647C46.1392 76.0109 46.1164 75.8799 46.0519 75.7719C45.9853 75.6617 45.9208 75.5744 45.8106 75.51C45.7232 75.4456 45.613 75.379 45.5048 75.3354C45.3946 75.2917 45.2635 75.2481 45.0888 75.1816C44.9349 75.138 44.8039 75.0943 44.7165 75.0507C44.6063 75.007 44.5189 74.9634 44.4315 74.9197C44.365 74.8532 44.3005 74.7888 44.2339 74.7015C44.1902 74.6371 44.1673 74.5269 44.1673 74.4168C44.1673 74.3066 44.1882 74.2193 44.2339 74.1549C44.3005 74.0676 44.365 74.0011 44.4315 73.9575C44.5189 73.9138 44.6062 73.8702 44.6936 73.8473C44.781 73.8265 44.8912 73.8037 44.9786 73.8037C45.066 73.8037 45.1762 73.8265 45.2635 73.8473C45.3509 73.8473 45.4174 73.8909 45.5048 73.9346C45.5714 73.9574 45.615 74.0219 45.6587 74.0884C45.7024 74.1528 45.7253 74.2422 45.7461 74.3503H46.0747C46.0518 74.1965 46.0082 74.0655 45.9437 73.9575C45.8563 73.8473 45.769 73.76 45.6587 73.6956C45.5485 73.6312 45.4403 73.5875 45.3093 73.5646C45.2011 73.5438 45.068 73.521 44.9369 73.521C44.8059 73.521 44.6749 73.5439 44.5438 73.5854C44.4128 73.6291 44.2817 73.6935 44.1715 73.76C44.0841 73.8473 43.9968 73.9575 43.9302 74.0655C43.8637 74.1757 43.8428 74.3066 43.8428 74.4604C43.8428 74.6121 43.8637 74.7659 43.9531 74.8761C44.0176 74.9862 44.107 75.0943 44.2381 75.1608C44.3483 75.2481 44.4565 75.3146 44.5875 75.3583C44.7186 75.4019 44.8725 75.4684 45.068 75.5121C45.1554 75.5557 45.2219 75.5786 45.2656 75.5786C45.4195 75.643 45.5506 75.7095 45.6587 75.7968C45.7461 75.9069 45.7898 76.0379 45.7898 76.1896C45.7898 76.2977 45.769 76.387 45.7232 76.4743C45.6795 76.5616 45.613 76.6281 45.5256 76.6926C45.4383 76.7362 45.3509 76.7799 45.2635 76.8027C45.1533 76.8464 45.0659 76.8464 44.9578 76.8464C44.8496 76.8464 44.7165 76.8464 44.6291 76.8235C44.5189 76.8027 44.4315 76.7591 44.3442 76.7154C44.2797 76.6489 44.2131 76.5845 44.1694 76.4972C44.1257 76.4099 44.0821 76.2997 44.0821 76.1688H43.7534C43.7534 76.2997 43.7763 76.4307 43.8408 76.5637C43.8844 76.6718 43.9718 76.782 44.0592 76.8692C44.1694 76.9565 44.2776 77.023 44.3878 77.0667C44.5189 77.1311 44.6499 77.1539 44.7809 77.1539C44.9785 77.1539 45.1533 77.1311 45.3051 77.0896C45.459 77.0667 45.6109 77.0023 45.7211 76.9358C45.8522 76.8485 45.9624 76.7611 46.0269 76.6302C46.0955 76.493 46.1392 76.3392 46.1392 76.1647ZM47.1023 73.6062H46.7965V77.0604H47.1023V73.6062ZM49.6399 75.8591C49.6399 75.9901 49.6171 76.1003 49.5963 76.2083C49.5526 76.3393 49.5089 76.4494 49.4423 76.5367C49.3758 76.6468 49.2884 76.7342 49.1803 76.7778C49.0721 76.8443 48.9618 76.8879 48.8308 76.8879C48.6768 76.8879 48.5687 76.8443 48.4585 76.7778C48.3482 76.7342 48.2609 76.6468 48.1964 76.5367C48.1298 76.4494 48.0861 76.3393 48.0653 76.2083C48.0217 76.0982 48.0008 75.9901 48.0008 75.8591C48.0008 75.749 48.0217 75.6181 48.0653 75.51C48.0882 75.3791 48.1319 75.2689 48.1964 75.1816C48.2609 75.0714 48.3503 75.007 48.4585 74.9405C48.5666 74.8761 48.6768 74.8533 48.8308 74.8533C48.9618 74.8533 49.0721 74.8761 49.1803 74.9405C49.2905 75.005 49.3779 75.0714 49.4423 75.1816C49.5068 75.2689 49.5505 75.3791 49.5963 75.51C49.6191 75.6181 49.6399 75.749 49.6399 75.8591ZM48.8308 74.5914C48.6332 74.5914 48.4813 74.6121 48.3274 74.6787C48.1964 74.7659 48.0653 74.8532 47.978 74.9842C47.8906 75.0922 47.8033 75.2253 47.7596 75.377C47.7159 75.5308 47.693 75.7053 47.693 75.8571C47.693 76.0316 47.7138 76.1855 47.7596 76.3372C47.8033 76.491 47.8906 76.6219 47.978 76.7528C48.0653 76.8609 48.1964 76.9711 48.3274 77.0376C48.4813 77.102 48.6332 77.1477 48.8308 77.1477C49.0055 77.1477 49.1802 77.1041 49.3113 77.0376C49.4652 76.9711 49.5734 76.863 49.6608 76.7528C49.771 76.6219 49.8354 76.491 49.8791 76.3372C49.9228 76.1834 49.9457 76.0316 49.9457 75.8571C49.9457 75.7033 49.9228 75.5287 49.8791 75.377C49.8354 75.2232 49.7689 75.0922 49.6608 74.9842C49.5734 74.8532 49.4631 74.7639 49.3113 74.6787C49.1802 74.6121 49.0055 74.5914 48.8308 74.5914ZM52.2005 75.8155C52.2005 75.9257 52.2005 76.0566 52.1568 76.1647C52.1339 76.2748 52.0902 76.3829 52.0257 76.493C51.982 76.5803 51.8947 76.6469 51.7845 76.7113C51.6971 76.7757 51.5868 76.7986 51.435 76.7986C51.3268 76.7986 51.2166 76.7549 51.1064 76.7113C51.019 76.6448 50.9316 76.5804 50.8651 76.4702C50.8214 76.3829 50.7548 76.2727 50.734 76.1647C50.7132 76.0545 50.6904 75.9236 50.6904 75.8155C50.6904 75.7074 50.7132 75.5973 50.734 75.4664C50.7569 75.3562 50.8006 75.2481 50.8651 75.1608C50.9316 75.0736 50.9961 74.9863 51.1064 74.9426C51.1937 74.8782 51.3039 74.8553 51.435 74.8553C51.566 74.8553 51.6763 74.8782 51.7636 74.9218C51.8739 74.9883 51.9612 75.0528 52.0257 75.1629C52.0923 75.2502 52.136 75.3604 52.1568 75.4684C52.2005 75.5744 52.2005 75.6846 52.2005 75.8155ZM52.2005 75.005V75.0278C52.0902 74.8761 51.982 74.766 51.851 74.6995C51.7199 74.6122 51.5889 74.5914 51.4142 74.5914C51.2395 74.5914 51.0856 74.6121 50.9545 74.6787C50.8235 74.7452 50.7132 74.8533 50.6259 74.9634C50.5385 75.0736 50.472 75.2045 50.4283 75.3562C50.4075 75.51 50.3846 75.6617 50.3846 75.8363C50.3846 76.0109 50.4054 76.1646 50.449 76.3164C50.4719 76.4702 50.5364 76.6011 50.6238 76.7113C50.7111 76.8194 50.8214 76.9087 50.9524 76.9732C51.0835 77.0168 51.2374 77.0604 51.4121 77.0604C51.5869 77.0604 51.7408 77.0168 51.8718 76.9295C52.0257 76.863 52.1339 76.7549 52.2005 76.6011V77.0604C52.2005 77.2558 52.1339 77.4096 51.9821 77.5405C51.851 77.6715 51.6763 77.7151 51.4787 77.7151C51.304 77.7151 51.15 77.6922 51.019 77.6278C50.8879 77.5842 50.8214 77.474 50.8006 77.3431H50.4719C50.4719 77.4533 50.5156 77.5613 50.5593 77.6486C50.6259 77.7359 50.6904 77.8024 50.8006 77.8461C50.888 77.8897 50.9982 77.9334 51.1064 77.9562C51.2166 77.977 51.3247 77.9999 51.435 77.9999C51.566 77.9999 51.6534 77.977 51.7408 77.977C51.8074 77.9562 51.8947 77.9333 51.9821 77.8897C52.1131 77.8232 52.2004 77.7587 52.267 77.6715C52.3336 77.5842 52.398 77.4969 52.4209 77.4096C52.4646 77.2994 52.4875 77.1914 52.4875 77.0812C52.4875 76.9503 52.5083 76.8193 52.5083 76.6448V75.2024C52.5083 75.0922 52.5083 74.9405 52.5312 74.7431V74.6558H52.2254L52.2005 75.005ZM53.3153 76.4058C53.3153 76.2748 53.359 76.1647 53.4256 76.1003C53.4901 76.013 53.5795 75.9693 53.6877 75.9257C53.7979 75.9028 53.9061 75.882 54.0163 75.8612C54.1266 75.8612 54.2576 75.8612 54.4323 75.8612C54.5197 75.8612 54.5634 75.8612 54.5863 75.8612C54.5863 75.8612 54.5863 75.882 54.5863 75.9257C54.5863 75.9464 54.5863 75.9693 54.5863 75.9922C54.5863 76.1023 54.5862 76.2332 54.5634 76.3205C54.5405 76.4307 54.4968 76.5388 54.4323 76.6053C54.3887 76.6926 54.3013 76.7591 54.2139 76.8027C54.1266 76.8464 53.9955 76.89 53.8645 76.89C53.7106 76.89 53.5795 76.8464 53.4713 76.7591C53.3819 76.6676 53.3153 76.5575 53.3153 76.4058ZM54.5842 75.5973C54.5405 75.5973 54.4302 75.5973 54.2992 75.5973C54.1016 75.5973 53.9498 75.5973 53.8395 75.5973C53.7085 75.618 53.6003 75.6409 53.4901 75.6846C53.3362 75.7511 53.228 75.8384 53.1407 75.9693C53.0533 76.1002 53.0096 76.2312 53.0096 76.385C53.0096 76.6261 53.0762 76.8007 53.228 76.9316C53.3798 77.0854 53.5775 77.1498 53.8187 77.1498C53.9727 77.1498 54.1245 77.1062 54.2784 77.0189C54.4095 76.9524 54.5197 76.8443 54.5634 76.757L54.5863 76.7134L54.607 77.0625H54.892C54.892 77.0189 54.892 76.996 54.892 76.9752C54.892 76.8007 54.8712 76.6469 54.8712 76.5159V75.3791C54.8712 75.1172 54.8047 74.899 54.6528 74.7888C54.4989 74.6579 54.3034 74.5914 54.0184 74.5914C53.7771 74.5914 53.5816 74.635 53.4048 74.7452C53.2509 74.8532 53.1427 75.0299 53.1198 75.2689H53.4256C53.4485 75.1151 53.513 75.007 53.6003 74.9405C53.7085 74.8761 53.8395 74.8533 54.0163 74.8533C54.1931 74.8533 54.3221 74.8969 54.4323 74.9634C54.5197 75.0507 54.5863 75.1816 54.5863 75.3562V75.5973H54.5842ZM55.9196 75.6846C55.9196 75.4435 55.9861 75.2481 56.0943 75.0943C56.2045 74.9197 56.3793 74.8533 56.6185 74.8533C56.8161 74.8533 56.9679 74.8969 57.0781 75.0278C57.1884 75.138 57.2529 75.3125 57.2529 75.5079V77.0604H57.5378V75.5515C57.5378 75.4643 57.517 75.3541 57.517 75.2668C57.4941 75.1567 57.4505 75.0486 57.386 74.9384C57.3423 74.8283 57.2549 74.741 57.1239 74.6766C57.0137 74.6101 56.8618 74.5893 56.6871 74.5893C56.5332 74.5893 56.3813 74.6101 56.2503 74.6974C56.1193 74.7618 56.009 74.8719 55.9216 75.0257V75.0029L55.9009 74.6537H55.6159V74.741C55.6159 74.9385 55.6367 75.0902 55.6367 75.2003V77.0584H55.9216V75.6846H55.9196ZM61.1051 75.2897V75.5952H61.9808V76.7113C61.8269 76.7549 61.6958 76.7986 61.5648 76.8194C61.4566 76.8422 61.3235 76.8422 61.2153 76.8422C60.974 76.8422 60.7785 76.8193 60.6246 76.732C60.4499 76.6676 60.3189 76.5575 60.2086 76.4265C60.0984 76.2956 60.0339 76.1418 59.9673 75.9465C59.9236 75.7719 59.9029 75.5536 59.9029 75.3354C59.9029 75.1379 59.9236 74.9634 59.9673 74.7888C60.011 74.5914 60.0776 74.4397 60.1649 74.2859C60.2523 74.1549 60.3833 74.024 60.5372 73.9367C60.6683 73.8494 60.843 73.8058 61.0406 73.8058C61.2819 73.8058 61.4566 73.8722 61.6313 73.9803C61.7853 74.0905 61.8934 74.2422 61.9163 74.4604H62.2658C62.2658 74.3066 62.2221 74.1757 62.1347 74.0655C62.0682 73.9346 61.9808 73.8473 61.8726 73.76C61.7416 73.6935 61.6105 73.6291 61.4795 73.5854C61.3484 73.5418 61.1946 73.521 61.0427 73.521C60.8014 73.521 60.6059 73.5854 60.4083 73.6727C60.2107 73.7829 60.0589 73.9138 59.9486 74.0884C59.8176 74.263 59.7302 74.4604 59.6636 74.6558C59.5971 74.874 59.5763 75.1151 59.5763 75.3333C59.5763 75.5952 59.5971 75.8363 59.6636 76.0545C59.7302 76.2956 59.8384 76.4702 59.9486 76.6448C60.0797 76.7986 60.2335 76.9295 60.4291 77.0168C60.6038 77.1041 60.8222 77.1477 61.0427 77.1477C61.284 77.1477 61.5024 77.1249 61.7 77.0833C61.8976 77.0605 62.0931 76.996 62.2907 76.9295V75.2897H61.1051ZM64.8887 75.8591C64.8887 75.9901 64.8658 76.1003 64.845 76.2083C64.8013 76.3393 64.7576 76.4494 64.6911 76.5367C64.6245 76.6468 64.5372 76.7342 64.429 76.7778C64.3188 76.8443 64.2106 76.8879 64.0795 76.8879C63.9256 76.8879 63.8174 76.8443 63.7072 76.7778C63.597 76.7342 63.5096 76.6468 63.4451 76.5367C63.3786 76.4494 63.3349 76.3393 63.3141 76.2083C63.2704 76.0982 63.2496 75.9901 63.2496 75.8591C63.2496 75.749 63.2725 75.6181 63.3141 75.51C63.3349 75.3791 63.3786 75.2689 63.4451 75.1816C63.5117 75.0714 63.599 75.007 63.7072 74.9405C63.8154 74.8761 63.9256 74.8533 64.0795 74.8533C64.2106 74.8533 64.3209 74.8761 64.429 74.9405C64.5393 75.005 64.6266 75.0714 64.6911 75.1816C64.7576 75.2689 64.8013 75.3791 64.845 75.51C64.8679 75.6181 64.8887 75.749 64.8887 75.8591ZM64.0795 74.5914C63.8819 74.5914 63.7301 74.6121 63.5762 74.6787C63.4223 74.7659 63.3141 74.8532 63.2268 74.9842C63.1394 75.0922 63.052 75.2253 63.0083 75.377C62.9647 75.5308 62.9438 75.7053 62.9438 75.8571C62.9438 76.0316 62.9647 76.1855 63.0083 76.3372C63.052 76.491 63.1394 76.6219 63.2268 76.7528C63.3141 76.8609 63.4243 76.9711 63.5762 77.0376C63.7301 77.102 63.8819 77.1477 64.0795 77.1477C64.2543 77.1477 64.429 77.1041 64.56 77.0376C64.714 76.9711 64.8221 76.863 64.9095 76.7528C65.0197 76.6219 65.0842 76.491 65.1279 76.3372C65.1716 76.1834 65.1945 76.0316 65.1945 75.8571C65.1945 75.7033 65.1716 75.5287 65.1279 75.377C65.0842 75.2232 65.0197 75.0922 64.9095 74.9842C64.8221 74.8532 64.7119 74.7639 64.56 74.6787C64.4311 74.6121 64.2543 74.5914 64.0795 74.5914ZM67.8215 75.9236C67.8215 75.7261 67.7987 75.5516 67.7779 75.3998C67.7342 75.2253 67.6676 75.0943 67.5803 74.9634C67.4929 74.8533 67.3827 74.7452 67.2308 74.6787C67.0998 74.6121 66.925 74.5914 66.7274 74.5914C66.5527 74.5914 66.3988 74.6121 66.2677 74.6787C66.1367 74.7452 66.0057 74.8533 65.9183 74.9634C65.8309 75.0943 65.7644 75.2253 65.7207 75.3791C65.677 75.5329 65.6562 75.7074 65.6562 75.8591C65.6562 76.0337 65.677 76.1875 65.7207 76.3393C65.7644 76.493 65.8309 76.624 65.9183 76.7549C66.0057 76.863 66.1159 76.9732 66.247 77.0397C66.378 77.1041 66.5319 77.1498 66.7067 77.1498C67.2974 77.1498 67.6468 76.8651 67.8008 76.2977H67.495C67.4721 76.4723 67.3847 76.6032 67.2537 76.7134C67.1226 76.8214 66.9687 76.8879 66.794 76.8879C66.5319 76.8879 66.3135 76.8006 66.1804 76.6032C66.0494 76.4286 65.962 76.2104 65.962 75.9257H67.8215V75.9236ZM65.962 75.6617C65.9849 75.4435 66.0701 75.246 66.2032 75.0714C66.3343 74.9176 66.509 74.8533 66.7274 74.8533C66.9687 74.8533 67.1642 74.9197 67.2973 75.0714C67.4284 75.2252 67.495 75.4206 67.5158 75.6617H65.962ZM68.3894 75.246C68.3894 75.3562 68.4123 75.4435 68.4559 75.5308C68.4996 75.5973 68.5433 75.6617 68.6099 75.7053C68.6972 75.749 68.7638 75.7926 68.8511 75.8155C68.9177 75.8591 69.0259 75.8799 69.1569 75.9028C69.1798 75.9028 69.2006 75.9257 69.2443 75.9257C69.3545 75.9464 69.4419 75.9693 69.5064 75.9922C69.5937 76.013 69.6603 76.0358 69.7248 76.0795C69.7913 76.1023 69.835 76.146 69.8558 76.2104C69.8995 76.2541 69.9203 76.3206 69.9203 76.4079C69.9203 76.5617 69.8558 76.6697 69.7227 76.757C69.6125 76.8443 69.4606 76.8879 69.2859 76.8879C69.1112 76.8879 68.9364 76.8443 68.8262 76.7778C68.6952 76.6905 68.6286 76.5804 68.6078 76.4058H68.302C68.302 76.5367 68.3457 76.6468 68.3894 76.7341C68.4331 76.8443 68.5204 76.9087 68.6078 76.9752C68.6951 77.0417 68.7825 77.0854 68.8928 77.1062C69.0009 77.129 69.1111 77.1498 69.2214 77.1498C69.3524 77.1498 69.4627 77.127 69.5937 77.0854C69.704 77.0625 69.8121 77.0189 69.9224 76.9544C70.0097 76.89 70.0971 76.8006 70.1408 76.6926C70.2074 76.6053 70.2281 76.4952 70.2281 76.3642C70.2281 76.2333 70.1845 76.1023 70.1179 76.015C70.0513 75.9049 69.9432 75.8404 69.8121 75.7968C69.7019 75.7531 69.5272 75.6866 69.288 75.643C69.0696 75.5786 68.9156 75.5328 68.8283 75.4892C68.7409 75.4248 68.6972 75.3583 68.6972 75.2481C68.6972 75.1172 68.7617 75.007 68.8511 74.9426C68.9593 74.8782 69.0924 74.8553 69.2443 74.8553C69.419 74.8553 69.5501 74.8782 69.6603 74.9426C69.7705 75.007 69.835 75.1172 69.835 75.2481H70.1636C70.1408 75.007 70.0534 74.8553 69.9016 74.7452C69.7268 74.635 69.5292 74.5914 69.2671 74.5914C69.1569 74.5914 69.0487 74.5913 68.9614 74.6121C68.8532 74.635 68.743 74.6787 68.6764 74.7431C68.5891 74.7867 68.5225 74.8512 68.458 74.9405C68.4123 75.0278 68.3894 75.138 68.3894 75.246ZM72.6119 77.0604V75.3998H74.5151V77.0604H74.8209V73.6062H74.5151V75.1151H72.6119V73.6062H72.3061V77.0604H72.6119ZM77.7329 75.9236C77.7329 75.7261 77.71 75.5516 77.6664 75.3998C77.6227 75.2253 77.5561 75.0943 77.4688 74.9634C77.3814 74.8533 77.2711 74.7452 77.1401 74.6787C76.9862 74.6121 76.8115 74.5914 76.6159 74.5914C76.4412 74.5914 76.2873 74.6121 76.1562 74.6787C76.0252 74.7452 75.9149 74.8533 75.8276 74.9634C75.7173 75.0943 75.6529 75.2253 75.6092 75.3791C75.5655 75.5329 75.5426 75.7074 75.5426 75.8591C75.5426 76.0337 75.5635 76.1875 75.6092 76.3393C75.6529 76.493 75.7174 76.624 75.8068 76.7549C75.8942 76.863 76.0044 76.9732 76.1354 77.0397C76.2665 77.1041 76.4412 77.1498 76.5952 77.1498C77.1859 77.1498 77.5582 76.8651 77.6893 76.2977H77.4043C77.3606 76.4723 77.2732 76.6032 77.1422 76.7134C77.0111 76.8214 76.8572 76.8879 76.7054 76.8879C76.4204 76.8879 76.202 76.8006 76.071 76.6032C75.9399 76.4286 75.8734 76.2104 75.8526 75.9257H77.7329V75.9236ZM75.8713 75.6617C75.8941 75.4435 75.9586 75.246 76.0897 75.0714C76.2207 74.9176 76.3955 74.8533 76.6367 74.8533C76.878 74.8533 77.0527 74.9197 77.1838 75.0714C77.3148 75.2252 77.4022 75.4206 77.4022 75.6617H75.8713ZM78.6502 75.6181C78.6502 75.377 78.7168 75.1816 78.825 75.0507C78.956 74.9197 79.1099 74.8533 79.3283 74.8533C79.3512 74.8533 79.372 74.8533 79.4365 74.8533C79.4594 74.8533 79.4802 74.8761 79.503 74.8761V74.5914C79.4802 74.5914 79.4593 74.5914 79.4156 74.5914C79.3512 74.5914 79.2846 74.5914 79.1973 74.5914C79.087 74.5914 78.9789 74.635 78.8686 74.6995C78.7813 74.7867 78.7147 74.8969 78.671 75.005H78.6502L78.6273 74.6558H78.3424C78.3424 74.6994 78.3424 74.7223 78.3424 74.7431C78.3652 74.9405 78.3653 75.0715 78.3653 75.2024V77.0604H78.6502V75.6181ZM81.9991 75.9236C81.9991 75.7261 81.9782 75.5516 81.9554 75.3998C81.9117 75.2253 81.8451 75.0943 81.7578 74.9634C81.6704 74.8533 81.5602 74.7452 81.4083 74.6787C81.2773 74.6121 81.1026 74.5914 80.905 74.5914C80.7303 74.5914 80.5764 74.6121 80.4453 74.6787C80.2914 74.7452 80.1832 74.8533 80.0958 74.9634C80.0085 75.0943 79.9419 75.2253 79.8982 75.3791C79.8546 75.5329 79.8337 75.7074 79.8337 75.8591C79.8337 76.0337 79.8546 76.1875 79.8982 76.3393C79.9419 76.493 80.0085 76.624 80.0958 76.7549C80.1832 76.863 80.2934 76.9732 80.4245 77.0397C80.5555 77.1041 80.7094 77.1498 80.8842 77.1498C81.4749 77.1498 81.8243 76.8651 81.9783 76.2977H81.6725C81.6288 76.4723 81.5623 76.6032 81.4312 76.7134C81.3002 76.8214 81.1462 76.8879 80.9715 76.8879C80.6866 76.8879 80.491 76.8006 80.3579 76.6032C80.204 76.4286 80.1395 76.2104 80.1395 75.9257H81.9991V75.9236ZM80.1395 75.6617C80.1624 75.4435 80.2498 75.246 80.3808 75.0714C80.5119 74.9176 80.6866 74.8533 80.9071 74.8533C81.1484 74.8533 81.3439 74.9197 81.4749 75.0714C81.606 75.2252 81.6725 75.4206 81.6933 75.6617H80.1395Z" fill="#04CE78"></path><path d="M54.607 5.7295C58.218 5.7295 61.1488 8.65996 61.1488 12.2659C61.1488 15.8739 58.218 18.8023 54.607 18.8023C50.9753 18.8023 48.0446 15.8739 48.0446 12.2659C48.0425 8.65996 50.9753 5.7295 54.607 5.7295ZM27.3898 32.9039C31.0215 32.9039 33.9523 35.8323 33.9523 39.4403C33.9523 43.0691 31.0215 45.9975 27.3898 45.9975C23.7788 45.9975 20.8481 43.0691 20.8481 39.4403C20.8502 35.8323 23.7809 32.9039 27.3898 32.9039ZM27.3898 23.196C30.4079 23.196 33.1432 21.9718 35.1338 20.0036C37.1015 18.0146 38.3287 15.2816 38.3287 12.2638C38.3287 10.121 38.7655 8.02401 39.5767 6.05581C40.4087 4.08969 41.5902 2.29606 43.0982 0.787175C44.1486 -0.262392 45.8106 -0.262392 46.861 0.787175C47.8885 1.81388 47.8885 3.49734 46.861 4.52405C45.8314 5.57361 45.0222 6.77491 44.4773 8.06556C43.951 9.377 43.6453 10.7986 43.6453 12.2617C43.6453 15.2795 44.8704 18.0105 46.861 20.0015C48.8308 21.9676 51.5639 23.1939 54.605 23.1939C56.0714 23.1939 57.4921 22.9091 58.7838 22.3625C60.0963 21.8388 61.3006 21.0282 62.3282 20.0015C63.3786 18.9727 65.0634 18.9727 66.091 20.0015C67.1206 21.0511 67.1206 22.7346 66.0681 23.7613C64.558 25.2702 62.7649 26.4507 60.7952 27.2592C58.8482 28.0905 56.7266 28.5062 54.605 28.5062C51.5639 28.5062 48.8287 29.7303 46.861 31.7193C44.8704 33.6875 43.6453 36.4205 43.6453 39.4362C43.6453 41.579 43.2293 43.6989 42.4201 45.6442C41.5881 47.6124 40.4066 49.4268 38.8986 50.9336C37.8482 51.9624 36.1634 51.9624 35.1358 50.9336C34.1062 49.8841 34.1062 48.2006 35.1358 47.1739C36.1634 46.1451 36.9725 44.9438 37.5196 43.6324C38.0437 42.321 38.3287 40.8993 38.3287 39.4362C38.3287 36.4205 37.1035 33.6875 35.1338 31.7193C33.1432 29.7303 30.4079 28.5062 27.3898 28.5062C25.9234 28.5062 24.5027 28.7909 23.211 29.3375C21.8985 29.8841 20.6941 30.6718 19.6458 31.6985C18.6162 32.748 16.9334 32.7252 15.9038 31.6985C14.8763 30.6718 14.8763 28.9883 15.9267 27.9595C17.4368 26.4299 19.2298 25.2494 21.1996 24.4409C23.1465 23.6345 25.2681 23.196 27.3898 23.196Z" fill="white"></path><path d="M27.3899 5.72949C31.0029 5.72949 33.9316 8.6558 33.9316 12.2659C33.9316 15.876 31.0029 18.8023 27.3899 18.8023C23.7768 18.8023 20.8481 15.876 20.8481 12.2659C20.8502 8.6558 23.7768 5.72949 27.3899 5.72949Z" fill="#04CE78"></path><path d="M54.6071 32.9038C58.2202 32.9038 61.1489 35.8301 61.1489 39.4402C61.1489 43.0503 58.2202 45.9766 54.6071 45.9766C50.9941 45.9766 48.0654 43.0503 48.0654 39.4402C48.0654 35.8301 50.9941 32.9038 54.6071 32.9038Z" fill="#04CE78"></path></svg>