<svg xmlns="http://www.w3.org/2000/svg" width="82" height="78" viewBox="0 0 82 78" fill="none"><path d="M6.45262 58.8055V63.0908H3.19407V58.8055H0V70.5868H3.19407V65.6906H6.45262V70.5868H9.64669V58.8055H6.45262ZM17.7172 70.8279C21.2169 70.8279 23.7539 68.0514 23.7539 64.6868C23.7539 61.2994 21.2169 58.5665 17.7172 58.5665C14.1966 58.5665 11.6576 61.2994 11.6576 64.6868C11.6576 68.0514 14.1966 70.8279 17.7172 70.8279ZM17.7172 67.9205C16.5152 67.9205 15.2675 67.2201 15.2675 64.6847C15.2675 62.1265 16.5152 61.4719 17.7172 61.4719C18.8754 61.4719 20.146 62.1265 20.146 64.6847C20.1439 67.2201 18.8754 67.9205 17.7172 67.9205ZM32.3504 61.9748L32.7226 59.2419C31.9574 58.9365 30.6452 58.5645 29.2894 58.5645C27.4948 58.5645 25.091 59.2419 25.091 62.0392C25.091 64.1818 26.5341 64.9466 29.1147 66.0605C29.9237 66.3889 30.5371 66.6507 30.5371 67.2638C30.5371 67.8311 29.9466 67.9849 29.3123 67.9849C28.4597 67.9849 27.2994 67.7231 25.5713 67.0892L25.0681 69.9301C26.9708 70.7614 28.4805 70.8258 29.1792 70.8258C32.2631 70.8258 33.7499 69.5145 33.7499 67.2202C33.7499 65.144 32.548 64.159 30.0089 63.2196C28.8486 62.7832 28.0189 62.5629 28.0189 62.0392C28.0189 61.5363 28.7404 61.2744 29.5286 61.2744C30.4914 61.2744 31.5186 61.6464 32.3504 61.9748ZM39.8074 58.8055H35.3885V70.5868H38.5597V66.9583C42.0595 66.9583 44.6838 66.2808 44.6838 62.6086C44.6859 59.8986 43.0015 58.8055 39.8074 58.8055ZM38.5618 64.5102V61.0562H39.5683C40.3127 61.0562 41.5375 61.0562 41.5375 62.7396C41.5355 64.5102 40.8139 64.5102 38.5618 64.5102ZM49.8908 58.8055H46.6967V70.5868H49.8908V58.8055ZM60.6958 58.8055H51.2695V61.4074H54.397V70.5868H57.5911V61.4074H60.6978V58.8055H60.6958ZM68.8535 70.5868H72.7026L68.656 58.8055H64.8277L60.9349 70.5868H64.784L65.3954 67.9641H68.2172L68.8535 70.5868ZM65.9901 65.3622L66.6888 62.2366H66.8635L67.6079 65.3622H65.9901ZM77.1881 58.8055H74.0169V70.5868H82V67.9849H77.1881V58.8055Z" fill="white"></path><path d="M46.1293 76.1611C46.1293 76.0094 46.1085 75.8764 46.042 75.7683C45.9983 75.6581 45.9109 75.5709 45.8236 75.5064C45.7134 75.4399 45.6053 75.3755 45.4951 75.3319C45.3848 75.2882 45.2538 75.2446 45.0792 75.1781C44.9253 75.1344 44.7943 75.0908 44.7069 75.0471C44.5988 75.0035 44.5094 74.9599 44.4449 74.9162C44.3576 74.8497 44.291 74.7853 44.2474 74.698C44.2037 74.6315 44.16 74.5234 44.16 74.4133C44.16 74.3052 44.2037 74.2159 44.2474 74.1514C44.291 74.0642 44.3576 73.9977 44.4449 73.954C44.5115 73.9104 44.5988 73.8667 44.7069 73.846C44.7943 73.8252 44.8816 73.8023 44.9689 73.8023C45.0792 73.8023 45.1665 73.8252 45.2538 73.846C45.3412 73.846 45.4285 73.8896 45.4951 73.9332C45.5616 73.954 45.6261 74.0205 45.6697 74.087C45.7134 74.1535 45.7363 74.2408 45.7363 74.3489H46.0648C46.044 74.1951 46.0004 74.0641 45.9338 73.9561C45.8673 73.848 45.7591 73.7587 45.6718 73.6942C45.5637 73.6298 45.4306 73.5862 45.3225 73.5633C45.1915 73.5425 45.0604 73.5197 44.9502 73.5197C44.7964 73.5197 44.6653 73.5425 44.5343 73.5841C44.4033 73.6277 44.2931 73.6922 44.185 73.7587C44.0768 73.8459 43.9874 73.9561 43.923 74.0641C43.8564 74.1743 43.8356 74.3052 43.8356 74.459C43.8356 74.6128 43.8793 74.7645 43.9459 74.8746C44.0103 74.9848 44.1205 75.0929 44.2307 75.1594C44.3389 75.2466 44.4719 75.3132 44.5801 75.3568C44.7111 75.4004 44.865 75.4669 45.0605 75.5106C45.1478 75.5542 45.2143 75.5771 45.258 75.5771C45.4327 75.6436 45.5637 75.708 45.651 75.7953C45.7612 75.9034 45.8049 76.0364 45.8049 76.1881C45.8049 76.2962 45.782 76.3855 45.7175 76.4728C45.6739 76.5601 45.6073 76.6266 45.5429 76.691C45.4555 76.7346 45.3682 76.7783 45.258 76.8011C45.1707 76.8448 45.0604 76.8448 44.9523 76.8448C44.8442 76.8448 44.734 76.8448 44.6238 76.8219C44.5156 76.7991 44.4262 76.7575 44.3618 76.7139C44.2744 76.6473 44.2079 76.5829 44.1642 76.4957C44.1205 76.4084 44.0977 76.2982 44.0977 76.1673H43.7483C43.7483 76.2982 43.792 76.4291 43.8356 76.5621C43.9022 76.6702 43.9667 76.7804 44.0769 76.8676C44.1642 76.9549 44.2744 77.0214 44.4054 77.0651C44.5156 77.1316 44.6466 77.1523 44.7984 77.1523C44.9731 77.1523 45.1478 77.1316 45.3017 77.0879C45.4555 77.0651 45.6074 77.0007 45.7384 76.9342C45.8486 76.8469 45.9567 76.7596 46.0233 76.6287C46.1085 76.4894 46.1293 76.3356 46.1293 76.1611ZM47.0921 73.6049H46.8072V77.0588H47.0921V73.6049ZM49.6291 75.8556C49.6291 75.9865 49.6062 76.0966 49.5854 76.2047C49.5417 76.3356 49.4981 76.4458 49.4315 76.533C49.365 76.6432 49.2776 76.7305 49.1903 76.7741C49.0801 76.8406 48.9491 76.8843 48.8181 76.8843C48.687 76.8843 48.5561 76.8406 48.4458 76.7741C48.3585 76.7305 48.2712 76.6432 48.2046 76.533C48.1402 76.4458 48.0736 76.3356 48.0507 76.2047C48.0071 76.0946 48.0071 75.9865 48.0071 75.8556C48.0071 75.7454 48.0071 75.6145 48.0507 75.5064C48.0715 75.3755 48.1381 75.2653 48.2046 75.1781C48.2712 75.07 48.3585 75.0035 48.4458 74.937C48.5561 74.8726 48.687 74.8497 48.8181 74.8497C48.9491 74.8497 49.0801 74.8726 49.1903 74.937C49.2776 75.0035 49.365 75.0679 49.4315 75.1781C49.4981 75.2653 49.5417 75.3755 49.5854 75.5064C49.6062 75.6145 49.6291 75.7454 49.6291 75.8556ZM48.8201 74.5879C48.6226 74.5879 48.4708 74.6086 48.3169 74.6751C48.1859 74.7624 48.0549 74.8497 47.9676 74.9806C47.8802 75.0887 47.8137 75.2217 47.77 75.3734C47.7263 75.5272 47.6827 75.7018 47.6827 75.8535C47.6827 76.028 47.7263 76.1818 47.77 76.3335C47.8137 76.4873 47.8802 76.6183 47.9676 76.7492C48.0549 76.8573 48.1859 76.9674 48.3169 77.0339C48.4708 77.0983 48.6226 77.142 48.8201 77.142C48.9948 77.142 49.1695 77.0983 49.3005 77.0339C49.4544 76.9674 49.5625 76.8593 49.6727 76.7492C49.7601 76.6183 49.8266 76.4873 49.8703 76.3335C49.914 76.1798 49.9368 76.028 49.9368 75.8535C49.9368 75.6997 49.914 75.5251 49.8703 75.3734C49.8266 75.2217 49.7601 75.0887 49.6727 74.9806C49.5625 74.8497 49.4544 74.7624 49.3005 74.6751C49.1695 74.6086 48.9948 74.5879 48.8201 74.5879ZM52.2097 75.8119C52.2097 75.9221 52.1889 76.053 52.166 76.1611C52.1431 76.2712 52.0787 76.3793 52.035 76.4894C51.9685 76.5767 51.8811 76.6432 51.7938 76.7076C51.6836 76.7721 51.5754 76.7949 51.4444 76.7949C51.3134 76.7949 51.2032 76.7513 51.1159 76.7076C51.0057 76.6411 50.9412 76.5767 50.8747 76.4666C50.8081 76.3793 50.7644 76.2691 50.7208 76.1611C50.7 76.0509 50.6771 75.92 50.6771 75.8119C50.6771 75.7039 50.6979 75.5937 50.7208 75.4628C50.7644 75.3526 50.8081 75.2446 50.8747 75.1573C50.9183 75.07 51.0057 74.9827 51.093 74.9391C51.2032 74.8747 51.3114 74.8518 51.4216 74.8518C51.5526 74.8518 51.6628 74.8746 51.7709 74.9183C51.8583 74.9848 51.9456 75.0492 52.0121 75.1594C52.0787 75.2466 52.1223 75.3568 52.166 75.4649C52.1889 75.5708 52.2097 75.681 52.2097 75.8119ZM52.2097 75.0035L52.1889 75.0264C52.1016 74.8726 51.9913 74.7645 51.8603 74.698C51.7293 74.6107 51.5754 74.5899 51.4008 74.5899C51.2261 74.5899 51.0722 74.6107 50.9412 74.6772C50.8102 74.7437 50.7 74.8518 50.6126 74.9619C50.5253 75.0721 50.4816 75.203 50.438 75.3547C50.3943 75.5085 50.3714 75.6602 50.3714 75.8348C50.3714 76.0093 50.3943 76.1631 50.438 76.3149C50.4816 76.4686 50.5482 76.5995 50.6126 76.7097C50.7 76.8178 50.8102 76.9071 50.9412 76.9715C51.0722 77.0152 51.2261 77.0588 51.4216 77.0588C51.5754 77.0588 51.7272 77.0152 51.8811 76.9279C52.0121 76.8614 52.1224 76.7534 52.1868 76.5996H52.2076V77.0588C52.2076 77.2563 52.1203 77.408 51.9893 77.541C51.8354 77.6719 51.6607 77.7156 51.4652 77.7156C51.2905 77.7156 51.1367 77.6927 51.0057 77.6283C50.8747 77.5846 50.8081 77.4745 50.7873 77.3436H50.4816C50.4816 77.4537 50.5045 77.5618 50.569 77.649C50.6127 77.7363 50.7 77.8028 50.7873 77.8465C50.8747 77.8901 50.9849 77.9338 51.093 77.9566C51.2032 77.9774 51.3113 78.0003 51.4424 78.0003C51.5526 78.0003 51.6607 77.9774 51.7272 77.9774C51.8146 77.9566 51.8811 77.9338 51.9893 77.8901C52.0995 77.8236 52.1868 77.7592 52.2741 77.6719C52.3407 77.5846 52.3844 77.4974 52.428 77.4101C52.4488 77.2999 52.4717 77.1918 52.4717 77.0817C52.4925 76.9508 52.4925 76.8198 52.4925 76.6453V75.203C52.4925 75.0929 52.4925 74.9412 52.5133 74.7437V74.6565H52.2076V75.0035H52.2097ZM53.3264 76.4021C53.3264 76.2712 53.3471 76.1611 53.4137 76.0966C53.501 76.0093 53.5884 75.9657 53.6986 75.9221C53.8088 75.8992 53.9169 75.8784 54.0272 75.8576C54.1374 75.8576 54.2684 75.8576 54.4202 75.8576C54.5075 75.8576 54.5512 75.8576 54.5741 75.8576C54.5741 75.8576 54.5741 75.8784 54.5741 75.9221C54.5948 75.9429 54.5948 75.9657 54.5948 75.9886C54.5948 76.0987 54.5741 76.2296 54.5512 76.3169C54.5304 76.425 54.4846 76.5351 54.441 76.6016C54.3744 76.6889 54.31 76.7554 54.1997 76.7991C54.1124 76.8427 54.0022 76.8864 53.8504 76.8864C53.6965 76.8864 53.5655 76.8427 53.4782 76.7554C53.37 76.664 53.3264 76.5559 53.3264 76.4021ZM54.572 75.5937C54.5283 75.5937 54.441 75.5937 54.2871 75.5937C54.1124 75.5937 53.9585 75.5937 53.8275 75.5937C53.7173 75.6166 53.5863 75.6373 53.499 75.681C53.3451 75.7475 53.2141 75.8348 53.1267 75.9657C53.0394 76.0966 52.9957 76.2276 52.9957 76.3813C52.9957 76.6224 53.0831 76.797 53.2369 76.9279C53.3908 77.0817 53.5863 77.1461 53.8067 77.1461C53.9606 77.1461 54.1124 77.1025 54.2663 77.0152C54.4202 76.9487 54.5075 76.8406 54.572 76.7534V76.7097H54.5928V77.0588H54.8984C54.8984 77.0152 54.8984 76.9944 54.8984 76.9715C54.8756 76.797 54.8756 76.6432 54.8756 76.5123V75.3755C54.8756 75.1136 54.7882 74.8954 54.6343 74.7853C54.5033 74.6544 54.285 74.5879 54.0209 74.5879C53.7589 74.5879 53.5614 74.6315 53.4096 74.7416C53.2349 74.8497 53.1475 75.0264 53.1039 75.2654H53.4096C53.4303 75.1116 53.4969 75.0035 53.6071 74.937C53.6944 74.8726 53.8483 74.8497 54.0001 74.8497C54.1977 74.8497 54.3287 74.8934 54.416 74.9599C54.5034 75.0471 54.5699 75.1781 54.5699 75.3526V75.5937H54.572ZM55.907 75.681C55.907 75.4399 55.9735 75.2446 56.0817 75.0908C56.2127 74.9162 56.3874 74.8497 56.6078 74.8497C56.8053 74.8497 56.9571 74.8933 57.0673 75.0243C57.1755 75.1344 57.242 75.309 57.242 75.5043V77.0568H57.5269V75.548C57.5269 75.4607 57.5269 75.3506 57.5061 75.2633C57.4853 75.1531 57.4396 75.0451 57.3959 74.9349C57.3293 74.8269 57.242 74.7375 57.1339 74.6731C57.0029 74.6066 56.8719 74.5858 56.6743 74.5858C56.5204 74.5858 56.3686 74.6066 56.2376 74.6938C56.1066 74.7603 55.9964 74.8684 55.932 75.0222L55.9111 74.9993V74.6502H55.6055V74.7375C55.6283 74.9349 55.6283 75.0866 55.6283 75.1968V77.0547H55.9132V75.681H55.907ZM61.1119 75.2861V75.5916H61.9645V76.7076C61.8106 76.7513 61.6796 76.7949 61.5486 76.8157C61.4384 76.8385 61.3074 76.8386 61.1993 76.8386C60.9809 76.8386 60.7834 76.8157 60.6087 76.7284C60.434 76.6619 60.303 76.5538 60.1928 76.4229C60.1055 76.292 60.0181 76.1382 59.9744 75.9428C59.9308 75.7683 59.8871 75.5501 59.8871 75.3319C59.8871 75.1344 59.91 74.9599 59.9516 74.7853C59.9952 74.5879 60.0618 74.4362 60.1699 74.2824C60.2572 74.1514 60.3675 74.0205 60.5193 73.9332C60.6732 73.8459 60.8478 73.8023 61.0433 73.8023C61.2616 73.8023 61.4592 73.8688 61.6131 73.9769C61.7878 74.0849 61.8751 74.2387 61.898 74.4569H62.2702C62.2494 74.3031 62.2057 74.1722 62.1392 74.0621C62.0519 73.9311 61.9645 73.8439 61.8543 73.7566C61.7441 73.6901 61.6131 73.6257 61.4613 73.582C61.3303 73.5384 61.1764 73.5176 61.0454 73.5176C60.8042 73.5176 60.5858 73.582 60.3883 73.6714C60.2136 73.7815 60.0597 73.9124 59.9287 74.087C59.7977 74.2616 59.7104 74.459 59.6438 74.6565C59.5773 74.8747 59.5565 75.1157 59.5565 75.3339C59.5565 75.5958 59.5773 75.8369 59.6438 76.0551C59.7083 76.2961 59.8185 76.4707 59.9495 76.6453C60.0597 76.7991 60.2344 76.93 60.4091 77.0173C60.6066 77.1046 60.8021 77.1482 61.0433 77.1482C61.2616 77.1482 61.48 77.1274 61.6775 77.0838C61.8751 77.0609 62.0706 76.9965 62.2889 76.93V75.2903H61.1119V75.2861ZM64.8737 75.8556C64.8737 75.9865 64.8529 76.0966 64.83 76.2047C64.7864 76.3356 64.7427 76.4458 64.6761 76.533C64.6117 76.6432 64.5223 76.7305 64.4141 76.7741C64.3268 76.8406 64.1958 76.8843 64.0648 76.8843C63.9338 76.8843 63.8028 76.8406 63.6926 76.7741C63.6052 76.7305 63.5179 76.6432 63.4513 76.533C63.3848 76.4458 63.3203 76.3356 63.2974 76.2047C63.2538 76.0946 63.2538 75.9865 63.2538 75.8556C63.2538 75.7454 63.2538 75.6145 63.2974 75.5064C63.3182 75.3755 63.3848 75.2653 63.4513 75.1781C63.5179 75.07 63.6052 75.0035 63.6926 74.937C63.8028 74.8726 63.9338 74.8497 64.0648 74.8497C64.1958 74.8497 64.3268 74.8726 64.4141 74.937C64.5243 75.0035 64.6117 75.0679 64.6761 75.1781C64.7427 75.2653 64.7864 75.3755 64.83 75.5064C64.8529 75.6145 64.8737 75.7454 64.8737 75.8556ZM64.0648 74.5879C63.8672 74.5879 63.7154 74.6086 63.5615 74.6751C63.4305 74.7624 63.2995 74.8497 63.2122 74.9806C63.1248 75.0887 63.0583 75.2217 63.0146 75.3734C62.9481 75.5272 62.9273 75.7018 62.9273 75.8535C62.9273 76.028 62.9481 76.1818 63.0146 76.3335C63.0583 76.4873 63.1248 76.6183 63.2122 76.7492C63.2995 76.8573 63.4305 76.9674 63.5615 77.0339C63.7154 77.0983 63.8672 77.142 64.0648 77.142C64.2395 77.142 64.4141 77.0983 64.5451 77.0339C64.699 76.9674 64.8072 76.8593 64.9174 76.7492C65.0047 76.6183 65.0712 76.4873 65.1149 76.3335C65.1586 76.1798 65.1815 76.028 65.1815 75.8535C65.1815 75.6997 65.1607 75.5251 65.1149 75.3734C65.0712 75.2196 65.0047 75.0887 64.9174 74.9806C64.8072 74.8497 64.699 74.7624 64.5451 74.6751C64.4141 74.6086 64.2395 74.5879 64.0648 74.5879ZM67.8266 75.92C67.8266 75.7226 67.8057 75.548 67.7621 75.3963C67.7184 75.2217 67.6519 75.0908 67.5645 74.9599C67.4772 74.8497 67.367 74.7417 67.236 74.6751C67.0821 74.6086 66.9074 74.5879 66.712 74.5879C66.5373 74.5879 66.3834 74.6086 66.2524 74.6751C66.1214 74.7417 66.0112 74.8497 65.9238 74.9599C65.8136 75.0908 65.7492 75.2217 65.7055 75.3755C65.6618 75.5293 65.6389 75.7038 65.6389 75.8556C65.6389 76.0301 65.6618 76.1839 65.7055 76.3356C65.7492 76.4894 65.8157 76.6203 65.903 76.7513C65.9904 76.8593 66.1006 76.9695 66.2316 77.036C66.3626 77.1004 66.5373 77.1441 66.6912 77.1441C67.2817 77.1441 67.654 76.8593 67.785 76.292H67.5001C67.4564 76.4666 67.3691 76.5975 67.2381 76.7076C67.1071 76.8157 66.9532 76.8822 66.8014 76.8822C66.5165 76.8822 66.2981 76.7949 66.1671 76.5975C66.0361 76.4229 65.9696 76.2047 65.9488 75.92H67.8266ZM65.9675 75.6581C65.9904 75.4399 66.0548 75.2425 66.1858 75.0679C66.3168 74.9141 66.4915 74.8497 66.7327 74.8497C66.974 74.8497 67.1486 74.9162 67.2796 75.0679C67.4107 75.2217 67.498 75.4171 67.498 75.6581H65.9675ZM68.3735 75.2425C68.3735 75.3526 68.3963 75.4399 68.44 75.5272C68.4837 75.5916 68.5502 75.6581 68.6147 75.7018C68.6812 75.7454 68.7457 75.7891 68.833 75.8098C68.9203 75.8535 69.0077 75.8743 69.1387 75.8971C69.1616 75.8971 69.1824 75.92 69.226 75.92C69.3362 75.9408 69.4236 75.9636 69.5109 75.9865C69.5775 76.0093 69.6419 76.0301 69.7085 76.0738C69.775 76.0966 69.8187 76.1403 69.8624 76.2047C69.8832 76.2483 69.906 76.3148 69.906 76.4021C69.906 76.5559 69.8395 76.664 69.7314 76.7513C69.6004 76.8386 69.4465 76.8822 69.2718 76.8822C69.0971 76.8822 68.9432 76.8385 68.8122 76.772C68.6812 76.6848 68.6147 76.5746 68.6147 76.4H68.2861C68.3069 76.531 68.3298 76.6411 68.3735 76.7284C68.44 76.8386 68.5044 76.903 68.5918 76.9695C68.6791 77.036 68.7665 77.0796 68.8767 77.1004C68.9869 77.1233 69.095 77.1441 69.2052 77.1441C69.3363 77.1441 69.4673 77.1233 69.5775 77.0796C69.7085 77.0568 69.8187 77.0131 69.906 76.9487C70.0162 76.8822 70.0807 76.7949 70.1473 76.6868C70.1909 76.5995 70.2138 76.4894 70.2138 76.3585C70.2138 76.2276 70.1909 76.0966 70.1036 76.0093C70.0391 75.8992 69.9497 75.8348 69.8187 75.7911C69.6877 75.7475 69.513 75.681 69.2946 75.6374C69.0763 75.5709 68.9224 75.5272 68.8351 75.4836C68.7478 75.4191 68.7041 75.3526 68.7041 75.2425C68.7041 75.1116 68.7478 75.0014 68.858 74.937C68.9682 74.8726 69.0763 74.8497 69.2302 74.8497C69.4049 74.8497 69.5359 74.8726 69.6461 74.937C69.7563 75.0035 69.8208 75.1116 69.8436 75.2425H70.1493C70.1285 75.0014 70.0391 74.8497 69.8873 74.7396C69.7334 74.6294 69.5151 74.5858 69.2759 74.5858C69.1657 74.5858 69.0576 74.5858 68.9474 74.6066C68.8372 74.6273 68.7498 74.6731 68.6625 74.7375C68.5752 74.7811 68.5086 74.8456 68.4649 74.9349C68.3963 75.0243 68.3735 75.1344 68.3735 75.2425ZM72.6156 77.0568V75.3963H74.4975V77.0568H74.8261V73.6049H74.4975V75.1136H72.6156V73.6049H72.287V77.0588H72.6156V77.0568ZM77.7124 75.92C77.7124 75.7226 77.6916 75.548 77.6458 75.3963C77.6022 75.2217 77.5585 75.0908 77.4712 74.9599C77.3838 74.8497 77.2528 74.7417 77.1218 74.6751C76.9679 74.6086 76.8161 74.5879 76.6186 74.5879C76.4439 74.5879 76.29 74.6086 76.1382 74.6751C76.0072 74.7417 75.897 74.8497 75.8097 74.9599C75.7223 75.0908 75.6558 75.2217 75.6121 75.3755C75.5476 75.5293 75.5248 75.7038 75.5248 75.8556C75.5248 76.0301 75.5456 76.1839 75.5913 76.3356C75.635 76.4894 75.7015 76.6203 75.7889 76.7513C75.8762 76.8593 75.9864 76.9695 76.1382 77.036C76.2692 77.1004 76.4231 77.1441 76.5978 77.1441C77.1655 77.1441 77.5377 76.8593 77.6916 76.292H77.3859C77.3422 76.4666 77.2549 76.5975 77.1447 76.7076C77.0137 76.8157 76.8598 76.8822 76.6851 76.8822C76.4002 76.8822 76.2048 76.7949 76.0509 76.5975C75.9199 76.4229 75.8533 76.2047 75.8533 75.92H77.7124ZM75.8533 75.6581C75.8762 75.4399 75.9635 75.2425 76.0946 75.0679C76.2256 74.9141 76.4002 74.8497 76.6186 74.8497C76.8598 74.8497 77.0345 74.9162 77.1655 75.0679C77.3194 75.2217 77.3838 75.4171 77.4067 75.6581H75.8533ZM78.6315 75.6145C78.6544 75.3734 78.7189 75.1781 78.8291 75.0451C78.9393 74.9141 79.0911 74.8476 79.3094 74.8476C79.3323 74.8476 79.376 74.8476 79.4196 74.8476C79.4404 74.8476 79.4633 74.8705 79.4862 74.8705V74.5858C79.4654 74.5858 79.4425 74.5858 79.3988 74.5858C79.3323 74.5858 79.2678 74.5858 79.2013 74.5858C79.0703 74.5858 78.9601 74.6294 78.8727 74.6938C78.7625 74.7811 78.698 74.8913 78.6544 74.9993H78.6315V74.6502H78.3258C78.3258 74.6939 78.3258 74.7167 78.3258 74.7375C78.3466 74.9349 78.3466 75.0659 78.3466 75.1968V77.0547H78.6315V75.6145ZM82.0003 75.92C82.0003 75.7226 81.9774 75.548 81.9337 75.3963C81.89 75.2217 81.8235 75.0908 81.7362 74.9599C81.6488 74.8497 81.5386 74.7417 81.3868 74.6751C81.2558 74.6086 81.0811 74.5879 80.8836 74.5879C80.7089 74.5879 80.555 74.6086 80.424 74.6751C80.293 74.7417 80.1828 74.8497 80.0747 74.9599C79.9873 75.0908 79.9208 75.2217 79.8771 75.3755C79.8334 75.5293 79.8106 75.7038 79.8106 75.8556C79.8106 76.0301 79.8314 76.1839 79.8771 76.3356C79.9208 76.4894 79.9873 76.6203 80.0747 76.7513C80.162 76.8593 80.2722 76.9695 80.4032 77.036C80.5342 77.1004 80.6881 77.1441 80.8628 77.1441C81.4533 77.1441 81.8256 76.8593 81.9566 76.292H81.6509C81.628 76.4666 81.5407 76.5975 81.4097 76.7076C81.2787 76.8157 81.1248 76.8822 80.973 76.8822C80.6881 76.8822 80.4698 76.7949 80.3388 76.5975C80.2078 76.4229 80.1412 76.2047 80.1204 75.92H82.0003ZM80.1412 75.6581C80.162 75.4399 80.2285 75.2425 80.3596 75.0679C80.4906 74.9141 80.6652 74.8497 80.8836 74.8497C81.1248 74.8497 81.3203 74.9162 81.4513 75.0679C81.5823 75.2217 81.6696 75.4171 81.6696 75.6581H80.1412Z" fill="#04CE78"></path><path d="M62.7628 1.73395C71.4946 6.83801 72.2515 21.7761 64.4555 35.0994C56.6596 48.4228 43.2594 55.0876 34.5277 49.9835C25.796 44.8795 25.039 29.9414 32.835 16.618C40.633 3.29468 54.0311 -3.37011 62.7628 1.73395Z" fill="#04CE78"></path><path d="M19.2267 1.70927C10.4992 6.82372 9.75676 21.7535 17.5423 35.0872C25.3508 48.421 38.7592 55.0878 47.4847 49.9942C56.2123 44.9005 56.9547 29.9499 49.1691 16.6162C41.3607 3.28454 27.9543 -3.38232 19.2267 1.70927Z" fill="white"></path></svg>