<svg xmlns="http://www.w3.org/2000/svg" width="80" height="78" viewBox="0 0 80 78" fill="none"><path d="M6.297 58.8091V63.0949H3.09472V58.8091H0V70.5918H3.09472V65.695H6.297V70.5918H9.39172V58.8091H6.297ZM17.2878 70.8309C20.7031 70.8309 23.1789 68.054 23.1789 64.687C23.1789 61.2991 20.7031 58.5659 17.2878 58.5659C13.8522 58.5659 11.3743 61.2991 11.3743 64.687C11.3764 68.0561 13.8522 70.8309 17.2878 70.8309ZM17.2878 67.9252C16.1128 67.9252 14.8973 67.2247 14.8973 64.689C14.8973 62.1305 16.1128 61.4757 17.2878 61.4757C18.4181 61.4757 19.6581 62.1325 19.6581 64.689C19.6581 67.2247 18.4202 67.9252 17.2878 67.9252ZM31.5458 61.9787L31.9294 59.2456C31.1826 58.94 29.8798 58.568 28.579 58.568C26.8297 58.568 24.4818 59.2456 24.4818 62.0432C24.4818 64.186 25.8698 64.9509 28.4085 66.065C29.1979 66.3934 29.7966 66.6552 29.7966 67.2684C29.7966 67.8358 29.2202 67.9896 28.6013 67.9896C27.7693 67.9896 26.6166 67.7277 24.9505 67.0938L24.4594 69.935C26.3163 70.7664 27.7895 70.8309 28.4714 70.8309C31.4809 70.8309 32.9319 69.5193 32.9319 67.2247C32.9319 65.1484 31.7366 64.1632 29.2811 63.2237C28.1508 62.7872 27.339 62.569 27.339 62.0432C27.339 61.5402 28.0432 61.2783 28.8123 61.2783C29.7539 61.2783 30.7564 61.6503 31.5458 61.9787ZM38.8473 58.8091H34.5147V70.5918H37.6318V66.9629C41.0471 66.9629 43.5878 66.2853 43.5878 62.6127C43.5858 59.9003 41.9623 58.8091 38.8473 58.8091ZM37.6297 64.5144V61.0601H38.6119C39.3384 61.0601 40.5337 61.0601 40.5337 62.7436C40.5337 64.5144 39.8275 64.5144 37.6297 64.5144ZM48.6875 58.8091H45.5705V70.5918H48.6875V58.8091ZM59.2299 58.8091H50.0309V61.4113H53.083V70.5939H56.1778V61.4113H59.2299V58.8091ZM67.1929 70.5918H70.9492L67.0002 58.8091H63.2642L59.4653 70.5918H63.2215L63.8182 67.9688H66.572L67.1929 70.5918ZM64.3965 65.3666L65.0784 62.2406H65.2488L65.9753 65.3666H64.3965ZM75.3244 58.8091H72.2297V70.5918H79.998V67.9896H75.3244V58.8091Z" fill="white"></path><path d="M45.0145 76.1662C45.0145 76.0124 44.9922 75.8815 44.9293 75.7734C44.8643 75.6633 44.8014 75.576 44.6939 75.5115C44.6086 75.445 44.5011 75.3806 44.3956 75.3369C44.29 75.2933 44.1602 75.2497 43.9897 75.1831C43.8395 75.1395 43.7117 75.0958 43.6264 75.0522C43.5209 75.0086 43.4336 74.9649 43.3707 74.9213C43.2855 74.8547 43.2206 74.7903 43.178 74.703C43.113 74.6365 43.0927 74.5284 43.0927 74.4183C43.0927 74.3102 43.113 74.2208 43.178 74.1564C43.2206 74.0691 43.2835 74.0026 43.3484 73.9589C43.4336 73.9153 43.5189 73.8716 43.6041 73.8488C43.7117 73.828 43.7969 73.8051 43.8821 73.8051C43.9897 73.8051 44.0749 73.828 44.1601 73.8488C44.2454 73.8488 44.3306 73.8924 44.3956 73.9361C44.4605 73.9589 44.5234 74.0234 44.566 74.0899C44.6086 74.1564 44.6309 74.2437 44.6309 74.3518H44.9516C44.9313 74.198 44.8887 74.067 44.8237 73.9589C44.7385 73.8488 44.6533 73.7615 44.5457 73.697C44.4382 73.6326 44.3326 73.5869 44.2251 73.5661C44.0972 73.5453 43.9694 73.5225 43.8415 73.5225C43.7137 73.5225 43.5859 73.5432 43.458 73.5869C43.3302 73.6305 43.2023 73.697 43.1171 73.7615C43.0095 73.8488 42.9243 73.9589 42.8614 74.067C42.7964 74.1772 42.7761 74.3081 42.7761 74.4619C42.7761 74.6136 42.8188 74.7674 42.8837 74.8776C42.9466 74.9878 43.0339 75.0958 43.1617 75.1623C43.2693 75.2496 43.3971 75.3162 43.5026 75.3598C43.6305 75.4035 43.7807 75.47 43.9714 75.5136C44.0566 75.5573 44.1216 75.5801 44.1642 75.5801C44.3144 75.6466 44.4422 75.7111 44.5478 75.7984C44.633 75.9085 44.6979 76.0395 44.6979 76.1912C44.6979 76.2993 44.6776 76.3886 44.6127 76.4759C44.5701 76.5632 44.5051 76.6297 44.4199 76.6942C44.355 76.7378 44.2697 76.7815 44.1642 76.8043C44.0567 76.848 43.9714 76.848 43.8659 76.848C43.7584 76.848 43.6528 76.848 43.5453 76.8251C43.4377 76.8022 43.3525 76.7586 43.2672 76.717C43.2043 76.6505 43.1394 76.5861 43.0968 76.4988C43.0542 76.4115 43.0318 76.3013 43.0318 76.1704H42.6909C42.6909 76.3013 42.7335 76.4323 42.7761 76.5653C42.8411 76.6734 42.904 76.7835 42.9892 76.8708C43.0968 76.9581 43.2023 77.0247 43.3302 77.0683C43.4357 77.1327 43.5655 77.1556 43.6934 77.1556C43.8862 77.1556 44.0566 77.1348 44.2048 77.0912C44.355 77.0683 44.5031 77.0039 44.6309 76.9374C44.7385 76.8501 44.844 76.7628 44.909 76.6318C44.9719 76.4946 45.0145 76.3408 45.0145 76.1662ZM45.9541 73.6077H45.676V77.0621H45.9541V73.6077ZM48.4299 75.8607C48.4299 75.9917 48.4075 76.1018 48.3872 76.2099C48.3446 76.3408 48.302 76.451 48.2371 76.5383C48.1721 76.6484 48.0869 76.7357 47.9814 76.7794C47.8961 76.8459 47.7683 76.8895 47.6404 76.8895C47.5126 76.8895 47.3847 76.8459 47.2772 76.7794C47.1696 76.7357 47.1067 76.6484 47.0418 76.5383C46.9789 76.451 46.9139 76.3408 46.8916 76.2099C46.849 76.1018 46.849 75.9917 46.849 75.8607C46.849 75.7526 46.849 75.6196 46.8916 75.5115C46.9139 75.3806 46.9768 75.2704 47.0418 75.1831C47.1067 75.0751 47.1696 75.0085 47.2772 74.942C47.3827 74.8755 47.5126 74.8547 47.6404 74.8547C47.7683 74.8547 47.8961 74.8776 47.9814 74.942C48.0889 75.0085 48.1741 75.073 48.2371 75.1831C48.302 75.2704 48.3446 75.3806 48.3872 75.5115C48.4095 75.6196 48.4299 75.7506 48.4299 75.8607ZM47.6404 74.5929C47.4477 74.5929 47.2995 74.6136 47.1493 74.6802C47.0215 74.7675 46.8937 74.8547 46.8084 74.9857C46.7232 75.0938 46.6582 75.2268 46.6156 75.3785C46.5507 75.5323 46.5304 75.7069 46.5304 75.8586C46.5304 76.0332 46.5507 76.187 46.6156 76.3388C46.6582 76.4926 46.7232 76.6235 46.8084 76.7544C46.8937 76.8625 47.0215 76.9727 47.1493 77.0392C47.2995 77.1036 47.4477 77.1473 47.6404 77.1473C47.8109 77.1473 47.9814 77.1036 48.1092 77.0392C48.2594 76.9727 48.3649 76.8646 48.4725 76.7544C48.5577 76.6235 48.6226 76.4926 48.6652 76.3388C48.7079 76.185 48.7302 76.0332 48.7302 75.8586C48.7302 75.7048 48.7079 75.5302 48.6652 75.3785C48.6226 75.2247 48.5577 75.0938 48.4725 74.9857C48.3669 74.8547 48.2594 74.7675 48.1092 74.6802C47.9814 74.6136 47.8109 74.5929 47.6404 74.5929ZM50.9482 75.8171C50.9482 75.9272 50.9279 76.0582 50.9056 76.1662C50.863 76.2764 50.8204 76.3845 50.7778 76.4946C50.7128 76.5819 50.6276 76.6484 50.5424 76.7129C50.4348 76.7773 50.3293 76.8002 50.2014 76.8002C50.0736 76.8002 49.966 76.7565 49.8808 76.7129C49.7753 76.6464 49.688 76.5819 49.6454 76.4718C49.5805 76.3845 49.5379 76.2743 49.4952 76.1662C49.475 76.0561 49.4526 75.9251 49.4526 75.8171C49.4526 75.709 49.475 75.5988 49.4952 75.4679C49.5379 75.3577 49.5805 75.2496 49.6231 75.1623C49.686 75.0751 49.7732 74.9878 49.8585 74.9441C49.9437 74.8776 50.0716 74.8568 50.1791 74.8568C50.307 74.8568 50.4145 74.8797 50.52 74.9233C50.6053 74.9898 50.6905 75.0543 50.7554 75.1644C50.8204 75.2517 50.863 75.3619 50.8833 75.47C50.9279 75.576 50.9482 75.6861 50.9482 75.8171ZM50.9482 75.0065L50.9279 75.0273C50.8427 74.8735 50.7149 74.7654 50.6073 74.6989C50.4795 74.6116 50.3293 74.5908 50.1588 74.5908C49.9884 74.5908 49.8382 74.6116 49.7103 74.6781C49.5825 74.7446 49.4749 74.8527 49.3897 74.9628C49.3045 75.073 49.2395 75.2039 49.2192 75.3557C49.1766 75.5095 49.1563 75.6612 49.1563 75.8358C49.1563 76.0104 49.1766 76.1642 49.2192 76.3159C49.2619 76.4697 49.3045 76.6006 49.3897 76.7108C49.4749 76.8189 49.5825 76.9083 49.7103 76.9727C49.8382 77.0163 49.9884 77.06 50.1588 77.06C50.3293 77.06 50.4795 77.0163 50.6276 76.929C50.7554 76.8625 50.863 76.7545 50.9259 76.6006H50.9462V77.06C50.9462 77.2574 50.861 77.4092 50.7331 77.5401C50.583 77.671 50.4125 77.7147 50.2197 77.7147C50.0492 77.7147 49.8991 77.6918 49.7712 77.6274C49.6434 77.5838 49.5784 77.4736 49.5581 77.3427H49.2598C49.2598 77.4528 49.2822 77.5609 49.3451 77.6482C49.3877 77.7355 49.4729 77.802 49.5581 77.8456C49.6434 77.8893 49.7509 77.9329 49.8564 77.9558C49.964 77.9766 50.0695 77.9994 50.1771 77.9994C50.3049 77.9994 50.3902 77.9766 50.4754 77.9766C50.5403 77.9558 50.6256 77.9329 50.7311 77.8893C50.8387 77.8228 50.9239 77.7583 50.9868 77.671C51.072 77.5837 51.1146 77.4964 51.137 77.4092C51.1796 77.299 51.2019 77.1909 51.2019 77.0808C51.2222 76.9498 51.2222 76.8189 51.2222 76.6443V75.2018C51.2222 75.0917 51.2222 74.94 51.2445 74.7425V74.6552H50.9442V75.0065H50.9482ZM52.038 76.4074C52.038 76.2764 52.0583 76.1662 52.1232 76.1018C52.1881 76.0145 52.2734 75.9709 52.3789 75.9272C52.4865 75.9064 52.592 75.8836 52.7198 75.8607C52.8274 75.8607 52.9552 75.8607 53.1034 75.8607C53.1886 75.8607 53.2312 75.8607 53.2535 75.8607C53.2535 75.8607 53.2535 75.8815 53.2535 75.9272C53.2738 75.948 53.2738 75.9709 53.2738 75.9937C53.2738 76.1039 53.2535 76.2348 53.2312 76.3221C53.2089 76.4323 53.1663 76.5404 53.1237 76.6069C53.0587 76.6942 52.9958 76.7607 52.8883 76.8043C52.803 76.848 52.6955 76.8916 52.5473 76.8916C52.3992 76.8916 52.2693 76.848 52.1841 76.7607C52.0806 76.6692 52.038 76.5591 52.038 76.4074ZM53.2535 75.5968C53.2109 75.5968 53.1034 75.5968 52.9755 75.5968C52.8051 75.5968 52.6549 75.5968 52.527 75.5968C52.3992 75.6196 52.2937 75.6404 52.1861 75.684C52.0583 75.7506 51.9304 75.8378 51.8452 75.9688C51.76 76.0997 51.7173 76.2307 51.7173 76.3845C51.7173 76.6256 51.8026 76.8002 51.9528 76.9311C52.1029 77.0849 52.2734 77.1493 52.5068 77.1493C52.6569 77.1493 52.8051 77.1057 52.9552 77.0184C53.0831 76.9519 53.1906 76.8438 53.2332 76.7565L53.2535 76.7129H53.2738V77.0621H53.5722C53.5722 77.0184 53.5519 76.9955 53.5519 76.9748C53.5519 76.8002 53.5519 76.6464 53.5519 76.5154V75.3785C53.5519 75.1166 53.4666 74.8984 53.3165 74.7882C53.1886 74.6573 52.9755 74.5908 52.6975 74.5908C52.4621 74.5908 52.2714 74.6344 52.0989 74.7446C51.9487 74.8547 51.8635 75.0293 51.8208 75.2684H52.1191C52.1415 75.1145 52.2044 75.0065 52.3119 74.94C52.3972 74.8735 52.5453 74.8527 52.6955 74.8527C52.8659 74.8527 53.0161 74.8963 53.1013 74.9628C53.1866 75.0501 53.2515 75.1811 53.2515 75.3557V75.5968H53.2535ZM54.5564 75.6861C54.5564 75.445 54.6213 75.2497 54.7268 75.0958C54.8547 74.9213 55.0251 74.8547 55.2402 74.8547C55.433 74.8547 55.5812 74.8984 55.6887 75.0293C55.7963 75.1395 55.8592 75.3141 55.8592 75.5095V77.0621H56.1372V75.5531C56.1372 75.4658 56.1372 75.3556 56.1169 75.2684C56.0946 75.1582 56.052 75.0501 56.0094 74.94C55.9444 74.8319 55.8592 74.7425 55.7537 74.6781C55.6258 74.6116 55.4757 74.5908 55.3052 74.5908C55.155 74.5908 55.0069 74.6116 54.879 74.6989C54.7512 74.7654 54.6436 74.8735 54.5807 75.0273L54.5584 75.0065L54.5381 74.6573H54.2601V74.7446C54.2824 74.942 54.2824 75.0938 54.2824 75.2039V77.0621H54.5604V75.6861H54.5564ZM59.6155 75.2912V75.5968H60.4698V76.7129C60.3197 76.7565 60.1918 76.8002 60.064 76.821C59.9584 76.8438 59.8285 76.8438 59.723 76.8438C59.5099 76.8438 59.2969 76.821 59.1467 76.7337C58.9762 76.6671 58.8484 76.5591 58.7408 76.4281C58.6333 76.2972 58.5704 76.1434 58.5278 75.948C58.4649 75.7734 58.4425 75.5552 58.4425 75.3369C58.4425 75.1416 58.4648 74.9649 58.5075 74.7903C58.5501 74.5929 58.615 74.4411 58.7003 74.2873C58.8078 74.1564 58.9133 74.0254 59.0635 73.9382C59.2137 73.8509 59.3841 73.8072 59.5749 73.8072C59.788 73.8072 59.9807 73.8737 60.1289 73.9818C60.2993 74.0919 60.3846 74.2437 60.4069 74.4619H60.7478C60.7478 74.3081 60.7052 74.1772 60.6403 74.067C60.555 73.9361 60.4698 73.8488 60.3623 73.7615C60.2567 73.695 60.1269 73.6305 59.9787 73.5869C59.8509 73.5432 59.7007 73.5225 59.5728 73.5225C59.3374 73.5225 59.1244 73.5869 58.9316 73.6763C58.7611 73.7864 58.611 73.9174 58.4831 74.092C58.3553 74.2665 58.27 74.464 58.2051 74.6594C58.1402 74.8776 58.1199 75.1187 58.1199 75.3369C58.1199 75.5988 58.1402 75.8399 58.2051 76.0582C58.27 76.2993 58.3755 76.4739 58.5034 76.6484C58.6109 76.8023 58.7591 76.9332 58.9519 77.0205C59.1447 77.1078 59.3374 77.1514 59.5708 77.1514C59.7839 77.1514 59.997 77.1306 60.1898 77.087C60.3826 77.0641 60.5733 76.9997 60.7884 76.9332V75.2933H59.6155V75.2912ZM63.3068 75.8607C63.3068 75.9917 63.2865 76.1018 63.2642 76.2099C63.2216 76.3408 63.179 76.451 63.114 76.5383C63.0491 76.6484 62.9639 76.7357 62.8583 76.7794C62.7731 76.8459 62.6452 76.8895 62.5174 76.8895C62.3672 76.8895 62.2617 76.8459 62.1542 76.7794C62.0466 76.7357 61.9837 76.6484 61.8985 76.5383C61.8356 76.451 61.7909 76.3408 61.7706 76.2099C61.728 76.1018 61.728 75.9917 61.728 75.8607C61.728 75.7526 61.728 75.6196 61.7706 75.5115C61.7909 75.3806 61.8335 75.2704 61.8985 75.1831C61.9837 75.0751 62.0486 75.0085 62.1542 74.942C62.2617 74.8755 62.3672 74.8547 62.5174 74.8547C62.6452 74.8547 62.7731 74.8776 62.8583 74.942C62.9659 75.0085 63.0511 75.073 63.114 75.1831C63.1769 75.2704 63.2216 75.3806 63.2642 75.5115C63.2865 75.6196 63.3068 75.7506 63.3068 75.8607ZM62.5174 74.5929C62.3246 74.5929 62.1765 74.6136 62.0263 74.6802C61.8985 74.7675 61.7706 74.8547 61.6854 74.9857C61.6002 75.0938 61.5352 75.2268 61.4723 75.3785C61.4297 75.5323 61.4094 75.7069 61.4094 75.8586C61.4094 76.0332 61.4297 76.187 61.4723 76.3388C61.5372 76.4926 61.6002 76.6235 61.6854 76.7544C61.7706 76.8625 61.8985 76.9727 62.0263 77.0392C62.1745 77.1036 62.3246 77.1473 62.5174 77.1473C62.6879 77.1473 62.8583 77.1036 62.9882 77.0392C63.1384 76.9727 63.2439 76.8646 63.3291 76.7544C63.4367 76.6235 63.4996 76.4926 63.5422 76.3388C63.5848 76.185 63.6071 76.0332 63.6071 75.8586C63.6071 75.7048 63.5869 75.5302 63.5422 75.3785C63.4996 75.2247 63.4367 75.0938 63.3291 74.9857C63.2439 74.8547 63.1364 74.7675 62.9882 74.6802C62.8604 74.6136 62.6879 74.5929 62.5174 74.5929ZM66.1885 75.9251C66.1885 75.7277 66.1682 75.5531 66.1255 75.4014C66.0829 75.2268 66.018 75.0958 65.9328 74.9649C65.8475 74.8547 65.74 74.7467 65.5918 74.6802C65.464 74.6136 65.2935 74.5929 65.1007 74.5929C64.9303 74.5929 64.7801 74.6136 64.6523 74.6802C64.5244 74.7467 64.4169 74.8547 64.3113 74.9649C64.2261 75.0958 64.1612 75.2268 64.1185 75.3806C64.0759 75.5344 64.0536 75.709 64.0536 75.8607C64.0536 76.0353 64.0759 76.1891 64.1185 76.3408C64.1612 76.4946 64.2261 76.6256 64.3113 76.7565C64.3966 76.8646 64.5041 76.9748 64.632 77.0413C64.7598 77.1057 64.91 77.1493 65.0804 77.1493C65.6568 77.1493 66.02 76.8646 66.1479 76.2972H65.8496C65.8272 76.4718 65.742 76.6027 65.6142 76.7129C65.4863 76.821 65.3361 76.8875 65.186 76.8875C64.9079 76.8875 64.6949 76.8002 64.567 76.6027C64.4392 76.4281 64.3742 76.2099 64.3539 75.9251H66.1885ZM64.3742 75.6633C64.3966 75.445 64.4595 75.2476 64.5873 75.073C64.7152 74.9192 64.8856 74.8547 65.0987 74.8547C65.3341 74.8547 65.5249 74.9213 65.6548 75.073C65.7826 75.2268 65.8678 75.4222 65.8678 75.6633H64.3742ZM66.7222 75.2476C66.7222 75.3577 66.7425 75.445 66.7871 75.5323C66.8297 75.5968 66.8723 75.6633 66.9576 75.7069C67.0225 75.7505 67.0854 75.7942 67.1707 75.815C67.2559 75.8586 67.3411 75.8794 67.469 75.9023C67.4913 75.9023 67.5116 75.9231 67.5542 75.9231C67.6597 75.9439 67.747 75.9667 67.8099 75.9896C67.8951 76.0124 67.96 76.0332 68.023 76.0769C68.0859 76.0997 68.1305 76.1434 68.1731 76.2078C68.1954 76.2515 68.2158 76.318 68.2158 76.4053C68.2158 76.5591 68.1528 76.6672 68.023 76.7544C67.9154 76.8417 67.7673 76.8854 67.5968 76.8854C67.4263 76.8854 67.2762 76.8417 67.1483 76.7752C67.0205 76.6879 66.9555 76.5778 66.9555 76.4032H66.6349C66.6572 76.5341 66.6775 76.6443 66.7201 76.7316C66.7851 76.8417 66.848 76.9062 66.9332 76.9727C67.0184 77.0392 67.1037 77.0828 67.2112 77.1036C67.3188 77.1265 67.4243 77.1473 67.5319 77.1473C67.6597 77.1473 67.7876 77.1265 67.8951 77.0828C68.023 77.06 68.1305 77.0163 68.2158 76.9519C68.301 76.8854 68.3862 76.7981 68.4511 76.69C68.4938 76.6027 68.5161 76.4926 68.5161 76.3616C68.5161 76.2307 68.4938 76.0997 68.4085 76.0124C68.3436 75.9023 68.2381 75.8379 68.1305 75.7942C68.0027 75.7506 67.8322 75.6841 67.5968 75.6404C67.3837 75.5739 67.2336 75.5302 67.1483 75.4866C67.0631 75.4222 67.0205 75.3557 67.0205 75.2455C67.0205 75.1145 67.0854 75.0044 67.1909 74.94C67.2965 74.8735 67.404 74.8527 67.5542 74.8527C67.7247 74.8527 67.8525 74.8755 67.9601 74.94C68.0676 75.0065 68.1305 75.1145 68.1528 75.2455H68.4511C68.4308 75.0044 68.3436 74.8527 68.1954 74.7425C68.0453 74.6324 67.8322 74.5887 67.5968 74.5887C67.469 74.5887 67.3614 74.5887 67.2762 74.6095C67.1686 74.6323 67.0834 74.676 66.9982 74.7404C66.9129 74.7841 66.848 74.8506 66.8054 74.9379C66.7445 75.0293 66.7222 75.1395 66.7222 75.2476ZM70.8417 77.0621V75.4014H72.6985V77.0621H72.9968V73.6077H72.6985V75.1166H70.8417V73.6077H70.5434V77.0621H70.8417ZM75.8379 75.9251C75.8379 75.7277 75.8176 75.5531 75.773 75.4014C75.7303 75.2268 75.6654 75.0958 75.5802 74.9649C75.4949 74.8547 75.3874 74.7467 75.2595 74.6802C75.1094 74.6136 74.9389 74.5929 74.7684 74.5929C74.598 74.5929 74.4478 74.6136 74.2997 74.6802C74.1718 74.7467 74.0642 74.8547 73.979 74.9649C73.8938 75.0958 73.8289 75.2268 73.766 75.3806C73.7233 75.5344 73.701 75.709 73.701 75.8607C73.701 76.0353 73.7213 76.1891 73.766 76.3408C73.8086 76.4946 73.8715 76.6256 73.9587 76.7565C74.044 76.8646 74.1515 76.9748 74.2997 77.0413C74.4275 77.1057 74.5777 77.1493 74.7481 77.1493C75.3021 77.1493 75.6654 76.8646 75.8156 76.2972H75.5173C75.4746 76.4718 75.3894 76.6027 75.2616 76.7129C75.1337 76.821 75.0059 76.8875 74.8354 76.8875C74.5574 76.8875 74.3666 76.8002 74.2165 76.6027C74.0886 76.4281 74.0237 76.2099 74.0237 75.9251H75.8379ZM74.0217 75.6633C74.0419 75.445 74.1292 75.2476 74.257 75.073C74.3849 74.9192 74.5553 74.8547 74.7684 74.8547C75.0038 74.8547 75.1743 74.9213 75.3021 75.073C75.43 75.2268 75.5152 75.4222 75.5375 75.6633H74.0217ZM76.7328 75.6196C76.7551 75.3785 76.7978 75.1831 76.9256 75.0522C77.0311 74.9213 77.1813 74.8547 77.3944 74.8547C77.4147 74.8547 77.437 74.8547 77.4999 74.8547C77.5222 74.8547 77.5425 74.8776 77.5648 74.8776V74.5929C77.5425 74.5929 77.5222 74.5929 77.4796 74.5929C77.4167 74.5929 77.3518 74.5929 77.2868 74.5929C77.159 74.5929 77.0514 74.6365 76.9662 74.7009C76.8586 74.7882 76.7957 74.8984 76.7531 75.0065H76.7308V74.6573H76.4325C76.4325 74.7009 76.4325 74.7238 76.4325 74.7446C76.4528 74.942 76.4528 75.073 76.4528 75.2039V77.0621H76.7308V75.6196H76.7328ZM80 75.9251C80 75.7277 80 75.5531 79.9574 75.4014C79.9148 75.2268 79.8499 75.0958 79.7646 74.9649C79.6794 74.8547 79.5718 74.7467 79.4237 74.6802C79.2959 74.6136 79.1254 74.5929 78.9326 74.5929C78.7621 74.5929 78.612 74.6136 78.4841 74.6802C78.3563 74.7467 78.2284 74.8547 78.1432 74.9649C78.058 75.0958 77.993 75.2268 77.9504 75.3806C77.9078 75.5344 77.8875 75.709 77.8875 75.8607C77.8875 76.0353 77.9078 76.1891 77.9504 76.3408C77.993 76.4946 78.058 76.6256 78.1432 76.7565C78.2284 76.8646 78.336 76.9748 78.4638 77.0413C78.5917 77.1057 78.7419 77.1493 78.9123 77.1493C79.4886 77.1493 79.8519 76.8646 79.9797 76.2972H79.6814C79.6611 76.4718 79.5759 76.6027 79.4481 76.7129C79.3202 76.821 79.17 76.8875 78.9996 76.8875C78.7439 76.8875 78.5288 76.8002 78.4009 76.6027C78.2731 76.4281 78.1878 76.2099 78.1878 75.9251H80ZM78.2061 75.6633C78.2264 75.445 78.2913 75.2476 78.4192 75.073C78.547 74.9192 78.7175 74.8547 78.9306 74.8547C79.166 74.8547 79.3567 74.9213 79.4866 75.073C79.6145 75.2268 79.6794 75.4222 79.6997 75.6633H78.2061Z" fill="#04CE78"></path><path d="M53.2757 5.72757C56.7986 5.72757 59.6579 8.65611 59.6579 12.2643C59.6579 15.8725 56.7986 18.801 53.2757 18.801C49.7325 18.801 46.8731 15.8725 46.8731 12.2643C46.8711 8.65819 49.7325 5.72757 53.2757 5.72757ZM60.8308 20.0044C61.8333 18.9777 63.4771 18.9777 64.4816 20.0044C65.4841 21.0541 65.4841 22.7376 64.4816 23.7644C62.988 25.2733 61.2367 26.4539 59.3373 27.2624C57.4155 28.0938 55.3679 28.5095 53.2757 28.5095C48.9005 28.5095 44.9311 26.695 42.0494 23.7664C39.1881 20.815 37.4165 16.7496 37.4165 12.2664C37.4165 10.1235 37.8224 8.02633 38.6118 6.05804C39.4235 4.09183 40.5761 2.29812 42.0474 0.789167C43.0722 -0.260451 44.716 -0.260451 45.7184 0.789167C46.7433 1.81592 46.7433 3.49947 45.7184 4.5283C44.716 5.57792 43.9245 6.77926 43.4131 8.06998C42.8794 9.38148 42.6014 10.8031 42.6014 12.2664C42.6014 15.2843 43.7967 18.0154 45.7184 20.0065C47.6605 21.9727 50.3291 23.199 53.2736 23.199C54.7043 23.199 56.0903 22.9143 57.3505 22.3676C58.6331 21.8397 59.8284 21.0312 60.8308 20.0044Z" fill="#04CE78"></path><path d="M26.7444 32.9033C30.2673 32.9033 33.1267 35.8318 33.1267 39.44C33.1267 43.069 30.2673 45.9975 26.7444 45.9975C23.2012 45.9975 20.3399 43.069 20.3399 39.44C20.3399 35.8318 23.2012 32.9033 26.7444 32.9033ZM19.1872 31.6998C18.1624 32.7495 16.5187 32.7266 15.5162 31.6998C14.5137 30.6731 14.5137 28.9895 15.5385 27.9607C17.0118 26.431 18.7611 25.2504 20.6828 24.4419C22.5823 23.6334 24.6522 23.1948 26.7444 23.1948C31.1196 23.1948 35.0911 25.0093 37.9504 27.9607C40.8097 30.8892 42.6036 34.9568 42.6036 39.4379C42.6036 41.5808 42.1774 43.7008 41.386 45.6463C40.5966 47.6145 39.4216 49.429 37.9504 50.9359C36.9479 51.9627 35.3041 51.9627 34.2793 50.9359C33.2768 49.8863 33.2768 48.2027 34.2793 47.176C35.3041 46.1472 36.0712 44.9458 36.607 43.6343C37.1407 42.3228 37.4167 40.9011 37.4167 39.4379C37.4167 36.4221 36.2214 33.6889 34.2793 31.7206C32.3575 29.7316 29.691 28.5073 26.7444 28.5073C25.3138 28.5073 23.9277 28.7921 22.6472 29.3387C21.3647 29.8854 20.1917 30.6731 19.1872 31.6998Z" fill="#04CE78"></path><path d="M53.2758 32.9033C56.7987 32.9033 59.6581 35.8318 59.6581 39.44C59.6581 43.069 56.7987 45.9975 53.2758 45.9975C49.7326 45.9975 46.8733 43.069 46.8733 39.44C46.8713 35.8318 49.7326 32.9033 53.2758 32.9033ZM64.4818 27.9607C65.4842 28.9875 65.4842 30.671 64.4818 31.6998C63.4793 32.7266 61.8355 32.7495 60.831 31.6998C59.8285 30.6731 58.6332 29.8854 57.3527 29.3387C56.0925 28.7921 54.7065 28.5073 53.2758 28.5073C50.3293 28.5073 47.6627 29.7316 45.7206 31.7206C43.7989 33.6889 42.6036 36.4221 42.6036 39.4379C42.6036 40.9032 42.8816 42.3228 43.4153 43.6343C43.9288 44.9458 44.7182 46.1492 45.7206 47.176C46.7455 48.2027 46.7455 49.8863 45.7206 50.9359C44.7182 51.9627 43.0744 51.9627 42.0496 50.9359C40.5763 49.4269 39.4237 47.6125 38.614 45.6463C37.8246 43.7008 37.4187 41.5808 37.4187 39.4379C37.4187 34.9568 39.1903 30.8892 42.0516 27.9607C44.9333 25.0093 48.9026 23.1948 53.2778 23.1948C55.3701 23.1948 57.4197 23.6313 59.3395 24.4419C61.2369 25.2504 62.9882 26.431 64.4818 27.9607Z" fill="white"></path><path d="M15.5385 23.7645C14.5137 22.7377 14.5137 21.0542 15.5162 20.0046C16.5187 18.9778 18.1624 18.9778 19.1872 20.0046C20.1897 21.0313 21.3647 21.8398 22.6452 22.3657C23.9257 22.9123 25.3138 23.1971 26.7424 23.1971C29.689 23.1971 32.3555 21.9729 34.2773 20.0046C36.2194 18.0155 37.4146 15.2823 37.4146 12.2644C37.4146 10.7991 37.1366 9.37953 36.6049 8.06803C36.0712 6.77731 35.3021 5.57596 34.2773 4.52635C33.2748 3.49959 33.2748 1.81605 34.2773 0.787213C35.3021 -0.262404 36.9459 -0.262404 37.9483 0.787213C39.4216 2.29617 40.5946 4.08779 41.384 6.05608C42.1734 8.02438 42.6016 10.1236 42.6016 12.2644C42.6016 16.7456 40.83 20.8131 37.9483 23.7645C35.089 26.693 31.1176 28.5075 26.7424 28.5075C24.6502 28.5075 22.5803 28.0918 20.6808 27.2604C18.7611 26.454 17.0118 25.2734 15.5385 23.7645ZM26.7444 5.72769C30.2673 5.72769 33.1267 8.65623 33.1267 12.2644C33.1267 15.8726 30.2673 18.8011 26.7444 18.8011C23.2012 18.8011 20.3399 15.8726 20.3399 12.2644C20.3399 8.65831 23.2012 5.72769 26.7444 5.72769Z" fill="white"></path></svg>