<svg xmlns="http://www.w3.org/2000/svg" width="76" height="78" viewBox="0 0 76 78" fill="none"><path d="M53.9779 19.4867H51.4428C50.4692 19.4867 49.6788 18.6963 49.6788 17.7227C49.6788 16.7704 50.4692 15.978 51.4428 15.978H53.9779C56.6538 15.978 59.0886 17.073 60.8526 18.8177C62.6166 20.5817 63.7117 23.0146 63.7117 25.7116C63.7117 28.4087 62.6166 30.8416 60.8526 32.6056C59.0886 34.3503 56.6557 35.4433 53.9779 35.4433H41.121C40.5118 36.5383 39.3358 37.269 37.9979 37.269C36.0315 37.269 34.4294 35.667 34.4294 33.7006C34.4294 31.713 36.0315 30.111 37.9979 30.111C39.3358 30.111 40.5118 30.8609 41.121 31.9347H53.9779C55.6802 31.9347 57.2418 31.2445 58.3792 30.111C59.4935 28.9948 60.203 27.4351 60.203 25.7116C60.203 23.9882 59.4935 22.4267 58.3792 21.3104C57.2418 20.1749 55.6802 19.4867 53.9779 19.4867Z" fill="#04CE78"></path><path d="M31.7751 9.75291V12.2668C31.7751 13.2403 30.9846 14.0308 30.0111 14.0308C29.0568 14.0308 28.2664 13.2403 28.2664 12.2668V9.75291C28.2664 7.05588 29.3614 4.62295 31.1254 2.85899C32.8894 1.09502 35.3224 0 38.0002 0C40.6972 0 43.1301 1.09502 44.8941 2.85899C46.6581 4.62295 47.7339 7.05588 47.7339 9.75291V22.5884C48.8289 23.2168 49.5577 24.3735 49.5577 25.7115C49.5577 27.6778 47.9556 29.2799 45.9892 29.2799C44.0228 29.2799 42.4207 27.6778 42.4207 25.7115C42.4207 24.3735 43.1514 23.2168 44.2252 22.5884V9.75291C44.2252 8.02943 43.535 6.46785 42.3995 5.33236C41.2852 4.21615 39.7237 3.50864 38.0002 3.50864C36.2767 3.50864 34.7363 4.21808 33.6008 5.33236C32.4633 6.46785 31.7751 8.02943 31.7751 9.75291Z" fill="white"></path><path d="M22.0411 35.4433C19.3441 35.4433 16.9111 34.3483 15.1471 32.6055C13.3831 30.8416 12.3093 28.4086 12.3093 25.7116C12.3093 23.0146 13.3831 20.5816 15.1471 18.8177C16.9111 17.073 19.3441 15.978 22.0411 15.978H34.8961C35.5053 14.883 36.6601 14.1523 37.998 14.1523C39.9857 14.1523 41.5665 15.7544 41.5665 17.7208C41.5665 19.7084 39.9857 21.3104 37.998 21.3104C36.6601 21.3104 35.5034 20.5605 34.8961 19.4848H22.0411C20.3176 19.4848 18.7561 20.173 17.6418 21.3104C16.5063 22.4247 15.8161 23.9862 15.8161 25.7116C15.8161 27.437 16.5063 28.9966 17.6418 30.1109C18.7561 31.2464 20.3176 31.9347 22.0411 31.9347H24.5763C25.5286 31.9347 26.321 32.7251 26.321 33.6986C26.321 34.6722 25.5306 35.4414 24.5763 35.4414H22.0411V35.4433Z" fill="#04CE78"></path><path d="M47.7319 41.6681C47.7319 44.3652 46.6562 46.7981 44.8922 48.562C43.1282 50.326 40.6953 51.421 37.9982 51.421C35.3223 51.421 32.8874 50.326 31.1234 48.562C29.3594 46.7981 28.2644 44.3652 28.2644 41.6681V28.8327C27.1694 28.2042 26.4387 27.0474 26.4387 25.7095C26.4387 23.7431 28.0408 22.1411 30.0072 22.1411C31.9929 22.1411 33.5969 23.7431 33.5969 25.7095C33.5969 27.0474 32.8662 28.2042 31.7712 28.8327V41.6681C31.7712 43.3916 32.4594 44.9532 33.5969 46.0887C34.7324 47.2049 36.2728 47.9143 37.9963 47.9143C39.7198 47.9143 41.2813 47.2049 42.3956 46.0887C43.5311 44.9532 44.2213 43.3916 44.2213 41.6681V39.1542C44.2213 38.1807 45.0117 37.3903 45.9853 37.3903C46.9589 37.3903 47.73 38.1807 47.73 39.1542V41.6681H47.7319Z" fill="white"></path><path d="M5.98215 60.2214V64.1754H2.93998V60.2214H0V71.1503H2.93998V66.589H5.98215V71.1503H8.92213V60.2214H5.98215ZM16.4234 71.3739C19.668 71.3739 22.02 68.7983 22.02 65.6752C22.02 62.5329 19.668 59.9766 16.4234 59.9766C13.1576 59.9766 10.8057 62.5309 10.8057 65.6752C10.8076 68.8003 13.1595 71.3739 16.4234 71.3739ZM16.4234 68.6576C15.3072 68.6576 14.1524 68.0079 14.1524 65.656C14.1524 63.304 15.3091 62.6948 16.4234 62.6948C17.4972 62.6948 18.6733 63.3021 18.6733 65.656C18.6752 68.0079 17.4992 68.6576 16.4234 68.6576ZM29.9685 63.1421L30.3329 60.607C29.6235 60.3429 28.3858 59.9978 27.15 59.9978C25.4882 59.9978 23.2577 60.607 23.2577 63.2019C23.2577 65.2087 24.5763 65.8989 26.9881 66.9322C27.738 67.2561 28.3048 67.5009 28.3048 68.0465C28.3048 68.5728 27.7573 68.7154 27.1693 68.7154C26.3789 68.7154 25.2838 68.4725 23.7011 67.8845L23.2345 70.5411C24.9985 71.291 26.3982 71.3527 27.0459 71.3527C29.9049 71.3527 31.2833 70.1555 31.2833 68.0272C31.2833 66.1013 30.1478 65.1682 27.8151 64.2969C26.7413 63.8901 25.9702 63.7089 25.9702 63.2019C25.9702 62.7353 26.6391 62.5117 27.3698 62.5117C28.2662 62.5136 29.2186 62.8375 29.9685 63.1421ZM36.905 60.2214H32.789V71.1503H35.7502V67.7843C38.9948 67.7843 41.4065 67.1346 41.4065 63.7493C41.4065 61.2162 39.8642 60.2214 36.905 60.2214ZM35.7483 65.5153V62.3112H36.6814C37.3715 62.3112 38.507 62.3112 38.507 63.8515C38.507 65.494 37.8361 65.5153 35.7483 65.5153ZM46.2512 60.2214H43.2901V71.1503H46.2512V60.2214ZM56.2684 60.2214H47.5294V62.635H50.4289V71.1503H53.3689V62.635H56.2684V60.2214ZM63.8333 71.1522H67.4017L63.6501 60.2233H60.101L56.492 71.1522H60.0605L60.6273 68.7H63.2434L63.8333 71.1522ZM61.1767 66.2845L61.8264 63.4043H61.9883L62.6785 66.2845H61.1767ZM71.5582 60.2214H68.6182V71.1503H76V68.7367H71.5601V60.2214H71.5582Z" fill="white"></path><path d="M42.7636 76.3015C42.7636 76.1588 42.7423 76.0374 42.6826 75.9564C42.6209 75.8542 42.5611 75.7732 42.459 75.6923C42.378 75.6306 42.2758 75.5901 42.1756 75.5496C42.0753 75.5091 41.9519 75.4474 41.79 75.407C41.6473 75.3472 41.5259 75.3067 41.4449 75.2855C41.3447 75.245 41.2618 75.2046 41.202 75.1429C41.121 75.1024 41.0594 75.0426 41.0189 74.9597C40.9572 74.8788 40.9379 74.7978 40.9379 74.6956C40.9379 74.5934 40.9591 74.5125 41.0189 74.4315C41.0594 74.3718 41.1191 74.31 41.1808 74.2696C41.2618 74.2098 41.3427 74.1886 41.4237 74.1674C41.5259 74.1462 41.6069 74.1269 41.6878 74.1269C41.79 74.1269 41.871 74.1269 41.952 74.1462C42.0329 74.1674 42.1139 74.1867 42.1756 74.2272C42.2373 74.2676 42.2971 74.3081 42.3375 74.3891C42.378 74.4508 42.3992 74.5317 42.3992 74.632H42.7038C42.6826 74.47 42.644 74.3486 42.5823 74.2464C42.5014 74.1442 42.4204 74.0633 42.3182 74.0035C42.2161 73.963 42.1158 73.9226 42.0136 73.9014C41.8922 73.8609 41.7707 73.8608 41.6493 73.8608C41.5278 73.8608 41.4063 73.8801 41.2849 73.9225C41.1634 73.963 41.042 74.0035 40.961 74.0845C40.8588 74.1655 40.7779 74.2464 40.7181 74.3679C40.6564 74.4701 40.6372 74.5915 40.6372 74.7322C40.6372 74.8749 40.6776 74.9964 40.7393 75.0966C40.7991 75.2181 40.882 75.299 41.0034 75.38C41.1056 75.4398 41.227 75.5014 41.3273 75.5419C41.4488 75.6036 41.5914 75.6422 41.7726 75.7039C41.8536 75.7231 41.9153 75.7444 41.9558 75.7636C42.0984 75.8041 42.2199 75.8851 42.3202 75.9661C42.4011 76.047 42.4628 76.1685 42.4628 76.3112C42.4628 76.4133 42.4436 76.5136 42.3819 76.5945C42.3414 76.6562 42.2797 76.7372 42.1987 76.7777C42.137 76.8394 42.056 76.8798 41.9558 76.8991C41.8536 76.9184 41.7726 76.9396 41.6724 76.9396C41.5702 76.9396 41.47 76.9184 41.3678 76.8991C41.2656 76.8779 41.1847 76.8586 41.1037 76.7969C41.0439 76.7564 40.9822 76.6948 40.9417 76.6138C40.9012 76.5116 40.8801 76.4114 40.8801 76.3092H40.5562C40.5562 76.4307 40.5967 76.5521 40.6372 76.6543C40.6988 76.7757 40.7586 76.8779 40.8396 76.9589C40.9418 77.0398 41.042 77.1015 41.1635 77.142C41.2637 77.1825 41.3871 77.2037 41.5085 77.2037C41.6917 77.2037 41.8536 77.1825 41.9963 77.1632C42.137 77.1228 42.2797 77.0823 42.4011 77.0013C42.5033 76.9415 42.6036 76.8394 42.6653 76.7179C42.7231 76.6273 42.7636 76.4654 42.7636 76.3015ZM43.6562 73.9303H43.3921V77.1536H43.6562V73.9303ZM46.0081 76.0393C46.0081 76.1415 45.9869 76.2629 45.9677 76.3632C45.9272 76.4653 45.8867 76.5656 45.825 76.6678C45.7652 76.7487 45.6823 76.8297 45.5821 76.8914C45.5011 76.9531 45.3797 76.9724 45.2582 76.9724C45.1368 76.9724 45.0153 76.9531 44.9131 76.8914C44.811 76.8316 44.7512 76.7487 44.6895 76.6678C44.6298 76.5656 44.5681 76.4653 44.5469 76.3632C44.5064 76.261 44.5064 76.1395 44.5064 76.0393C44.5064 75.9178 44.5064 75.8157 44.5469 75.6942C44.5681 75.592 44.6278 75.4918 44.6895 75.3896C44.7512 75.3087 44.811 75.2277 44.9131 75.166C45.0153 75.1255 45.1368 75.085 45.2582 75.085C45.3797 75.085 45.5011 75.1255 45.5821 75.166C45.6843 75.2257 45.7652 75.3087 45.825 75.3896C45.8867 75.4899 45.9272 75.592 45.9677 75.6942C45.9889 75.8157 46.0081 75.9159 46.0081 76.0393ZM45.2582 74.8421C45.0751 74.8421 44.9344 74.8826 44.7917 74.9443C44.6702 75.0041 44.5488 75.1062 44.4678 75.2084C44.3868 75.3298 44.3251 75.4513 44.2846 75.594C44.223 75.7366 44.2037 75.8774 44.2037 76.0393C44.2037 76.182 44.223 76.3227 44.2846 76.4653C44.3251 76.6061 44.3868 76.7487 44.4678 76.8509C44.5488 76.9724 44.6702 77.0534 44.7917 77.115C44.9344 77.196 45.0751 77.2172 45.2582 77.2172C45.4202 77.2172 45.5821 77.196 45.7036 77.115C45.8462 77.0534 45.9465 76.9724 46.0487 76.8509C46.1296 76.7487 46.1913 76.608 46.2318 76.4653C46.2723 76.3227 46.2935 76.182 46.2935 76.0393C46.2935 75.8774 46.2742 75.7347 46.2318 75.594C46.1913 75.4513 46.1296 75.3298 46.0487 75.2084C45.9465 75.1062 45.8462 75.006 45.7036 74.9443C45.5821 74.8826 45.4202 74.8421 45.2582 74.8421ZM48.4006 75.9776C48.4006 76.099 48.3814 76.2012 48.3602 76.3227C48.3197 76.4249 48.2792 76.5251 48.2387 76.6061C48.177 76.7082 48.096 76.768 48.0151 76.8297C47.9129 76.8702 47.8126 76.8895 47.6912 76.8895C47.5697 76.8895 47.4676 76.8683 47.3866 76.8085C47.2863 76.768 47.2034 76.687 47.1629 76.6061C47.1012 76.5039 47.0608 76.423 47.0203 76.3015C47.001 76.1993 46.9798 76.0991 46.9798 75.9969C46.9798 75.8754 47.001 75.7733 47.0203 75.673C47.0608 75.5728 47.1013 75.4706 47.1417 75.3896C47.2015 75.2875 47.2844 75.2277 47.3634 75.166C47.4444 75.1255 47.5659 75.085 47.668 75.085C47.7895 75.085 47.8917 75.1255 47.9919 75.166C48.0729 75.2065 48.1539 75.2874 48.2156 75.3684C48.2753 75.4494 48.3177 75.5516 48.337 75.6518C48.3813 75.7752 48.4006 75.8754 48.4006 75.9776ZM48.4006 75.247L48.3813 75.2662C48.3004 75.1236 48.1789 75.0233 48.0767 74.9424C47.9553 74.8807 47.8126 74.8402 47.6507 74.8402C47.4887 74.8402 47.3461 74.8807 47.2246 74.9424C47.1032 75.0021 47.0029 75.085 46.92 75.1853C46.839 75.3067 46.7774 75.4282 46.7581 75.5708C46.7176 75.7135 46.6983 75.8543 46.6983 76.0162C46.6983 76.1781 46.7176 76.3208 46.7581 76.4615C46.7986 76.5829 46.839 76.7044 46.92 76.8066C47.001 76.9087 47.1032 76.9897 47.2246 77.0495C47.3461 77.1112 47.4887 77.1305 47.6507 77.1305C47.8126 77.1305 47.9553 77.1093 48.098 77.0283C48.2194 76.9473 48.3216 76.8451 48.3813 76.7237H48.4006V77.1286C48.4006 77.3117 48.3197 77.4736 48.1982 77.5738C48.0555 77.6953 47.8936 77.7551 47.7124 77.7551C47.5504 77.7551 47.4078 77.7358 47.2863 77.6741C47.1649 77.6143 47.1032 77.5314 47.0839 77.3907H46.8005C46.8005 77.5122 46.8217 77.6143 46.8815 77.6741C46.9219 77.7551 47.0029 77.8168 47.0839 77.8765C47.1649 77.917 47.267 77.9575 47.3673 77.9787C47.4695 77.9999 47.5697 77.9999 47.6719 77.9999C47.7934 77.9999 47.8743 77.9999 47.9553 77.9787C48.017 77.9594 48.098 77.9382 48.1982 77.8978C48.3004 77.8573 48.3814 77.7763 48.4411 77.7146C48.5221 77.6336 48.5626 77.5527 48.5838 77.4505C48.6243 77.3502 48.6455 77.248 48.6455 77.1459C48.6648 77.0437 48.6647 76.903 48.6647 76.7603V75.4012C48.6647 75.3202 48.6648 75.1776 48.686 74.9751V74.8942H48.4026V75.247H48.4006ZM49.4359 76.5251C49.4359 76.4037 49.4552 76.3227 49.5169 76.2417C49.5786 76.18 49.6595 76.1203 49.7598 76.0991C49.862 76.0586 49.9622 76.0374 50.0837 76.0374C50.1839 76.0374 50.3073 76.0181 50.448 76.0181C50.529 76.0181 50.5695 76.0181 50.5907 76.0181C50.5907 76.0374 50.5907 76.0586 50.5907 76.0798C50.6099 76.1203 50.61 76.1395 50.61 76.1395C50.61 76.261 50.5907 76.3632 50.5695 76.4634C50.5502 76.5637 50.5097 76.6466 50.4673 76.7275C50.4056 76.8085 50.3458 76.8702 50.2436 76.9107C50.1627 76.9512 50.0605 76.9705 49.9198 76.9705C49.7771 76.9705 49.6556 76.9299 49.5747 76.849C49.4764 76.7892 49.4359 76.6678 49.4359 76.5251ZM50.5907 75.7752C50.5502 75.7752 50.448 75.7752 50.3266 75.7752C50.1646 75.7752 50.022 75.7752 49.9005 75.7964C49.7791 75.8176 49.6788 75.8369 49.5766 75.8774C49.4552 75.9391 49.3337 76.02 49.2527 76.1415C49.1718 76.2437 49.1313 76.3844 49.1313 76.527C49.1313 76.7295 49.2123 76.9126 49.3549 77.0341C49.4976 77.1555 49.6595 77.2172 49.8832 77.2172C50.0258 77.2172 50.1665 77.1767 50.3092 77.115C50.4307 77.0341 50.5329 76.9531 50.5733 76.8509L50.5945 76.8317H50.6138V77.1555H50.8972C50.8972 77.115 50.8779 77.0746 50.8779 77.0746C50.8779 76.8914 50.8779 76.7507 50.8779 76.6485V75.594C50.8779 75.3298 50.797 75.1467 50.6543 75.0253C50.5328 74.9038 50.3304 74.8421 50.0663 74.8421C49.8427 74.8421 49.6615 74.9038 49.4995 75.0041C49.3568 75.1063 49.2759 75.2682 49.2354 75.4706H49.5188C49.54 75.3279 49.5998 75.2277 49.7019 75.1872C49.7829 75.1274 49.9256 75.087 50.0663 75.087C50.2282 75.087 50.3709 75.1274 50.4519 75.2084C50.5328 75.2701 50.5945 75.3916 50.5945 75.5747V75.7752H50.5907ZM51.8284 75.8562C51.8284 75.6537 51.89 75.4706 51.9903 75.3086C52.1117 75.166 52.2737 75.085 52.4761 75.085C52.6593 75.085 52.8 75.1448 52.9022 75.247C53.0043 75.3684 53.0641 75.5111 53.0641 75.7135V77.1536H53.3282V75.754C53.3282 75.6518 53.3282 75.5708 53.309 75.4706C53.2878 75.3684 53.2473 75.2875 53.2068 75.1872C53.1451 75.087 53.0641 75.0041 52.9639 74.9443C52.8424 74.8826 52.6998 74.8421 52.5378 74.8421C52.3952 74.8421 52.2544 74.8826 52.1329 74.9443C52.0115 75.0041 51.9093 75.1063 51.8496 75.2489H51.8303L51.811 74.9038H51.5469V74.9848C51.5681 75.1872 51.5681 75.3299 51.5681 75.4108V77.1555H51.8322V75.8562H51.8284ZM56.6345 75.5111V75.7752H57.4461V76.8104C57.3035 76.8509 57.182 76.8914 57.0606 76.9126C56.9584 76.9319 56.8369 76.9531 56.7367 76.9531C56.5343 76.9531 56.3299 76.9126 56.1892 76.8509C56.0272 76.7892 55.9058 76.689 55.8036 76.5675C55.7014 76.4268 55.6416 76.2841 55.6012 76.1222C55.5395 75.939 55.5202 75.7579 55.5202 75.5342C55.5202 75.3723 55.5414 75.1891 55.5819 75.0272C55.6224 74.8652 55.6841 74.7226 55.765 74.5818C55.8672 74.4392 55.9675 74.339 56.1101 74.258C56.2528 74.177 56.4147 74.1366 56.596 74.1366C56.7984 74.1366 56.9815 74.177 57.1223 74.2792C57.2842 74.3814 57.3652 74.5433 57.3864 74.7245H57.7103C57.7103 74.5818 57.6698 74.4604 57.6081 74.3602C57.5271 74.258 57.4461 74.1577 57.344 74.096C57.2437 74.0151 57.1203 73.9534 56.9796 73.9341C56.8582 73.8936 56.7155 73.8724 56.594 73.8724C56.3704 73.8724 56.1679 73.9129 55.9848 74.0151C55.8229 74.096 55.6802 74.2387 55.5588 74.3795C55.4373 74.5414 55.3564 74.7245 55.2947 74.9269C55.233 75.1294 55.2137 75.3337 55.2137 75.5362C55.2137 75.8003 55.233 76.0239 55.2947 76.2263C55.3564 76.4287 55.4566 76.6119 55.5781 76.7526C55.6802 76.9145 55.821 77.0167 56.0041 77.0977C56.1872 77.1786 56.3704 77.2192 56.5921 77.2192C56.7945 77.2192 56.997 77.198 57.1801 77.1787C57.3633 77.1382 57.5445 77.0977 57.7488 77.0167V75.5169H56.6345V75.5111ZM60.1413 76.0393C60.1413 76.1415 60.122 76.2629 60.1008 76.3632C60.0603 76.4653 60.0198 76.5656 59.9581 76.6678C59.8964 76.7487 59.8155 76.8297 59.7152 76.8914C59.6343 76.9531 59.5128 76.9724 59.3914 76.9724C59.2487 76.9724 59.1484 76.9531 59.0463 76.8914C58.9441 76.8316 58.8843 76.7487 58.8034 76.6678C58.7436 76.5656 58.7012 76.4653 58.6819 76.3632C58.6414 76.261 58.6414 76.1395 58.6414 76.0393C58.6414 75.9178 58.6414 75.8157 58.6819 75.6942C58.7012 75.592 58.7436 75.4918 58.8034 75.3896C58.8843 75.3087 58.946 75.2277 59.0463 75.166C59.1484 75.1255 59.2487 75.085 59.3914 75.085C59.5128 75.085 59.6343 75.1255 59.7152 75.166C59.8174 75.2257 59.8984 75.3087 59.9581 75.3896C60.0198 75.4899 60.0603 75.592 60.1008 75.6942C60.122 75.8157 60.1413 75.9159 60.1413 76.0393ZM59.3914 74.8421C59.2082 74.8421 59.0674 74.8826 58.9248 74.9443C58.8033 75.0041 58.6819 75.1062 58.6009 75.2084C58.5199 75.3298 58.4582 75.4513 58.3985 75.594C58.358 75.7366 58.3388 75.8774 58.3388 76.0393C58.3388 76.182 58.358 76.3227 58.3985 76.4653C58.4602 76.6061 58.5199 76.7487 58.6009 76.8509C58.6819 76.9724 58.8033 77.0534 58.9248 77.115C59.0674 77.196 59.2082 77.2172 59.3914 77.2172C59.5533 77.2172 59.7152 77.196 59.8386 77.115C59.9813 77.0534 60.0815 76.9724 60.1625 76.8509C60.2647 76.7487 60.3244 76.608 60.3649 76.4653C60.4054 76.3227 60.4266 76.182 60.4266 76.0393C60.4266 75.8774 60.4054 75.7347 60.3649 75.594C60.3244 75.4513 60.2647 75.3298 60.1625 75.2084C60.0815 75.1062 59.9793 75.006 59.8386 74.9443C59.7171 74.8826 59.5533 74.8421 59.3914 74.8421ZM62.8788 76.0991C62.8788 75.9159 62.8596 75.754 62.8191 75.592C62.7786 75.4494 62.7169 75.3086 62.6359 75.2065C62.5549 75.085 62.4528 75.0041 62.312 74.9424C62.1906 74.8807 62.0287 74.8402 61.8455 74.8402C61.6836 74.8402 61.5409 74.8807 61.4195 74.9424C61.298 75.0021 61.1958 75.085 61.0956 75.2065C61.0146 75.3086 60.9529 75.4494 60.9124 75.592C60.8719 75.7347 60.8507 75.8754 60.8507 76.0374C60.8507 76.18 60.8719 76.342 60.9124 76.4827C60.9529 76.6254 61.0146 76.7468 61.0956 76.847C61.1765 76.9685 61.2787 77.0495 61.4002 77.1112C61.5216 77.1922 61.6643 77.2134 61.8262 77.2134C62.3737 77.2134 62.7188 76.9493 62.8403 76.4422H62.5569C62.5357 76.5849 62.4547 76.7256 62.3333 76.8278C62.2118 76.93 62.0691 76.9705 61.9284 76.9705C61.6643 76.9705 61.4619 76.8895 61.3404 76.7275C61.2189 76.5656 61.1572 76.3632 61.138 76.0991H62.8788ZM61.1553 75.8562C61.1765 75.6325 61.2363 75.4494 61.3578 75.3086C61.4792 75.166 61.6412 75.085 61.8436 75.085C62.0672 75.085 62.2484 75.166 62.3718 75.2875C62.4933 75.4301 62.5743 75.6113 62.5743 75.8562H61.1553ZM63.3859 75.4706C63.3859 75.5728 63.4071 75.6518 63.4476 75.7135C63.4881 75.7945 63.5285 75.8349 63.6095 75.8966C63.6712 75.9371 63.731 75.9776 63.8119 75.9988C63.8929 76.02 63.9739 76.0393 64.0953 76.0798C64.1165 76.0798 64.1358 76.0798 64.1763 76.0991C64.2784 76.1184 64.3594 76.1396 64.4192 76.1588C64.5002 76.1588 64.5619 76.1993 64.6216 76.2205C64.6814 76.261 64.7238 76.3015 64.7643 76.342C64.7836 76.4037 64.8048 76.4634 64.8048 76.5251C64.8048 76.6678 64.745 76.7892 64.6216 76.849C64.5194 76.9299 64.3787 76.9705 64.2168 76.9705C64.0549 76.9705 63.9122 76.93 63.7907 76.8683C63.6692 76.8085 63.6076 76.6851 63.6076 76.5444H63.303C63.3242 76.6659 63.3435 76.768 63.3839 76.849C63.4456 76.9299 63.5054 77.0109 63.5864 77.0514C63.6674 77.1131 63.7483 77.1536 63.8505 77.1729C63.9507 77.2134 64.0529 77.2134 64.1551 77.2134C64.2765 77.2134 64.398 77.1922 64.5002 77.1729C64.6216 77.1517 64.7238 77.0919 64.8048 77.0302C64.8857 76.9685 64.9667 76.9087 65.0284 76.8066C65.0689 76.7044 65.0881 76.6042 65.0881 76.4827C65.0881 76.3613 65.067 76.2591 64.986 76.1588C64.9243 76.0779 64.824 75.9969 64.7219 75.9564C64.6004 75.9159 64.4385 75.8754 64.2149 75.8138C64.0124 75.7733 63.8697 75.7116 63.7888 75.6711C63.7078 75.6306 63.6673 75.5496 63.6673 75.4474C63.6673 75.326 63.729 75.245 63.8293 75.1834C63.9315 75.1236 64.0317 75.0831 64.1743 75.0831C64.3363 75.0831 64.4577 75.1236 64.5599 75.1834C64.6621 75.245 64.7219 75.326 64.7431 75.4667H65.0265C65.0053 75.2431 64.9243 75.0812 64.7836 74.979C64.6409 74.898 64.4385 74.8363 64.2168 74.8363C64.0953 74.8363 63.9931 74.8575 63.9122 74.8768C63.81 74.898 63.729 74.9385 63.648 74.979C63.5671 75.0407 63.5054 75.1005 63.4649 75.1814C63.4071 75.2682 63.3859 75.3684 63.3859 75.4706ZM67.2994 77.1536V75.6133H69.0634V77.1536H69.3468V73.9303H69.0634V75.3491H67.2994V73.9303H67.016V77.1536H67.2994ZM72.0458 76.0991C72.0458 75.9159 72.0246 75.754 71.9841 75.592C71.9436 75.4494 71.8839 75.3086 71.801 75.2065C71.72 75.085 71.6178 75.0041 71.4964 74.9424C71.3537 74.8807 71.1918 74.8402 71.0298 74.8402C70.8679 74.8402 70.7252 74.8807 70.5845 74.9424C70.463 75.0021 70.3609 75.085 70.2799 75.2065C70.1989 75.3086 70.1372 75.4494 70.0775 75.592C70.037 75.7347 70.0158 75.8754 70.0158 76.0374C70.0158 76.18 70.037 76.342 70.0775 76.4827C70.1179 76.6254 70.1777 76.7468 70.2606 76.847C70.3416 76.9685 70.4437 77.0495 70.5845 77.1112C70.7059 77.1922 70.8486 77.2134 71.0106 77.2134C71.5369 77.2134 71.882 76.9493 72.0246 76.4422H71.7412C71.7007 76.5849 71.6197 76.7256 71.4983 76.8278C71.3768 76.93 71.2554 76.9705 71.0915 76.9705C70.8274 76.9705 70.6462 76.8895 70.5035 76.7275C70.3821 76.5656 70.3204 76.3632 70.3204 76.0991H72.0458ZM70.3223 75.8562C70.3435 75.6325 70.4245 75.4494 70.5459 75.3086C70.6674 75.166 70.8293 75.085 71.0317 75.085C71.2554 75.085 71.4173 75.166 71.5388 75.2875C71.6602 75.4301 71.7412 75.6113 71.7624 75.8562H70.3223ZM72.896 75.7945C72.9172 75.592 72.9577 75.4089 73.0792 75.2875C73.1813 75.1448 73.322 75.085 73.5264 75.085C73.5457 75.085 73.5669 75.0851 73.6266 75.1043C73.6478 75.1043 73.6671 75.1043 73.6883 75.1043V74.8402C73.6671 74.8402 73.6479 74.8402 73.6074 74.8402C73.5476 74.8402 73.4859 74.8402 73.4242 74.8402C73.3028 74.8402 73.2006 74.8807 73.1196 74.9617C73.0175 75.0426 72.9577 75.1236 72.9172 75.2451H72.896V74.9H72.6126C72.6126 74.9597 72.6126 74.9809 72.6126 75.0021C72.6319 75.1641 72.6319 75.3067 72.6319 75.407V77.1517H72.896V75.7945ZM75.9979 76.0991C75.9979 75.9159 75.9979 75.754 75.9574 75.592C75.9169 75.4494 75.8553 75.3086 75.7743 75.2065C75.6933 75.085 75.5911 75.0041 75.4504 74.9424C75.3289 74.8807 75.167 74.8402 74.9838 74.8402C74.8219 74.8402 74.6793 74.8807 74.5578 74.9424C74.4363 75.0021 74.3149 75.085 74.2339 75.2065C74.153 75.3086 74.0913 75.4494 74.0508 75.592C74.0103 75.7347 73.991 75.8754 73.991 76.0374C73.991 76.18 74.0103 76.342 74.0508 76.4827C74.0913 76.6254 74.153 76.7468 74.2339 76.847C74.3149 76.9685 74.417 77.0495 74.5385 77.1112C74.66 77.1922 74.8027 77.2134 74.9646 77.2134C75.5121 77.2134 75.8572 76.9493 75.9787 76.4422H75.6952C75.6759 76.5849 75.595 76.7256 75.4735 76.8278C75.3521 76.93 75.2094 76.9705 75.0475 76.9705C74.8046 76.9705 74.6002 76.8895 74.4788 76.7275C74.3573 76.5656 74.2763 76.3632 74.2763 76.0991H75.9979ZM74.2956 75.8562C74.3149 75.6325 74.3766 75.4494 74.498 75.3086C74.6195 75.166 74.7814 75.085 74.9858 75.085C75.2094 75.085 75.3906 75.166 75.5121 75.2875C75.6335 75.4301 75.6952 75.6113 75.7145 75.8562H74.2956Z" fill="#04CE78"></path></svg>