<svg xmlns="http://www.w3.org/2000/svg" width="78" height="78" viewBox="0 0 78 78" fill="none"><path d="M6.13786 59.4127V63.5679H3.01651V59.4127H0V70.8365H3.01651V66.0666H6.13786V70.8365H9.15437V59.4127H6.13786ZM16.8529 71.0702C20.1819 71.0702 22.5951 68.378 22.5951 65.1135C22.5951 61.8288 20.1819 59.1567 16.8529 59.1567C13.5041 59.1567 11.0889 61.8268 11.0889 65.1135C11.0889 68.378 13.5041 71.0702 16.8529 71.0702ZM16.8529 68.2309C15.7096 68.2309 14.5228 67.5518 14.5228 65.0933C14.5228 62.6349 15.7096 61.9981 16.8529 61.9981C17.9546 61.9981 19.1613 62.6328 19.1613 65.0933C19.1613 67.5518 17.9546 68.2309 16.8529 68.2309ZM30.7506 62.4656L31.1245 59.8157C30.3965 59.5396 29.1266 59.1789 27.8587 59.1789C26.1517 59.1789 23.8631 59.8157 23.8631 62.5281C23.8631 64.6258 25.216 65.3472 27.6906 66.4495C28.46 66.7679 29.0436 67.0218 29.0436 67.6163C29.0436 68.1664 28.4818 68.2954 27.8785 68.2954C27.0675 68.2954 25.9439 68.0415 24.32 67.4269L23.8413 70.2037C25.6512 70.9876 27.0873 71.0521 27.7519 71.0521C30.6853 71.0521 32.0996 69.8007 32.0996 67.576C32.0996 65.5629 30.9346 64.6097 28.5431 63.6968C27.4394 63.2515 26.6501 63.0601 26.6501 62.5321C26.6501 62.0444 27.3365 61.8107 28.0862 61.8107C29.004 61.8087 29.9811 62.1472 30.7506 62.4656ZM37.8656 59.4127H33.6425V70.8365H36.6807V67.3181C40.0098 67.3181 42.4863 66.641 42.4863 63.1004C42.4843 60.4525 40.9038 59.4127 37.8656 59.4127ZM36.6807 64.9442V61.5951H37.6381C38.3463 61.5951 39.5093 61.5951 39.5093 63.2051C39.5093 64.9241 38.8229 64.9442 36.6807 64.9442ZM47.4571 59.4127H44.4188V70.8365H47.4571V59.4127ZM57.735 59.4127H48.7685V61.9356H51.7435V70.8385H54.76V61.9356H57.735V59.4127ZM65.4949 70.8365H69.1562L65.3069 59.4127H61.6653L57.9625 70.8365H61.6258L62.2093 68.2712H64.8935L65.4949 70.8365ZM62.7711 65.7724L63.4357 62.7417H63.6019L64.31 65.7724H62.7711ZM73.4228 59.4127H70.4063V70.8365H77.9802V68.3135H73.4248V59.4127H73.4228Z" fill="white"></path><path d="M43.8789 76.2205C43.8789 76.0714 43.8572 75.9444 43.7959 75.8598C43.7326 75.755 43.6712 75.6683 43.5664 75.6059C43.4833 75.5212 43.3785 75.4789 43.2756 75.4366C43.1708 75.3943 43.0462 75.3298 42.88 75.2875C42.7336 75.2452 42.609 75.2028 42.5259 75.1605C42.4211 75.1182 42.338 75.0759 42.2767 75.0114C42.1936 74.9691 42.1303 74.9046 42.0888 74.82C42.0255 74.7353 42.0057 74.6507 42.0057 74.5439C42.0057 74.4371 42.0255 74.3524 42.0888 74.2678C42.1303 74.2033 42.1937 74.1408 42.255 74.0985C42.3381 74.0562 42.4211 74.0139 42.5042 73.9917C42.6071 73.9696 42.6921 73.9494 42.7752 73.9494C42.88 73.9494 42.9631 73.9494 43.0462 73.9716C43.1293 73.9937 43.2123 74.0139 43.2756 74.0562C43.3389 74.0985 43.4003 74.163 43.4418 74.2255C43.4833 74.288 43.5031 74.3746 43.5031 74.4794H43.8156C43.7958 74.3101 43.7543 74.1832 43.691 74.0764C43.608 73.9696 43.5249 73.8849 43.42 73.8426C43.3152 73.7781 43.2123 73.7358 43.1075 73.7157C42.9829 73.6733 42.8583 73.6733 42.7534 73.6733C42.6071 73.6733 42.4825 73.6955 42.3578 73.7378C42.2332 73.7801 42.1086 73.8225 42.0235 73.9071C41.9207 73.9917 41.8356 74.0764 41.7743 74.2033C41.711 74.3101 41.6912 74.4371 41.6912 74.5842C41.6912 74.7313 41.7328 74.8603 41.7961 74.9872C41.8594 75.094 41.9425 75.1787 42.0671 75.2633C42.1699 75.3479 42.2945 75.3902 42.3994 75.4547C42.524 75.497 42.6704 75.5394 42.8563 75.6038C42.9394 75.624 43.0027 75.6462 43.0442 75.6683C43.1906 75.7107 43.3152 75.7953 43.418 75.8799C43.5011 75.9646 43.5644 76.0915 43.5644 76.2608C43.5644 76.3454 43.5427 76.4522 43.4814 76.5369C43.4398 76.6215 43.3765 76.686 43.2934 76.7283C43.2301 76.7928 43.1471 76.8331 43.0442 76.8552C42.9394 76.8774 42.8563 76.8976 42.7534 76.8976C42.6506 76.8976 42.5457 76.8976 42.4409 76.8754C42.3361 76.8532 42.253 76.8109 42.1699 76.7484C42.1086 76.7061 42.0453 76.6416 42.0038 76.557C41.9622 76.4724 41.9405 76.3656 41.9405 76.2386H41.6082C41.6082 76.3656 41.6497 76.4925 41.6912 76.5993C41.7545 76.7263 41.8158 76.8331 41.8989 76.9177C42.0038 77.0024 42.1066 77.0648 42.2312 77.1071C42.3341 77.1495 42.4607 77.1716 42.5853 77.1716C42.7732 77.1716 42.9394 77.1716 43.0857 77.1293C43.2321 77.087 43.3765 77.0447 43.5012 76.96C43.606 76.8955 43.7088 76.7908 43.7721 76.6638C43.8374 76.559 43.8789 76.4119 43.8789 76.2205ZM44.7947 73.7398H44.5238V77.1092H44.7947V73.7398ZM47.208 75.9444C47.208 76.0512 47.1862 76.1782 47.1664 76.2829C47.1249 76.4099 47.0833 76.4945 47.02 76.6013C46.9567 76.7081 46.8737 76.7706 46.7708 76.8351C46.6877 76.8996 46.5631 76.9197 46.4385 76.9197C46.3139 76.9197 46.1893 76.8976 46.0844 76.8351C45.9796 76.7726 45.9183 76.7081 45.855 76.6013C45.7937 76.4966 45.7304 76.4099 45.7086 76.2829C45.6671 76.1761 45.6671 76.0492 45.6671 75.9444C45.6671 75.8175 45.6671 75.7107 45.7086 75.6059C45.7304 75.4789 45.7917 75.3721 45.855 75.2875C45.9183 75.1807 45.9796 75.096 46.0844 75.0537C46.1893 74.9892 46.3139 74.9469 46.4385 74.9469C46.5631 74.9469 46.6877 74.9892 46.7708 75.0537C46.8756 75.096 46.9587 75.1807 47.02 75.2875C47.0833 75.3721 47.1249 75.4789 47.1664 75.6059C47.1862 75.7127 47.208 75.8175 47.208 75.9444ZM46.4385 74.695C46.2506 74.695 46.1062 74.7373 45.9598 74.8018C45.8352 74.8663 45.7106 74.9711 45.6275 75.0779C45.5445 75.2049 45.4811 75.3318 45.4396 75.4809C45.3763 75.628 45.3565 75.7772 45.3565 75.9464C45.3565 76.0935 45.3783 76.2648 45.4396 76.3918C45.4811 76.5409 45.5445 76.688 45.6275 76.7948C45.7106 76.9217 45.8352 77.0064 45.9598 77.0709C46.1062 77.1555 46.2506 77.1777 46.4385 77.1777C46.6047 77.1777 46.7708 77.1575 46.8954 77.0709C47.0418 77.0084 47.1447 76.9238 47.2495 76.7948C47.3326 76.688 47.3959 76.5409 47.4374 76.3918C47.479 76.2648 47.4988 76.0955 47.4988 75.9464C47.4988 75.7772 47.479 75.628 47.4374 75.4809C47.3959 75.3318 47.3326 75.2049 47.2495 75.0779C47.1447 74.9731 47.0418 74.8663 46.8954 74.8018C46.7708 74.7373 46.6047 74.695 46.4385 74.695ZM49.6627 75.8819C49.6627 76.0089 49.641 76.1157 49.6212 76.2426C49.5797 76.3494 49.5381 76.4542 49.4965 76.5389C49.4333 76.6457 49.3502 76.7081 49.2671 76.7726C49.1623 76.8149 49.0594 76.8351 48.9348 76.8351C48.8102 76.8351 48.7053 76.8129 48.6223 76.7726C48.5174 76.7081 48.4561 76.6235 48.3928 76.5389C48.3295 76.4542 48.288 76.3474 48.2465 76.2426C48.2267 76.1157 48.2049 76.0089 48.2049 75.9041C48.2049 75.7993 48.2247 75.6703 48.2465 75.5656C48.288 75.4588 48.3295 75.354 48.3711 75.2693C48.4344 75.1625 48.5174 75.1001 48.6005 75.0356C48.7053 74.9933 48.8082 74.9509 48.913 74.9509C49.0377 74.9509 49.1425 74.9933 49.2453 75.0356C49.3284 75.1001 49.4115 75.1625 49.4728 75.2472C49.5361 75.3318 49.5777 75.4386 49.6192 75.5434C49.6429 75.6703 49.6627 75.7751 49.6627 75.8819ZM49.6627 75.1182L49.6409 75.1404C49.5579 74.9912 49.4333 74.8865 49.3284 74.822C49.2038 74.7373 49.0575 74.695 48.8913 74.695C48.7252 74.695 48.5787 74.7373 48.4541 74.8018C48.3295 74.8663 48.2247 74.9509 48.1416 75.0779C48.0585 75.1847 47.9952 75.3116 47.9754 75.4588C47.9339 75.6079 47.9121 75.755 47.9121 75.9242C47.9121 76.0935 47.9339 76.2426 47.9754 76.3897C48.017 76.5167 48.0803 76.6437 48.1416 76.7505C48.2247 76.8573 48.3295 76.9419 48.4541 77.0044C48.5787 77.0668 48.7252 77.1092 48.8913 77.1092C49.0575 77.1092 49.2038 77.0668 49.3502 76.9822C49.4748 76.8976 49.5796 76.7908 49.6409 76.6638H49.6627V77.1092C49.6627 77.3006 49.5796 77.4477 49.455 77.5746C49.3086 77.6814 49.1425 77.7439 48.9565 77.7439C48.7904 77.7439 48.644 77.7238 48.5194 77.6593C48.3948 77.5948 48.3315 77.5102 48.3117 77.3832H48.0209C48.0209 77.488 48.0407 77.5948 48.104 77.6794C48.1455 77.7439 48.2286 77.8064 48.3117 77.8709C48.3948 77.9132 48.4996 77.9555 48.6025 77.9777C48.7073 77.9998 48.8102 77.9999 48.9348 77.9999C49.0377 77.9999 49.1227 77.9998 49.2058 77.9777C49.2691 77.9777 49.3522 77.9354 49.455 77.893C49.5599 77.8507 49.6429 77.7862 49.7043 77.7016C49.7873 77.617 49.8289 77.5323 49.8704 77.4255C49.8902 77.3409 49.912 77.2341 49.912 77.1071C49.9317 77.0023 49.9317 76.8734 49.9317 76.7041V75.2834C49.9317 75.1988 49.9317 75.0497 49.9535 74.8603V74.7756H49.6627V75.1182ZM50.7229 76.4542C50.7229 76.3273 50.7447 76.2426 50.806 76.158C50.8674 76.0935 50.9524 76.0512 51.0553 76.0089C51.1581 75.9666 51.2629 75.9444 51.3876 75.9444C51.4904 75.9444 51.617 75.9444 51.7614 75.9222C51.8445 75.9222 51.8861 75.9222 51.9078 75.9222C51.9078 75.9444 51.9078 75.9645 51.9078 75.9867C51.9276 76.029 51.9276 76.0512 51.9276 76.0714C51.9276 76.1782 51.9078 76.2829 51.886 76.3897C51.8663 76.4965 51.8247 76.5812 51.7812 76.6658C51.7179 76.7505 51.6566 76.8149 51.5518 76.8573C51.4687 76.8996 51.3638 76.9217 51.2194 76.9217C51.073 76.9217 50.9485 76.8794 50.8654 76.8149C50.7645 76.7283 50.7229 76.6013 50.7229 76.4542ZM51.9097 75.6703C51.8682 75.6703 51.7852 75.6703 51.6388 75.6703C51.4726 75.6703 51.3263 75.6925 51.2016 75.6925C51.0968 75.7147 50.9722 75.7348 50.8693 75.7771C50.7447 75.8416 50.6201 75.9263 50.537 76.0532C50.4539 76.16 50.4124 76.3071 50.4124 76.4562C50.4124 76.69 50.4955 76.8593 50.6418 76.9862C50.7882 77.1132 50.9544 77.1777 51.1818 77.1777C51.3282 77.1777 51.4726 77.1575 51.619 77.0709C51.7436 76.9862 51.8484 76.9016 51.9097 76.7948V76.7746H51.9295V77.1132H52.2203C52.2203 77.0709 52.1986 77.0286 52.1986 77.0286C52.1986 76.8371 52.1986 76.7102 52.1986 76.5832V75.4809C52.1986 75.2049 52.1155 75.0154 51.9691 74.8865C51.8445 74.7595 51.6368 74.695 51.3658 74.695C51.1363 74.695 50.9504 74.7595 50.7843 74.8643C50.6379 74.9711 50.5548 75.1404 50.5133 75.3721H50.8041C50.8238 75.2028 50.8871 75.1182 50.992 75.0537C51.075 74.9892 51.2214 74.9469 51.3658 74.9469C51.5319 74.9469 51.6783 74.9892 51.7614 75.0739C51.8445 75.1383 51.9078 75.2653 51.9078 75.4547V75.6703H51.9097ZM53.1797 75.755C53.1797 75.5434 53.2429 75.3519 53.3458 75.1827C53.4704 75.0336 53.6366 74.9489 53.8443 74.9489C54.0322 74.9489 54.1766 75.0134 54.2815 75.1182C54.3863 75.2451 54.4476 75.3943 54.4476 75.6059V77.1112H54.7186V75.6482C54.7186 75.5635 54.7186 75.4567 54.6968 75.352C54.677 75.2673 54.6355 75.1605 54.594 75.0557C54.5307 74.9489 54.4476 74.8643 54.3447 74.8018C54.2201 74.7394 54.0737 74.695 53.9076 74.695C53.7612 74.695 53.6168 74.7373 53.4922 74.8018C53.3676 74.8865 53.2627 74.9933 53.2014 75.1202H53.1797L53.1579 74.7817H52.8869V74.8663C52.9067 75.0577 52.9067 75.2048 52.9067 75.2895V77.1112H53.1777V75.755H53.1797ZM58.1089 75.3943V75.6703H58.9417V76.7726C58.7953 76.8149 58.6707 76.8351 58.5461 76.8573C58.4412 76.8996 58.3166 76.8996 58.2138 76.8996C58.0061 76.8996 57.7984 76.8573 57.652 76.7928C57.4858 76.7283 57.3612 76.6235 57.2564 76.4966C57.1516 76.3696 57.0903 76.2003 57.0487 76.0311C56.9854 75.8396 56.9656 75.6502 56.9656 75.4366C56.9656 75.2451 56.9874 75.0759 57.0289 74.8865C57.0705 74.7172 57.1338 74.5681 57.2168 74.421C57.3197 74.2739 57.4245 74.1671 57.5709 74.0824C57.7173 73.9978 57.8835 73.9555 58.0714 73.9555C58.2791 73.9555 58.467 74.0199 58.6133 74.1247C58.7795 74.2315 58.8626 74.3786 58.8843 74.5701H59.2384C59.2186 74.4431 59.1751 74.3162 59.1138 74.1892C59.0307 74.0824 58.9476 73.9776 58.8428 73.9131C58.7379 73.8285 58.6133 73.764 58.469 73.7439C58.3443 73.7016 58.198 73.6794 58.0733 73.6794C57.8439 73.6794 57.6362 73.7217 57.4483 73.8285C57.2821 73.9131 57.1357 74.0623 57.0111 74.2315C56.8865 74.3807 56.8034 74.5701 56.7401 74.7817C56.6769 74.9933 56.657 75.2048 56.657 75.4386C56.657 75.6925 56.6769 75.9263 56.7401 76.1379C56.8034 76.3494 56.9063 76.5409 57.0309 76.69C57.1358 76.8593 57.3019 76.9661 57.4681 77.0507C57.656 77.1354 57.8419 77.1777 58.0714 77.1777C58.2791 77.1777 58.4868 77.1777 58.6747 77.1353C58.8626 77.093 59.0485 77.0507 59.2582 76.9661V75.3983H58.1089V75.3943ZM61.709 75.9444C61.709 76.0512 61.6872 76.1782 61.6674 76.2829C61.6259 76.4099 61.5844 76.4945 61.5211 76.6013C61.4578 76.7081 61.3747 76.7706 61.2718 76.8351C61.1887 76.8996 61.0641 76.9197 60.9395 76.9197C60.7931 76.9197 60.6903 76.8976 60.5854 76.8351C60.4806 76.7726 60.4193 76.7081 60.356 76.6013C60.2927 76.4966 60.2314 76.4099 60.2096 76.2829C60.1681 76.1761 60.1681 76.0492 60.1681 75.9444C60.1681 75.8175 60.1681 75.7107 60.2096 75.6059C60.2314 75.4789 60.2927 75.3721 60.356 75.2875C60.4193 75.1807 60.4806 75.096 60.5854 75.0537C60.6883 74.9892 60.7931 74.9469 60.9395 74.9469C61.0641 74.9469 61.1887 74.9892 61.2718 75.0537C61.3767 75.096 61.4597 75.1807 61.5211 75.2875C61.5844 75.3721 61.6259 75.4789 61.6674 75.6059C61.6892 75.7127 61.709 75.8175 61.709 75.9444ZM60.9395 74.695C60.7516 74.695 60.6072 74.7373 60.4609 74.8018C60.3362 74.8663 60.2116 74.9711 60.1285 75.0779C60.0454 75.2049 59.9821 75.3318 59.9406 75.4809C59.8773 75.628 59.8575 75.7772 59.8575 75.9464C59.8575 76.0935 59.8773 76.2648 59.9406 76.3918C59.9821 76.5409 60.0454 76.688 60.1285 76.7948C60.2116 76.9217 60.3362 77.0064 60.4609 77.0709C60.6072 77.1555 60.7516 77.1777 60.9395 77.1777C61.1057 77.1777 61.2718 77.1575 61.3965 77.0709C61.5428 77.0084 61.6457 76.9238 61.7505 76.7948C61.8336 76.688 61.8969 76.5409 61.9384 76.3918C61.98 76.2648 61.9997 76.0955 61.9997 75.9464C61.9997 75.7772 61.98 75.628 61.9384 75.4809C61.8969 75.3318 61.8336 75.2049 61.7505 75.0779C61.6457 74.9731 61.5428 74.8663 61.3965 74.8018C61.2718 74.7373 61.1057 74.695 60.9395 74.695ZM64.5178 76.0089C64.5178 75.8175 64.496 75.6482 64.4565 75.4789C64.4149 75.3298 64.3517 75.1827 64.2686 75.0759C64.1855 74.9489 64.0806 74.8643 63.9362 74.7998C63.8116 74.7373 63.6455 74.693 63.4576 74.693C63.2914 74.693 63.145 74.7353 63.0204 74.7998C62.8958 74.8643 62.791 74.9489 62.6881 75.0759C62.605 75.1827 62.5417 75.3298 62.5002 75.4789C62.4586 75.626 62.4369 75.7751 62.4369 75.9444C62.4369 76.0915 62.4586 76.2628 62.5002 76.4099C62.5417 76.559 62.605 76.686 62.6881 76.8129C62.7712 76.9197 62.876 77.0044 63.0006 77.089C63.1252 77.1535 63.2716 77.1736 63.4378 77.1736C63.9995 77.1736 64.3536 76.8976 64.4782 76.3676H64.1874C64.1657 76.5167 64.0826 76.6638 63.96 76.7706C63.8354 76.8754 63.689 76.9197 63.5426 76.9197C63.2716 76.9197 63.0639 76.8351 62.9393 76.6658C62.8147 76.4966 62.7514 76.285 62.7316 76.0089H64.5178ZM62.7494 75.755C62.7712 75.5212 62.8325 75.3318 62.9571 75.1827C63.0817 75.0336 63.2479 74.9489 63.4576 74.9489C63.687 74.9489 63.8729 75.0336 63.9995 75.1827C64.1242 75.3096 64.2072 75.5011 64.2072 75.755H62.7494ZM65.038 75.352C65.038 75.4588 65.0598 75.5434 65.1013 75.6059C65.1429 75.6905 65.1844 75.755 65.2674 75.7973C65.3307 75.8396 65.3921 75.8819 65.4751 75.9021C65.5582 75.9243 65.6413 75.9444 65.7659 75.9867C65.7877 75.9867 65.8075 75.9867 65.849 76.0089C65.9539 76.0311 66.0369 76.0512 66.0983 76.0714C66.1813 76.0915 66.2446 76.1137 66.3059 76.1338C66.3692 76.1761 66.4108 76.2185 66.4523 76.2608C66.4721 76.3233 66.4939 76.3877 66.4939 76.4522C66.4939 76.6013 66.4306 76.7283 66.3277 76.8129C66.2031 76.8774 66.0567 76.9197 65.8906 76.9197C65.7244 76.9197 65.578 76.8976 65.4534 76.8129C65.3288 76.7505 65.2655 76.6437 65.2655 76.4744H64.953C64.9747 76.6013 64.9945 76.7081 65.036 76.7928C65.0993 76.8774 65.1607 76.9621 65.2437 77.0265C65.3268 77.0689 65.4099 77.1112 65.5147 77.1333C65.6195 77.1756 65.7224 77.1757 65.8272 77.1757C65.9519 77.1757 66.0765 77.1756 66.1813 77.1333C66.3059 77.1112 66.4108 77.0487 66.4939 76.9842C66.5769 76.9217 66.66 76.8573 66.7233 76.7505C66.7648 76.6658 66.7846 76.5389 66.7846 76.4119C66.7846 76.285 66.7649 76.1782 66.6818 76.0734C66.6185 75.9887 66.5156 75.9041 66.4108 75.8618C66.2861 75.8195 66.12 75.7771 65.8906 75.7147C65.7026 75.6724 65.5583 75.63 65.4534 75.5656C65.3703 75.5232 65.3288 75.4386 65.3288 75.3318C65.3288 75.2048 65.3901 75.1202 65.4949 75.0557C65.5998 74.9912 65.7027 74.9489 65.849 74.9489C66.0152 74.9489 66.1398 74.9912 66.2446 75.0557C66.3495 75.1202 66.4108 75.2048 66.4325 75.352H66.7233C66.7035 75.1182 66.6185 74.9489 66.4741 74.8441C66.3277 74.7595 66.12 74.695 65.8925 74.695C65.7679 74.695 65.6848 74.7172 65.58 74.7373C65.4752 74.7575 65.3921 74.7998 65.309 74.8421C65.2259 74.9066 65.1626 74.9691 65.1211 75.0537C65.0598 75.1404 65.038 75.2452 65.038 75.352ZM69.0732 77.1112V75.5011H70.8633V77.1112H71.1541V73.7419H70.8633V75.225H69.0732V73.7419H68.7607V77.1112H69.0732ZM73.9214 76.0089C73.9214 75.8175 73.9016 75.6482 73.8601 75.4789C73.8185 75.3298 73.7552 75.1827 73.6721 75.0759C73.6108 74.9489 73.4862 74.8643 73.3596 74.7998C73.2133 74.7373 73.0471 74.693 72.8809 74.693C72.7148 74.693 72.5684 74.7353 72.422 74.7998C72.2974 74.8643 72.1946 74.9489 72.1095 75.0759C72.0264 75.1827 71.9631 75.3298 71.9018 75.4789C71.8603 75.626 71.8385 75.7751 71.8385 75.9444C71.8385 76.0915 71.8603 76.2628 71.9018 76.4099C71.9433 76.559 72.0066 76.686 72.0897 76.8129C72.1728 76.9197 72.2776 77.0044 72.422 77.089C72.5467 77.1535 72.693 77.1736 72.8592 77.1736C73.3992 77.1736 73.7533 76.8976 73.8996 76.3676H73.6089C73.5673 76.5167 73.4842 76.6638 73.3596 76.7706C73.235 76.8754 73.1104 76.9197 72.9442 76.9197C72.6732 76.9197 72.4873 76.8351 72.3409 76.6658C72.2163 76.4966 72.153 76.285 72.153 76.0089H73.9214ZM72.153 75.755C72.1728 75.5212 72.2578 75.3318 72.3824 75.1827C72.5071 75.0336 72.6732 74.9489 72.8809 74.9489C73.1104 74.9489 73.2765 75.0336 73.4012 75.1827C73.5258 75.3096 73.6088 75.5011 73.6306 75.755H72.153ZM74.7957 75.7127C74.8174 75.4789 74.859 75.2895 74.9836 75.1605C75.0884 75.0336 75.2328 74.9489 75.4405 74.9489C75.4623 74.9489 75.4821 74.9711 75.5454 74.9711C75.5671 74.9711 75.5869 74.9711 75.6067 74.9711V74.695C75.5869 74.695 75.5651 74.695 75.5236 74.695C75.4603 74.695 75.399 74.695 75.3357 74.695C75.2111 74.695 75.1062 74.7373 75.0231 74.822C74.9183 74.9066 74.857 74.9912 74.8154 75.1182H74.7937V74.7796H74.5029C74.5029 74.822 74.5029 74.8421 74.5029 74.8643C74.5227 75.0336 74.5227 75.1827 74.5227 75.2875V77.1092H74.7937V75.7127H74.7957ZM78.0001 76.0089C78.0001 75.8175 77.9783 75.6482 77.9368 75.4789C77.8953 75.3298 77.832 75.1827 77.7489 75.0759C77.6658 74.9489 77.561 74.8643 77.4166 74.7998C77.292 74.7373 77.1258 74.693 76.9379 74.693C76.7717 74.693 76.6254 74.7353 76.5007 74.7998C76.3761 74.8643 76.2515 74.9489 76.1684 75.0759C76.0854 75.1827 76.0221 75.3298 75.9805 75.4789C75.939 75.626 75.9192 75.7751 75.9192 75.9444C75.9192 76.0915 75.939 76.2628 75.9805 76.4099C76.0221 76.559 76.0854 76.686 76.1684 76.8129C76.2515 76.9197 76.3564 77.0044 76.481 77.089C76.6056 77.1535 76.752 77.1736 76.9181 77.1736C77.4799 77.1736 77.834 76.8976 77.9586 76.3676H77.6678C77.648 76.5167 77.5649 76.6638 77.4383 76.7706C77.3137 76.8754 77.1673 76.9197 77.0012 76.9197C76.752 76.9197 76.5443 76.8351 76.4177 76.6658C76.2931 76.4966 76.21 76.285 76.21 76.0089H78.0001ZM76.2318 75.755C76.2515 75.5212 76.3148 75.3318 76.4394 75.1827C76.564 75.0336 76.7302 74.9489 76.9379 74.9489C77.1673 74.9489 77.3533 75.0336 77.4779 75.1827C77.6025 75.3096 77.6658 75.5011 77.6856 75.755H76.2318Z" fill="#04CE78"></path><path d="M46.9784 31.6458H58.4214C58.9614 31.6458 59.6062 31.285 60.1284 30.7551C60.6269 30.2251 61.0028 29.5883 61.0028 29.016V21.1126C61.0028 20.5403 60.6486 19.8834 60.1284 19.3534C59.6082 18.8456 58.9634 18.4627 58.4214 18.4627H48.0604V21.1126C48.0604 24.2703 46.3751 27.5772 43.9204 30.078C41.4656 32.5788 38.2197 34.2957 35.1201 34.2957H32.519V44.851C32.519 45.4031 32.8928 46.06 33.3933 46.59C33.9135 47.12 34.5583 47.4807 35.1201 47.4807H42.8799C43.3784 47.4807 43.9817 47.0575 44.4822 46.4852C45.0637 45.8505 45.4593 45.0646 45.4593 44.4499V32.9616C45.4593 32.2201 46.0428 31.6256 46.7707 31.6256C46.834 31.6256 46.9171 31.6256 46.9784 31.6458ZM58.4214 34.2957H48.0604V44.4479C48.0604 45.7417 47.3938 47.1825 46.4167 48.2848C45.4593 49.3447 44.1696 50.1286 42.8799 50.1286H35.1201C33.8304 50.1286 32.519 49.4495 31.5636 48.454C30.5864 47.4787 29.9198 46.1447 29.9198 44.851V34.2957H19.5806C18.3325 34.2957 17.0626 33.6589 16.1052 32.7057L16.0221 32.6412C15.0648 31.6458 14.4001 30.3097 14.4001 29.016V21.1126C14.4001 19.7987 15.0667 18.4627 16.0221 17.4874C16.9993 16.4919 18.3107 15.8128 19.5806 15.8128H29.9198V5.27765C29.9198 3.98393 30.5864 2.64991 31.5636 1.65242C32.5407 0.677089 33.8304 0 35.1201 0H42.8799C44.1063 0 45.3762 0.636787 46.3554 1.58995L46.4167 1.65443C47.3958 2.64991 48.0604 3.98595 48.0604 5.27967V15.8148H58.4214C59.6913 15.8148 61.0007 16.4919 61.9581 17.4894C62.9353 18.4849 63.6019 19.7987 63.6019 21.1146V29.02C63.6019 30.3137 62.9353 31.6478 61.9581 32.6453V32.6251C60.981 33.6186 59.6913 34.2957 58.4214 34.2957ZM45.4593 18.4627H32.519V31.6458H35.1201C37.4918 31.6458 40.0731 30.2251 42.0689 28.1898C44.0667 26.1545 45.4593 23.5268 45.4593 21.1106V18.4627ZM29.9178 18.4627H19.5786C19.0169 18.4627 18.3918 18.8436 17.8736 19.3736C17.3534 19.8814 16.9993 20.5403 16.9993 21.1126V29.018C16.9993 29.5903 17.3534 30.2271 17.8736 30.7571L17.9151 30.8195C18.4353 31.3072 19.0386 31.6458 19.5786 31.6458H29.9178V18.4627ZM32.519 15.8128H45.4593V5.27765C45.4593 4.70535 45.1053 4.06857 44.585 3.53859L44.5237 3.4741C44.0233 2.98644 43.4199 2.6479 42.8799 2.6479H35.1201C34.5583 2.6479 33.9135 3.00861 33.3933 3.53859C32.8948 4.06857 32.519 4.70535 32.519 5.27765V15.8128Z" fill="#04CE78"></path></svg>