<svg xmlns="http://www.w3.org/2000/svg" width="60" height="60" viewBox="0 0 60 60" fill="none"><g clip-path="url(#clip0_242_1169)"><path fill-rule="evenodd" clip-rule="evenodd" d="M53.6484 57.3047C53.6484 57.75 53.2852 58.1133 52.8398 58.1133H31.7812L39.668 45.3984L42.1172 45.457C42.7031 45.4805 43.1484 44.9531 43.0664 44.3789L42.0117 37.9219L43.9687 38.4961C43.9805 38.6719 43.9922 46.1836 43.9922 46.1836C41.625 46.6406 39.832 48.7266 39.832 51.2227C39.832 54.0469 42.1289 56.3555 44.9648 56.3555C47.7891 56.3555 50.0977 54.0586 50.0977 51.2227C50.0977 48.7031 48.2695 46.5937 45.8672 46.1719V39.0586L53.0742 41.168C53.4375 41.2734 53.6602 41.5664 53.6602 41.9414V57.3047H53.6484Z" fill="white"></path><path fill-rule="evenodd" clip-rule="evenodd" d="M24.9258 38.8242C26.2734 40.0664 28.0664 40.8047 30 40.8047C31.9336 40.8047 33.7266 40.0664 35.0742 38.8242L30 55.7813L24.9258 38.8242Z" fill="#1F5FFF"></path><path fill-rule="evenodd" clip-rule="evenodd" d="M7.14844 58.1133C6.70313 58.1133 6.33984 57.75 6.33984 57.3047V41.9297C6.33984 41.5547 6.5625 41.2617 6.91406 41.1563L14.1211 39.0469V46.2773C12.2578 46.6875 10.8633 48.3516 10.8633 50.3438V55.5703C10.8633 56.0859 11.2852 56.5078 11.8008 56.5078H13.0312C14.2617 56.5078 14.2617 54.6328 13.0312 54.6328H12.7383V50.332C12.7383 49.0664 13.7695 48.0469 15.0234 48.0469C16.2891 48.0469 17.3203 49.0781 17.3203 50.332V54.6328H16.957C15.7266 54.6328 15.7266 56.5078 16.957 56.5078H18.2578C18.7734 56.5078 19.1953 56.0859 19.1953 55.5703V50.3438C19.1953 48.3867 17.8359 46.7344 16.0078 46.3008C16.0078 43.8047 15.8672 40.9453 16.0313 38.4961L18 37.9219L16.9336 44.3789C16.8867 44.6484 16.9687 44.9297 17.1562 45.1406C17.3437 45.3516 17.6016 45.4687 17.8828 45.457L20.332 45.3984L28.2305 58.1133H7.14844Z" fill="white"></path><path fill-rule="evenodd" clip-rule="evenodd" d="M27.1758 52.8867L21.6328 43.9688C21.457 43.6875 21.1523 43.5234 20.8125 43.5234L18.9609 43.5703L19.9922 37.3359L22.3125 36.6562L27.1758 52.8867Z" fill="#04CE78"></path><path fill-rule="evenodd" clip-rule="evenodd" d="M20.6367 19.8515V17.0156L23.918 12.8554C24.1523 12.5508 24.5391 12.457 24.8789 12.6093C28.6875 14.2968 34.3125 13.8515 39.2812 13.4531L39.3516 19.8633C39.3516 25.0195 35.1562 29.2265 29.9883 29.2265C24.8437 29.2031 20.6367 25.0078 20.6367 19.8515Z" fill="#FECEA4"></path><path fill-rule="evenodd" clip-rule="evenodd" d="M19.3242 7.19527C19.9687 6.32808 20.9531 5.88277 22.1132 5.88277C22.582 5.88277 23.0742 5.95308 23.5781 6.10542C24.5624 6.38667 25.1367 5.80074 25.4414 5.48433C29.0039 1.92183 35.4492 0.187456 39.3164 4.16011C41.6835 6.58589 42.7734 10.8515 41.1796 14.5312L41.1562 12.4453C41.1562 12.1875 41.039 11.9414 40.8515 11.7656C40.664 11.5898 40.4062 11.5078 40.1484 11.5195C36.0117 11.8476 29.4257 12.5859 25.6523 10.9101C24.5156 10.4062 23.2382 10.7226 22.4648 11.707L19.8398 15.0468C17.8945 11.3554 18.2929 8.55464 19.3242 7.19527Z" fill="#7C7C7C"></path><path fill-rule="evenodd" clip-rule="evenodd" d="M17.9414 20.5195V18.7031C17.9414 18.2343 18.4453 18.2929 18.7617 18.2929C18.7617 18.2929 18.7852 20.5781 18.8086 20.9297C18.4922 20.9297 17.9414 21 17.9414 20.5195Z" fill="#FECEA4"></path><path fill-rule="evenodd" clip-rule="evenodd" d="M42 20.5195C42 20.9882 41.5078 20.9296 41.1914 20.9296C41.2266 20.5781 41.2266 18.2929 41.2266 18.2929C41.5312 18.2929 42 18.246 42 18.7031V20.5195Z" fill="#FECEA4"></path><path fill-rule="evenodd" clip-rule="evenodd" d="M41.0391 43.5586L39.1875 43.5117C38.8594 43.5 38.543 43.6758 38.3672 43.957L32.8359 52.8633L37.6992 36.6328L40.0195 37.3125L41.0391 43.5586Z" fill="#04CE78"></path><path fill-rule="evenodd" clip-rule="evenodd" d="M25.8633 30.293C27.1406 30.8086 28.5469 31.0781 30 31.0781C31.4648 31.0781 32.8594 30.7969 34.1367 30.293C34.0078 31.8164 34.418 33.3984 35.3438 35.0156C34.6055 37.3359 32.4609 38.918 30 38.918C27.5391 38.918 25.3945 37.3242 24.6562 35.0156C25.582 33.4102 25.9805 31.8164 25.8633 30.293Z" fill="#FECEA4"></path><path fill-rule="evenodd" clip-rule="evenodd" d="M48.2227 51.2109C48.2227 53.0039 46.7578 54.4688 44.9648 54.4688C43.1719 54.4688 41.707 53.0039 41.707 51.2109C41.707 49.418 43.1719 47.9531 44.9648 47.9531C46.7695 47.9414 48.2227 49.4063 48.2227 51.2109Z" fill="#7C7C7C"></path><path fill-rule="evenodd" clip-rule="evenodd" d="M44.9648 50.6719C45.2578 50.6719 45.4922 50.9063 45.4922 51.2109C45.4922 51.5039 45.2578 51.7383 44.9648 51.7383C44.6719 51.7383 44.4258 51.5039 44.4258 51.2109C44.4375 50.918 44.6719 50.6719 44.9648 50.6719Z" fill="#04CE78"></path><path fill-rule="evenodd" clip-rule="evenodd" d="M44.9648 53.6133C46.2891 53.6133 47.3672 52.5352 47.3672 51.2109C47.3672 49.8867 46.2891 48.7969 44.9648 48.7969C43.6406 48.7969 42.5508 49.875 42.5508 51.2109C42.5625 52.5352 43.6406 53.6133 44.9648 53.6133Z" fill="white"></path><path fill-rule="evenodd" clip-rule="evenodd" d="M44.9648 53.6133C46.2891 53.6133 47.3672 52.5352 47.3672 51.2109C47.3672 49.8867 46.2891 48.7969 44.9648 48.7969C43.6406 48.7969 42.5508 49.875 42.5508 51.2109C42.5625 52.5352 43.6406 53.6133 44.9648 53.6133ZM44.9648 50.6719C45.2578 50.6719 45.4922 50.9063 45.4922 51.2109C45.4922 51.5039 45.2578 51.7383 44.9648 51.7383C44.6719 51.7383 44.4258 51.5039 44.4258 51.2109C44.4375 50.918 44.6719 50.6719 44.9648 50.6719Z" fill="#000D44"></path><path fill-rule="evenodd" clip-rule="evenodd" d="M55.5234 57.3047V41.9297C55.5234 40.7344 54.75 39.7031 53.6016 39.3633L45.6797 37.043C45.3164 35.0742 44.4141 33.1992 43.0547 31.6289C41.5547 29.9062 39.6445 28.6992 37.582 28.1601C39.1289 26.7422 40.2773 24.9023 40.8398 22.8164H41.5898C42.8438 22.8164 43.875 21.7969 43.875 20.5312V18.7148C43.875 17.6836 43.1953 16.8164 42.2578 16.5351C44.8242 12.2578 44.1562 6.4453 40.6641 2.85936C35.9531 -1.98049 28.3945 -0.105486 24.0117 4.27733C21.4922 3.58592 19.1953 4.26561 17.8242 6.08201C15.9609 8.56639 16.2188 12.4805 18.457 16.4297C17.1445 16.4297 16.0781 17.3789 16.0781 18.7148V20.5312C16.0781 21.7969 17.0977 22.8164 18.3633 22.8164H19.1602C19.7227 24.8906 20.8711 26.7305 22.418 28.1601C20.3438 28.7109 18.4336 29.9062 16.9453 31.6289C15.5859 33.1992 14.6836 35.0742 14.3203 37.043L6.41016 39.3633C5.26172 39.7031 4.48828 40.7344 4.48828 41.9297V57.3164C4.48828 58.793 5.69531 60 7.16016 60H52.8633C54.3164 59.9883 55.5234 58.7812 55.5234 57.3047ZM48.2227 51.2109C48.2227 53.0039 46.7578 54.4687 44.9648 54.4687C43.1719 54.4687 41.707 53.0039 41.707 51.2109C41.707 49.418 43.1719 47.9531 44.9648 47.9531C46.7695 47.9414 48.2227 49.4062 48.2227 51.2109ZM43.6055 36.4219C43.6055 36.4219 37.3711 34.6055 37.2773 34.582C36.1641 32.8594 35.7773 31.2656 36.1289 29.7539C39.6094 30.2226 42.5742 33.0117 43.6055 36.4219ZM25.8633 30.293C27.1406 30.8086 28.5469 31.0781 30 31.0781C31.4648 31.0781 32.8594 30.7969 34.1367 30.293C34.0078 31.8164 34.418 33.3984 35.3438 35.0156C34.6055 37.3359 32.4609 38.918 30 38.918C27.5391 38.918 25.3945 37.3242 24.6562 35.0156C25.582 33.4101 25.9805 31.8164 25.8633 30.293ZM41.0391 43.5586L39.1875 43.5117C38.8594 43.5 38.543 43.6758 38.3672 43.957L32.8359 52.8633L37.6992 36.6328L40.0195 37.3125L41.0391 43.5586ZM42 20.5195C42 20.9883 41.5078 20.9297 41.1914 20.9297C41.2266 20.5781 41.2266 18.293 41.2266 18.293C41.5312 18.293 42 18.2461 42 18.7031V20.5195ZM17.9414 20.5195V18.7031C17.9414 18.2344 18.4453 18.293 18.7617 18.293C18.7617 18.293 18.7852 20.5781 18.8086 20.9297C18.4922 20.9297 17.9414 21 17.9414 20.5195ZM19.3242 7.1953C19.9687 6.32811 20.9531 5.8828 22.1133 5.8828C22.582 5.8828 23.0742 5.95311 23.5781 6.10545C24.5625 6.3867 25.1367 5.80076 25.4414 5.48436C29.0039 1.92186 35.4492 0.187483 39.3164 4.16014C41.6836 6.58592 42.7734 10.8515 41.1797 14.5312L41.1563 12.4453C41.1563 12.1875 41.0391 11.9414 40.8516 11.7656C40.6641 11.5898 40.4063 11.5078 40.1484 11.5195C36.0117 11.8476 29.4258 12.5859 25.6523 10.9101C24.5156 10.4062 23.2383 10.7226 22.4648 11.707L19.8398 15.0469C17.8945 11.3555 18.293 8.55467 19.3242 7.1953ZM20.6367 19.8515V17.0156L23.918 12.8555C24.1523 12.5508 24.5391 12.457 24.8789 12.6094C28.6875 14.2969 34.3125 13.8515 39.2813 13.4531L39.3516 19.8633C39.3516 25.0195 35.1562 29.2265 29.9883 29.2265C24.8437 29.2031 20.6367 25.0078 20.6367 19.8515ZM23.8828 29.7539C24.2344 31.2656 23.8477 32.8594 22.7344 34.582C22.6406 34.5937 16.4062 36.4219 16.4062 36.4219C17.4141 33.0117 20.3906 30.2226 23.8828 29.7539ZM27.1758 52.8867L21.6328 43.9687C21.457 43.6875 21.1523 43.5234 20.8125 43.5234L18.9609 43.5703L19.9922 37.3359L22.3125 36.6562L27.1758 52.8867ZM7.14844 58.1133C6.70312 58.1133 6.33984 57.75 6.33984 57.3047V41.9297C6.33984 41.5547 6.5625 41.2617 6.91406 41.1562L14.1211 39.0469V46.2773C12.2578 46.6875 10.8633 48.3516 10.8633 50.3437V55.5703C10.8633 56.0859 11.2852 56.5078 11.8008 56.5078H13.0312C14.2617 56.5078 14.2617 54.6328 13.0312 54.6328H12.7383V50.332C12.7383 49.0664 13.7695 48.0469 15.0234 48.0469C16.2891 48.0469 17.3203 49.0781 17.3203 50.332V54.6328H16.957C15.7266 54.6328 15.7266 56.5078 16.957 56.5078H18.2578C18.7734 56.5078 19.1953 56.0859 19.1953 55.5703V50.3437C19.1953 48.3867 17.8359 46.7344 16.0078 46.3008C16.0078 43.8047 15.8672 40.9453 16.0312 38.4961L18 37.9219L16.9336 44.3789C16.8867 44.6484 16.9687 44.9297 17.1562 45.1406C17.3437 45.3516 17.6016 45.4687 17.8828 45.457L20.332 45.3984L28.2305 58.1133H7.14844ZM24.9258 38.8242C26.2734 40.0664 28.0664 40.8047 30 40.8047C31.9336 40.8047 33.7266 40.0664 35.0742 38.8242L30 55.7812L24.9258 38.8242ZM53.6484 57.3047C53.6484 57.75 53.2852 58.1133 52.8398 58.1133H31.7813L39.668 45.3984L42.1172 45.457C42.7031 45.4805 43.1484 44.9531 43.0664 44.3789L42.0117 37.9219L43.9688 38.4961C43.9805 38.6719 43.9922 46.1836 43.9922 46.1836C41.625 46.6406 39.832 48.7266 39.832 51.2226C39.832 54.0469 42.1289 56.3555 44.9648 56.3555C47.7891 56.3555 50.0977 54.0586 50.0977 51.2226C50.0977 48.7031 48.2695 46.5937 45.8672 46.1719V39.0586L53.0742 41.168C53.4375 41.2734 53.6602 41.5664 53.6602 41.9414V57.3047H53.6484Z" fill="#000D44"></path></g><defs><clipPath id="clip0_242_1169"><rect width="60" height="60" fill="white"></rect></clipPath></defs></svg>