<svg xmlns="http://www.w3.org/2000/svg" width="60" height="60" viewBox="0 0 60 60" fill="none"><g clip-path="url(#clip0_244_1302)"><path d="M26.9204 0.878906C12.5381 0.878906 0.878906 12.5381 0.878906 26.9205C0.878906 33.3101 3.18141 39.1609 7.0002 43.692H3.95648C2.91047 43.692 2.0625 44.5399 2.0625 45.5859C2.0625 46.632 2.91047 47.4799 3.95648 47.4799H11.5322C12.5782 47.4799 13.4262 46.632 13.4262 45.5859V38.0102C13.4262 36.9642 12.5782 36.1162 11.5322 36.1162C10.4862 36.1162 9.6382 36.9642 9.6382 38.0102V40.9234C6.53145 37.0964 4.66664 32.2226 4.66664 26.9207C4.66664 14.65 14.6496 4.66688 26.9204 4.66688C39.1912 4.66688 49.1742 14.6497 49.1742 26.9205H52.9621C52.9621 12.5381 41.3029 0.878906 26.9204 0.878906Z" fill="#1F5FFF"></path><path d="M50.5343 15.9306C49.7127 16.2345 48.9591 16.714 48.3211 17.3519L47.4177 18.2553C48.5485 20.9197 49.1742 23.8484 49.1742 26.9204H52.9621C52.9621 22.9931 52.091 19.2699 50.5343 15.9306Z" fill="#1F5FFF"></path><path d="M25.8893 45.1405L20.0303 50.9995C19.1058 51.924 19.1058 53.4231 20.0303 54.3476L23.413 57.7303C24.6851 59.0024 26.5672 59.4436 28.2723 58.8697C31.9028 57.6477 38.5588 54.4997 46.5293 46.5292C54.4998 38.5587 57.6478 31.9027 58.8699 28.2722C59.4438 26.5671 59.0026 24.685 57.7304 23.4129L54.3477 20.0302C53.4232 19.1057 51.9241 19.1057 50.9997 20.0302L45.1406 25.8892C44.2161 26.8137 44.2161 28.3127 45.1406 29.2372L46.4025 30.4991C46.852 30.9486 46.9484 31.641 46.6384 32.196C45.677 33.9171 43.4329 37.6411 40.537 40.5369C37.6412 43.4327 33.9172 45.6769 32.1961 46.6383C31.6411 46.9482 30.9488 46.8519 30.4992 46.4024L29.2374 45.1405C28.3127 44.216 26.8138 44.216 25.8893 45.1405Z" fill="#04CE78"></path><path d="M57.7304 23.4129L55.5434 21.2258C56.8154 22.4979 57.2566 24.38 56.6827 26.0851C55.4606 29.7156 52.3126 36.3716 44.3421 44.3421C36.3716 52.3126 29.7156 55.4606 26.0851 56.6827C24.38 57.2566 22.4979 56.8154 21.2258 55.5433L23.413 57.7304C24.6851 59.0025 26.5672 59.4437 28.2723 58.8699C31.9028 57.6478 38.5588 54.4998 46.5293 46.5293C54.4998 38.5588 57.6478 31.9028 58.8699 28.2723C59.4437 26.5672 59.0025 24.6851 57.7304 23.4129Z" fill="#04CE78"></path><path d="M2.43621 36.6871C2.53594 36.6871 2.6373 36.67 2.73633 36.634C3.19254 36.4682 3.42785 35.964 3.26215 35.5078C2.26383 32.7613 1.7577 29.8724 1.7577 26.9211C1.7577 20.1997 4.3752 13.8807 9.12785 9.12797C13.8805 4.3752 20.1996 1.75781 26.921 1.75781C32.3164 1.75781 37.4592 3.44039 41.7935 6.62367C42.1847 6.91102 42.7348 6.82676 43.0221 6.43559C43.3095 6.04441 43.2252 5.49434 42.834 5.20699C38.1959 1.80059 32.6932 0 26.921 0C19.73 0 12.9696 2.80031 7.88496 7.88496C2.80031 12.9696 0 19.7302 0 26.921C0 30.0777 0.541758 33.1687 1.61016 36.1082C1.74 36.4652 2.07703 36.6871 2.43621 36.6871Z" fill="#000D44"></path><path d="M58.3514 22.7912L54.9696 19.4094C54.3565 18.7963 53.5411 18.4586 52.6737 18.4586C52.6105 18.4586 52.5477 18.4609 52.4851 18.4644C51.1861 14.5399 48.97 10.9263 46.0433 7.97298C45.7017 7.62822 45.1452 7.62576 44.8004 7.96736C44.4557 8.30896 44.4532 8.86548 44.7948 9.21025C47.5362 11.9765 49.61 15.3618 50.8229 19.0375C50.6655 19.1472 50.5163 19.2708 50.3777 19.4093L49.1768 20.6102C47.8942 16.1078 45.2373 12.0441 41.583 9.04197C37.4595 5.65419 32.2523 3.78845 26.9209 3.78845C14.1655 3.78845 3.78832 14.1656 3.78832 26.921C3.78832 32.2029 5.62348 37.3726 8.95559 41.4779C9.19008 41.7668 9.5809 41.8767 9.93188 41.7524C10.2825 41.6281 10.5169 41.2962 10.5169 40.9241V38.011C10.5169 37.4514 10.9721 36.9962 11.5317 36.9962C12.0919 36.9962 12.5476 37.4515 12.5476 38.011V45.5867C12.5476 46.1462 12.0919 46.6015 11.5317 46.6015H3.95602C3.39645 46.6015 2.94129 46.1462 2.94129 45.5867C2.94129 45.0271 3.39656 44.5719 3.95602 44.5719H7.00043C7.34238 44.5719 7.65316 44.3736 7.79742 44.0636C7.94156 43.7535 7.8927 43.388 7.67238 43.1265C6.62227 41.881 5.69086 40.5301 4.90395 39.1115C4.66852 38.687 4.13367 38.5338 3.7091 38.7693C3.28465 39.0047 3.13148 39.5397 3.36691 39.9641C3.91289 40.9483 4.52379 41.902 5.19211 42.8141H3.95602C2.4273 42.8141 1.18359 44.0578 1.18359 45.5865C1.18359 47.1154 2.4273 48.3591 3.95602 48.3591H11.5317C13.0611 48.3591 14.3053 47.1154 14.3053 45.5865V38.011C14.3053 36.4822 13.0611 35.2385 11.5317 35.2385C10.0029 35.2385 8.75918 36.4822 8.75918 38.011V38.1754C6.67371 34.8109 5.54613 30.9003 5.54613 26.9211C5.54613 15.135 15.1348 5.54626 26.921 5.54626C31.8465 5.54626 36.6574 7.27009 40.4673 10.4002C44.1035 13.3875 46.6718 17.5103 47.7361 22.0511L44.5187 25.2685C43.9056 25.8816 43.5678 26.6967 43.5678 27.5638C43.5678 28.4309 43.9056 29.246 44.5187 29.8592L45.7815 31.122C45.9517 31.2917 45.9882 31.5572 45.8702 31.7681C45.5459 32.3493 45.0127 33.2683 44.3146 34.3459C44.0507 34.7533 44.167 35.2975 44.5744 35.5614C44.9818 35.8253 45.5259 35.709 45.7898 35.3016C46.5138 34.1838 47.0679 33.229 47.4047 32.6255C47.7543 32.0002 47.7818 31.2602 47.52 30.6246L55.6095 22.5352L57.1085 24.0342C58.1512 25.0771 58.507 26.5937 58.0372 27.9919C55.4822 35.581 49.3407 42.474 45.9073 45.9075C42.4738 49.341 35.5807 55.4824 27.9921 58.0374C26.5935 58.5074 25.0768 58.1517 24.034 57.1089L22.5349 55.6098L30.6245 47.5203C31.2604 47.7821 31.9999 47.7546 32.625 47.4053C34.5593 46.3248 38.24 44.0766 41.1587 41.1591C41.8852 40.4328 42.6204 39.6061 43.3443 38.7024C43.6477 38.3235 43.5865 37.7705 43.2076 37.4671C42.8287 37.1637 42.2756 37.2249 41.9723 37.6037C41.2887 38.4573 40.5968 39.2353 39.9161 39.9162C37.0443 42.7868 33.2611 45.0367 31.7675 45.8711C31.5573 45.9888 31.2916 45.9522 31.1211 45.7812L29.8591 44.5192C29.246 43.9061 28.4309 43.5683 27.5638 43.5683C26.6967 43.5683 25.8816 43.9061 25.2684 44.5192L19.4094 50.3781C18.7963 50.9912 18.4586 51.8066 18.4586 52.6742C18.4586 53.5416 18.7963 54.357 19.4094 54.9701L22.7912 58.352C23.8664 59.4272 25.2872 60.0006 26.7483 60.0005C27.3499 60.0005 27.9587 59.9031 28.5525 59.7035C30.9994 58.8798 33.5848 57.6259 36.2368 55.9769C39.8984 53.7001 43.5702 50.7306 47.1502 47.1505C50.7301 43.5704 53.6998 39.8987 55.9765 36.2372C57.6255 33.5851 58.8793 30.9997 59.7033 28.5524C60.3872 26.5166 59.8693 24.309 58.3514 22.7912ZM46.402 29.2567L45.7615 28.6161C45.4804 28.335 45.3255 27.9613 45.3255 27.5638C45.3255 27.1663 45.4804 26.7925 45.7615 26.5113L51.6205 20.6523C51.9016 20.3712 52.2756 20.2164 52.6736 20.2164C53.0714 20.2164 53.4455 20.3712 53.7266 20.6523L54.3666 21.2923L46.402 29.2567ZM20.2162 52.6737C20.2162 52.2757 20.3711 51.9018 20.6522 51.6206L26.5112 45.7616C26.7923 45.4805 27.1662 45.3257 27.5637 45.3257C27.9612 45.3257 28.335 45.4805 28.6161 45.7616L29.2566 46.402L21.292 54.3666L20.6521 53.7266C20.3711 53.4456 20.2162 53.0717 20.2162 52.6737Z" fill="#000D44"></path><path d="M27.7993 10.822V8.45459C27.7993 7.9692 27.4058 7.57568 26.9204 7.57568C26.435 7.57568 26.0415 7.9692 26.0415 8.45459V10.822C26.0415 11.3074 26.435 11.7009 26.9204 11.7009C27.4058 11.7009 27.7993 11.3074 27.7993 10.822Z" fill="#000D44"></path><path d="M18.872 13.8579C19.0211 13.8579 19.1723 13.8198 19.3107 13.74C19.731 13.4973 19.875 12.9598 19.6323 12.5395L18.4486 10.4893C18.2058 10.069 17.6682 9.92507 17.2482 10.1676C16.8278 10.4103 16.6838 10.9479 16.9265 11.3681L18.1102 13.4183C18.2729 13.7001 18.5683 13.8579 18.872 13.8579Z" fill="#000D44"></path><path d="M12.9778 19.7503C13.2816 19.7503 13.5769 19.5927 13.7398 19.3107C13.9825 18.8904 13.8385 18.353 13.4181 18.1103L11.3679 16.9266C10.9476 16.6838 10.41 16.8278 10.1675 17.2482C9.92476 17.6686 10.0688 18.206 10.4891 18.4487L12.5393 19.6324C12.6777 19.7123 12.8288 19.7503 12.9778 19.7503Z" fill="#000D44"></path><path d="M8.45459 26.0416C7.9692 26.0416 7.57568 26.4351 7.57568 26.9205C7.57568 27.4059 7.9692 27.7994 8.45459 27.7994H10.822C11.3074 27.7994 11.7009 27.4059 11.7009 26.9205C11.7009 26.4351 11.3074 26.0416 10.822 26.0416H8.45459Z" fill="#000D44"></path><path d="M40.8629 19.7503C41.0119 19.7503 41.1631 19.7122 41.3015 19.6324L43.3517 18.4487C43.7721 18.206 43.9161 17.6684 43.6734 17.2482C43.4307 16.8277 42.8929 16.6841 42.4729 16.9265L40.4227 18.1102C40.0024 18.3529 39.8584 18.8905 40.101 19.3107C40.2638 19.5927 40.5592 19.7503 40.8629 19.7503Z" fill="#000D44"></path><path d="M36.5929 10.1674C36.1725 9.92463 35.635 10.0688 35.3924 10.4891L34.2087 12.5393C33.966 12.9597 34.11 13.4972 34.5304 13.7398C34.6688 13.8197 34.82 13.8577 34.969 13.8577C35.2728 13.8577 35.5681 13.6999 35.731 13.4181L36.9147 11.3679C37.1573 10.9477 37.0132 10.4101 36.5929 10.1674Z" fill="#000D44"></path><path d="M30.3563 31.5627C30.4257 31.5794 30.4951 31.5874 30.5634 31.5874C30.9599 31.5874 31.3197 31.3172 31.417 30.9146L33.2464 23.3389C33.3603 22.867 33.0703 22.3922 32.5983 22.2783C32.1268 22.1645 31.6517 22.4544 31.5378 22.9263L29.7084 30.502C29.5944 30.9739 29.8845 31.4488 30.3563 31.5627Z" fill="#000D44"></path><path d="M35.1948 23.1326C35.1948 23.618 35.5883 24.0115 36.0737 24.0115H38.895L36.1067 30.3547C35.9113 30.7991 36.1132 31.3177 36.5575 31.5129C36.6726 31.5635 36.7926 31.5874 36.9107 31.5874C37.2487 31.5874 37.5709 31.3912 37.7156 31.0619L41.0459 23.4862C41.1653 23.2145 41.1395 22.9008 40.9773 22.6522C40.8151 22.4037 40.5382 22.2538 40.2414 22.2538H36.0737C35.5883 22.2538 35.1948 22.6473 35.1948 23.1326Z" fill="#000D44"></path><path d="M25.7727 22.6239L21.982 27.9636C21.7917 28.2316 21.767 28.5835 21.9178 28.8756C22.0686 29.1677 22.3699 29.3511 22.6986 29.3511H25.5949L25.5915 30.706C25.5904 31.1914 25.9828 31.5859 26.4682 31.5871H26.4704C26.9548 31.5871 27.348 31.1951 27.3492 30.7104L27.3526 29.3511H27.456C27.9414 29.3511 28.3349 28.9576 28.3349 28.4722C28.3349 27.9868 27.9414 27.5933 27.456 27.5933H27.3571L27.3682 23.1346C27.3691 22.7517 27.1221 22.4122 26.7573 22.2954C26.3927 22.1789 25.9944 22.3116 25.7727 22.6239ZM25.5994 27.5935H24.4004L25.6036 25.8985L25.5994 27.5935Z" fill="#000D44"></path><path d="M20.5973 30.7084C20.5973 30.223 20.2038 29.8295 19.7184 29.8295H17.9387C18.3279 29.2765 18.8663 28.5094 19.6098 27.4469C19.6132 27.442 19.6166 27.4372 19.6199 27.4323C20.2102 26.5511 20.5972 25.9084 20.5972 25.0383C20.5972 23.5029 19.3481 22.2538 17.8127 22.2538C16.4852 22.2538 15.3362 23.1982 15.0806 24.4994C14.9871 24.9757 15.2973 25.4377 15.7736 25.5312C16.2493 25.6243 16.7119 25.3145 16.8054 24.8381C16.8995 24.3591 17.3231 24.0114 17.8128 24.0114C18.379 24.0114 18.8396 24.4719 18.8396 25.0382C18.8396 25.3773 18.6627 25.7028 18.1647 26.4464C15.8619 29.7367 15.5447 30.1693 15.5332 30.1849C15.3355 30.4516 15.3049 30.8069 15.4542 31.1035C15.6035 31.4002 15.9071 31.5872 16.2391 31.5872H19.7184C20.2039 31.5872 20.5973 31.1938 20.5973 30.7084Z" fill="#000D44"></path></g><defs><clipPath id="clip0_244_1302"><rect width="60" height="60" fill="white"></rect></clipPath></defs></svg>