<svg xmlns="http://www.w3.org/2000/svg" width="60" height="60" viewBox="0 0 60 60" fill="none"><path d="M15 5.625H20.625V9.375H15V5.625Z" fill="#E6E9ED"></path><path d="M24.375 2.8125V4.6875C24.375 5.20312 23.9531 5.625 23.4375 5.625H20.625H15H12.1875C11.6719 5.625 11.25 5.20312 11.25 4.6875V2.8125C11.25 2.29688 11.6719 1.875 12.1875 1.875H23.4375C23.9531 1.875 24.375 2.29688 24.375 2.8125Z" fill="#CCD1D9"></path><path d="M26.25 10.3125V12.1875C26.25 12.7031 25.8281 13.125 25.3125 13.125H22.5H13.125H10.3125C9.79688 13.125 9.375 12.7031 9.375 12.1875V10.3125C9.375 9.79688 9.79688 9.375 10.3125 9.375H15H20.625H25.3125C25.8281 9.375 26.25 9.79688 26.25 10.3125Z" fill="#CCD1D9"></path><path d="M22.5 28.125L18.75 33.75H17.8125H16.875L13.125 28.125H22.5Z" fill="#04CE78"></path><path d="M22.5 24.375V28.125H13.125V13.125H22.5V16.875V20.625V24.375Z" fill="#04CE78"></path><path d="M48.75 54.375V56.25C48.75 57.2812 47.9062 58.125 46.875 58.125H3.75C2.71875 58.125 1.875 57.2812 1.875 56.25V54.375C1.875 53.1562 2.26875 51.975 3 51C3.69375 50.0719 4.64062 49.3969 5.71875 49.0406C6.29063 48.8531 6.89062 48.75 7.5 48.75H15H20.625H30H35.625H43.125C43.7344 48.75 44.3344 48.8531 44.9062 49.0406C45.1594 49.125 45.4031 49.2188 45.6375 49.3406C46.4156 49.725 47.1 50.2875 47.625 51C48.3563 51.975 48.75 53.1562 48.75 54.375Z" fill="#1F5FFF"></path><path d="M56.25 8.4375V17.8125C56.25 20.4 54.15 22.5 51.5625 22.5H38.7656C38.0062 22.5 37.3125 22.9688 37.0312 23.6812L35.9062 26.4844C35.7375 26.9062 35.325 27.1875 34.8656 27.1875C34.2469 27.1875 33.75 26.6906 33.75 26.0719V8.4375C33.75 5.85 35.85 3.75 38.4375 3.75H51.5625C54.15 3.75 56.25 5.85 56.25 8.4375Z" fill="#04CE78"></path><path d="M50.625 12.1875V14.0625C50.625 14.5781 50.2031 15 49.6875 15H46.875V17.8125C46.875 18.3281 46.4531 18.75 45.9375 18.75H44.0625C43.5469 18.75 43.125 18.3281 43.125 17.8125V15H40.3125C39.7969 15 39.375 14.5781 39.375 14.0625V12.1875C39.375 11.6719 39.7969 11.25 40.3125 11.25H43.125V8.4375C43.125 7.92188 43.5469 7.5 44.0625 7.5H45.9375C46.4531 7.5 46.875 7.92188 46.875 8.4375V11.25H49.6875C50.2031 11.25 50.625 11.6719 50.625 12.1875Z" fill="#E6E9ED"></path><path d="M43.125 48.75H35.625C34.4063 46.9125 33.75 44.7656 33.75 42.5531V39.8625C33.75 38.9344 34.0219 38.025 34.5469 37.2469C35.2219 36.2344 36.3563 35.625 37.575 35.625C38.1469 35.625 38.7 35.7562 39.2062 36.0094C39.5531 36.1875 39.9375 36.2719 40.3125 36.2719C40.6875 36.2719 41.0719 36.1875 41.4188 36.0094C41.925 35.7562 42.4781 35.625 43.05 35.625C44.2687 35.625 45.4031 36.2344 46.0781 37.2469C46.6031 38.025 46.875 38.9344 46.875 39.8625V42.5531C46.875 44.7656 46.2188 46.9125 45 48.75L44.9063 49.0406C44.3344 48.8531 43.7344 48.75 43.125 48.75Z" fill="#E6E9ED"></path><path d="M31.875 39.8625V42.5531C31.875 44.7656 31.2188 46.9125 30 48.75H20.625C19.4063 46.9125 18.75 44.7656 18.75 42.5531V39.8625C18.75 38.9344 19.0219 38.025 19.5469 37.2469C20.2219 36.2344 21.3563 35.625 22.575 35.625C23.1469 35.625 23.7 35.7562 24.2062 36.0094C24.5531 36.1875 24.9375 36.2719 25.3125 36.2719C25.6875 36.2719 26.0719 36.1875 26.4188 36.0094C26.925 35.7562 27.4781 35.625 28.05 35.625C29.2688 35.625 30.4031 36.2344 31.0781 37.2469C31.6031 38.025 31.875 38.9344 31.875 39.8625Z" fill="#E6E9ED"></path><path d="M7.5 48.75C6.89062 48.75 6.29062 48.8531 5.71875 49.0406L5.625 48.75C4.40625 46.9125 3.75 44.7656 3.75 42.5531V39.8625C3.75 38.9344 4.02187 38.025 4.54687 37.2469C5.22187 36.2344 6.35625 35.625 7.575 35.625C8.14687 35.625 8.7 35.7562 9.20625 36.0094C9.55312 36.1875 9.9375 36.2719 10.3125 36.2719C10.6875 36.2719 11.0719 36.1875 11.4188 36.0094C11.925 35.7562 12.4781 35.625 13.05 35.625C14.2688 35.625 15.4031 36.2344 16.0781 37.2469C16.6031 38.025 16.875 38.9344 16.875 39.8625V42.5531C16.875 44.7656 16.2188 46.9125 15 48.75H7.5Z" fill="#E6E9ED"></path><path d="M46.1991 48.5887C47.2556 46.755 47.8125 44.6869 47.8125 42.5578V39.8662C47.8125 38.7459 47.4834 37.6603 46.8628 36.7294C46.0097 35.4506 44.5847 34.6875 43.0481 34.6875C42.3394 34.6875 41.6306 34.8553 40.9987 35.1722C40.5694 35.3869 40.0556 35.3869 39.6272 35.1722C38.9944 34.8553 38.2847 34.6875 37.5769 34.6875C36.0413 34.6875 34.6153 35.4506 33.7631 36.7294C33.1416 37.6603 32.8125 38.745 32.8125 39.8653C32.8125 38.745 32.4834 37.6594 31.8628 36.7284C31.0097 35.4506 29.5847 34.6875 28.0481 34.6875C27.3394 34.6875 26.6306 34.8553 25.9988 35.1722C25.5694 35.3869 25.0556 35.3869 24.6272 35.1722C23.9944 34.8553 23.2847 34.6875 22.5769 34.6875C21.0413 34.6875 19.6153 35.4506 18.7631 36.7294C18.7584 36.7359 18.7556 36.7444 18.7509 36.7509V34.6875H19.2525L23.4375 28.4091V14.0625H25.3125C26.3466 14.0625 27.1875 13.2216 27.1875 12.1875V10.3125C27.1875 9.27844 26.3466 8.4375 25.3125 8.4375H21.5625V6.5625H23.4375C24.4716 6.5625 25.3125 5.72156 25.3125 4.6875V2.8125C25.3125 1.77844 24.4716 0.9375 23.4375 0.9375H12.1875C11.1534 0.9375 10.3125 1.77844 10.3125 2.8125V4.6875C10.3125 5.72156 11.1534 6.5625 12.1875 6.5625H14.0625V8.4375H10.3125C9.27844 8.4375 8.4375 9.27844 8.4375 10.3125V12.1875C8.4375 13.2216 9.27844 14.0625 10.3125 14.0625H12.1875V28.4091L16.3734 34.6875H16.875V36.7509C16.8703 36.7434 16.8675 36.7359 16.8628 36.7294C16.0097 35.4506 14.5847 34.6875 13.0481 34.6875C12.3394 34.6875 11.6306 34.8553 10.9988 35.1722C10.5694 35.3869 10.0556 35.3869 9.62719 35.1722C8.99438 34.8553 8.28469 34.6875 7.57687 34.6875C6.04125 34.6875 4.61531 35.4506 3.76312 36.7294C3.14156 37.6603 2.8125 38.745 2.8125 39.8653V42.5569C2.8125 44.6859 3.36938 46.755 4.42594 48.5887C3.58313 49.0359 2.83313 49.6594 2.25 50.4366C1.40344 51.5644 0.9375 52.9622 0.9375 54.3741V56.25C0.9375 57.8006 2.19937 59.0625 3.75 59.0625H46.875C48.4256 59.0625 49.6875 57.8006 49.6875 56.25V54.3741C49.6875 52.9622 49.2206 51.5644 48.375 50.4375C47.7919 49.6594 47.0419 49.0359 46.1991 48.5887ZM12.1875 2.8125H23.4375L23.4384 4.6875H12.1875V2.8125ZM19.6875 6.5625V8.4375H15.9375V6.5625H19.6875ZM10.3125 10.3125H14.0625H15H20.625H21.5625H25.3125V12.1875H10.3125V10.3125ZM21.5625 14.0625V15.9375H17.8125V17.8125H21.5625V19.6875H19.6875V21.5625H21.5625V23.4375H17.8125V25.3125H21.5625V27.1875H14.0625V14.0625H21.5625ZM14.8763 29.0625H20.7478L18.2475 32.8125H17.3756L14.8763 29.0625ZM34.6875 39.8653C34.6875 39.1162 34.9069 38.3916 35.3222 37.7691C36.0591 36.6656 37.5994 36.255 38.7891 36.8494C39.7434 37.3256 40.8816 37.3256 41.8369 36.8494C43.0209 36.2541 44.5659 36.6656 45.3019 37.7691C45.7181 38.3916 45.9375 39.1172 45.9375 39.8653V42.5569C45.9375 44.4722 45.4012 46.3266 44.3934 47.9475C43.9781 47.865 43.5553 47.8125 43.125 47.8125H36.1481C35.1947 46.2234 34.6875 44.4197 34.6875 42.5578V39.8653ZM32.8125 42.5578C32.8125 44.3916 33.2269 46.1803 34.0163 47.8125H31.6097C32.3981 46.1794 32.8125 44.3916 32.8125 42.5578ZM19.6875 39.8653C19.6875 39.1162 19.9069 38.3916 20.3222 37.7691C21.0591 36.6656 22.5994 36.255 23.7891 36.8494C24.7434 37.3256 25.8816 37.3256 26.8369 36.8494C28.0219 36.2541 29.5659 36.6656 30.3019 37.7691C30.7181 38.3916 30.9375 39.1172 30.9375 39.8653V42.5569C30.9375 44.4188 30.4303 46.2234 29.4769 47.8116H21.1481C20.1947 46.2234 19.6875 44.4197 19.6875 42.5578V39.8653ZM17.8125 42.5578C17.8125 44.3916 18.2269 46.1803 19.0163 47.8125H16.6097C17.3981 46.1794 17.8125 44.3916 17.8125 42.5578ZM4.6875 42.5578V39.8662C4.6875 39.1172 4.90688 38.3925 5.32219 37.77C6.05906 36.6666 7.59937 36.2559 8.78906 36.8503C9.74344 37.3266 10.8816 37.3266 11.8369 36.8503C13.0219 36.255 14.5659 36.6666 15.3019 37.77C15.7181 38.3916 15.9375 39.1172 15.9375 39.8653V42.5569C15.9375 44.4188 15.4303 46.2234 14.4769 47.8116H7.5C7.07062 47.8116 6.64781 47.8641 6.23156 47.9466C5.22375 46.3266 4.6875 44.4722 4.6875 42.5578ZM47.8125 56.25C47.8125 56.7675 47.3916 57.1875 46.875 57.1875H3.75C3.23344 57.1875 2.8125 56.7675 2.8125 56.25V54.3741C2.8125 53.3662 3.14531 52.3669 3.75 51.5616C4.63031 50.3878 6.03188 49.6875 7.5 49.6875H43.125C44.5922 49.6875 45.9947 50.3878 46.875 51.5625C47.4797 52.3669 47.8125 53.3662 47.8125 54.3741V56.25Z" fill="#000D44"></path><path d="M8.4375 38.4375H12.1875V40.3125H8.4375V38.4375Z" fill="#000D44"></path><path d="M23.4375 38.4375H27.1875V40.3125H23.4375V38.4375Z" fill="#000D44"></path><path d="M38.4375 38.4375H42.1875V40.3125H38.4375V38.4375Z" fill="#000D44"></path><path d="M51.5625 2.8125H38.4375C35.3353 2.8125 32.8125 5.33531 32.8125 8.4375V26.07C32.8125 27.2034 33.7341 28.125 34.8675 28.125C35.7131 28.125 36.4622 27.6178 36.7763 26.8331L37.8984 24.0272C38.0419 23.6691 38.3841 23.4375 38.7694 23.4375H51.5625C54.6647 23.4375 57.1875 20.9147 57.1875 17.8125V8.4375C57.1875 5.33531 54.6647 2.8125 51.5625 2.8125ZM55.3125 17.8125C55.3125 19.8806 53.6306 21.5625 51.5625 21.5625H38.7694C37.6125 21.5625 36.5878 22.2563 36.1575 23.3306L35.0353 26.1366C34.9716 26.2987 34.6875 26.2434 34.6875 26.07V8.4375C34.6875 6.36937 36.3694 4.6875 38.4375 4.6875H51.5625C53.6306 4.6875 55.3125 6.36937 55.3125 8.4375V17.8125Z" fill="#000D44"></path><path d="M49.6875 10.3125H47.8125V8.4375C47.8125 7.40344 46.9716 6.5625 45.9375 6.5625H44.0625C43.0284 6.5625 42.1875 7.40344 42.1875 8.4375V10.3125H40.3125C39.2784 10.3125 38.4375 11.1534 38.4375 12.1875V14.0625C38.4375 15.0966 39.2784 15.9375 40.3125 15.9375H42.1875V17.8125C42.1875 18.8466 43.0284 19.6875 44.0625 19.6875H45.9375C46.9716 19.6875 47.8125 18.8466 47.8125 17.8125V15.9375H49.6875C50.7216 15.9375 51.5625 15.0966 51.5625 14.0625V12.1875C51.5625 11.1534 50.7216 10.3125 49.6875 10.3125ZM49.6875 14.0625H45.9375V17.8125H44.0625V14.0625H40.3125V12.1875H44.0625L44.0616 8.4375H45.9375V12.1875H49.6875V14.0625Z" fill="#000D44"></path></svg>