<svg xmlns="http://www.w3.org/2000/svg" width="60" height="60" viewBox="0 0 60 60" fill="none"><g clip-path="url(#clip0_243_1279)"><path d="M16.8666 14.3862V21.3502H15.1985V33.7004L20.3209 34.7695L24.2537 15.928L16.8666 14.3862Z" fill="#04CE78"></path><path d="M16.673 28.7912C17.1402 23.8068 18.1949 19.1322 19.6905 14.9756L15.7335 14.1497L11.8008 32.9912L16.4109 33.9534C16.4234 32.2633 16.5091 30.5392 16.673 28.7912Z" fill="#1F5FFF"></path><path d="M42.2407 23.688H50.0515V38.693H42.2407V23.688Z" fill="#04CE78"></path><path d="M45.4975 29.1799C45.4975 26.76 47.4592 24.7983 49.8791 24.7983H50.0515V23.688H42.2407V38.693H45.4975V29.1799Z" fill="#1F5FFF"></path><path d="M46.1462 59.1211C42.7054 59.1211 39.9706 56.2311 40.1602 52.7955L40.9034 39.332C40.9585 38.3338 41.7839 37.5526 42.7837 37.5526H49.5087C50.5084 37.5526 51.3339 38.3338 51.389 39.332L52.1322 52.7955C52.3218 56.2311 49.5871 59.1211 46.1462 59.1211Z" fill="#6A829A"></path><path d="M45.4975 55.6184V37.5526H42.7837C41.7839 37.5526 40.9585 38.3338 40.9034 39.332L40.1602 52.7955C39.9706 56.2311 42.7053 59.1211 46.1461 59.1211C46.4855 59.1211 46.8175 59.0919 47.141 59.038C46.1394 58.235 45.4975 57.002 45.4975 55.6184Z" fill="#516980"></path><path d="M47.2428 0.925049C53.8223 1.48146 58.9888 6.99817 58.9888 13.7216C58.9888 20.0725 54.3788 25.3468 48.3226 26.3806L44.0475 25.8978L38.551 13.6529L43.0005 2.07993L47.2428 0.925049Z" fill="#6A829A"></path><path d="M42.2406 13.1479C42.2406 8.38699 44.1495 4.0725 47.2427 0.926016C46.881 0.89543 46.5155 0.878906 46.1459 0.878906C39.053 0.878906 33.3032 6.62883 33.3032 13.7216C33.3032 20.8145 39.0531 26.5643 46.1459 26.5643C46.8878 26.5643 47.6149 26.5005 48.3223 26.3798C44.5994 23.182 42.2406 18.4406 42.2406 13.1479Z" fill="#516980"></path><path d="M43.7459 6.00516C44.5045 5.76868 45.3107 5.6413 46.1462 5.6413C50.6016 5.6413 54.2265 9.26614 54.2265 13.7216C54.2265 18.1771 50.6016 21.802 46.1462 21.802C45.5587 21.802 44.9858 21.739 44.4336 21.6195L42.0285 20.065L39.3738 13.7217L41.0564 8.39907L43.7459 6.00516Z" fill="#04CE78"></path><path d="M42.2408 13.1478C42.2408 10.6001 42.7875 8.18015 43.7697 5.99835C40.4705 7.01566 38.0659 10.0928 38.0659 13.7215C38.0659 17.5895 40.7985 20.8298 44.434 21.6176C43.0375 19.1098 42.2408 16.222 42.2408 13.1478Z" fill="#1F5FFF"></path><path d="M24.8767 4.91089C26.7421 5.31319 28.0141 7.11999 27.6973 9.0578L26.5713 15.9466C26.2283 18.0447 24.1686 19.4042 22.1046 18.8949L18.6921 18.0529L17.0698 15.959L17.4045 10.5823L22.1788 5.64132L24.8767 4.91089Z" fill="#6A829A"></path><path d="M24.8763 4.91214C24.7219 4.87886 24.5638 4.8539 24.4019 4.84054L16.8165 4.21617C14.9243 4.06043 13.2298 5.38453 12.9236 7.25824L11.9935 12.948C11.6871 14.8219 12.8718 16.6166 14.7151 17.0714L18.692 18.0527C20.1813 12.9231 22.3203 8.43211 24.8763 4.91214Z" fill="#516980"></path><path d="M16.3645 59.1211C12.9236 59.1211 10.1888 56.2311 10.3784 52.7955L11.1216 32.2302C11.1767 31.232 12.0022 30.4508 13.0019 30.4508H19.727C20.7267 30.4508 21.5521 31.232 21.6072 32.2302L22.3504 52.7955C22.5402 56.2311 19.8054 59.1211 16.3645 59.1211Z" fill="#6A829A"></path><path d="M15.548 55.6183V33.2519C15.548 32.1866 15.9286 31.2103 16.5607 30.4508H13.0019C12.0022 30.4508 11.1767 31.232 11.1216 32.2302L10.3784 52.7955C10.1888 56.2311 12.9235 59.1211 16.3644 59.1211C16.6546 59.1211 16.9394 59.0988 17.2183 59.0591C16.2016 58.2567 15.548 57.0143 15.548 55.6183Z" fill="#516980"></path><path d="M3.52432 11.1558C4.91226 11.1558 6.0374 10.0307 6.0374 8.64272C6.0374 7.25479 4.91226 6.12964 3.52432 6.12964C2.13638 6.12964 1.01123 7.25479 1.01123 8.64272C1.01123 10.0307 2.13638 11.1558 3.52432 11.1558Z" fill="#04CE78"></path><path d="M59.8678 13.7216C59.8678 10.9266 59.0324 8.23711 57.4521 5.94387C57.1765 5.54414 56.6295 5.44348 56.2296 5.71887C55.8298 5.99437 55.7291 6.54164 56.0046 6.94137C57.382 8.94 58.11 11.2846 58.11 13.7216C58.11 20.3184 52.743 25.6854 46.146 25.6854C39.5492 25.6854 34.1823 20.3184 34.1823 13.7216C34.1824 7.12477 39.5493 1.75781 46.1462 1.75781C48.7732 1.75781 51.2658 2.59277 53.3551 4.17258C53.7421 4.46543 54.2934 4.38891 54.5862 4.00172C54.879 3.61453 54.8024 3.06328 54.4153 2.77055C52.0183 0.958008 49.1589 0 46.1462 0C38.58 0 32.4246 6.15551 32.4246 13.7216C32.4246 19.6059 36.1481 24.6364 41.3624 26.5823V37.0682C40.6026 37.5253 40.0781 38.338 40.0259 39.2836L39.2827 52.7472C39.1776 54.6524 39.8418 56.4649 41.1535 57.8508C42.465 59.2368 44.2381 60 46.1462 60C48.0543 60 49.8275 59.2368 51.1389 57.8508C52.4505 56.4648 53.1148 54.6524 53.0097 52.747L52.2665 39.2835C52.2144 38.3382 51.6901 37.5259 50.9308 37.0686V26.5819C56.1447 24.6359 59.8678 19.6057 59.8678 13.7216ZM49.8623 56.6426C48.8861 57.6741 47.5664 58.2422 46.1462 58.2422C44.7261 58.2422 43.4063 57.6741 42.4301 56.6426C41.454 55.6111 40.9594 54.262 41.0377 52.8439L41.7809 39.3804C41.8103 38.8482 42.2507 38.4315 42.7837 38.4315H49.5089C50.0417 38.4315 50.4822 38.8484 50.5116 39.3805L51.2548 52.8441C51.3329 54.262 50.8385 55.611 49.8623 56.6426ZM49.173 36.6737H43.1203V27.1063C44.0942 27.3264 45.1067 27.4432 46.1462 27.4432C47.186 27.4432 48.1988 27.3263 49.173 27.1062V36.6737Z" fill="black"></path><path d="M46.1462 4.76239C41.2061 4.76239 37.187 8.78145 37.187 13.7216C37.187 18.6618 41.2061 22.6809 46.1462 22.6809C51.0864 22.6809 55.1056 18.6618 55.1056 13.7216C55.1056 8.78145 51.0864 4.76239 46.1462 4.76239ZM46.1462 20.9231C42.1753 20.9231 38.9448 17.6925 38.9448 13.7216C38.9448 9.75071 42.1753 6.5202 46.1462 6.5202C50.1172 6.5202 53.3478 9.75071 53.3478 13.7216C53.3478 17.6925 50.1171 20.9231 46.1462 20.9231Z" fill="black"></path><path d="M46.1462 8.62958C45.6607 8.62958 45.2673 9.02309 45.2673 9.50848C45.2673 9.99387 45.6607 10.3874 46.1462 10.3874C47.9848 10.3874 49.4806 11.8832 49.4806 13.7216C49.4806 14.207 49.874 14.6005 50.3595 14.6005C50.845 14.6005 51.2384 14.207 51.2384 13.7216C51.2384 10.9138 48.9541 8.62958 46.1462 8.62958Z" fill="black"></path><path d="M24.4741 3.96467L16.8888 3.34018C14.5576 3.14822 12.4337 4.8069 12.0563 7.11643L11.7331 9.09397L6.89903 8.30377C6.74903 6.81455 5.61735 5.54787 4.07153 5.29522C2.22618 4.99358 0.478562 6.24983 0.176804 8.09565C-0.124837 9.94135 1.13141 11.6886 2.97712 11.9903C3.16169 12.0204 3.34509 12.035 3.52626 12.035C4.86313 12.035 6.07274 11.2398 6.61567 10.0386L11.4497 10.8288L11.1265 12.8062C10.7732 14.9665 12.0488 17.0727 14.0744 17.7949L11.5265 29.9996C10.796 30.4623 10.2951 31.2588 10.2443 32.1818C10.2439 32.1873 10.2437 32.1929 10.2434 32.1984L9.92528 41.0027C9.90782 41.4879 10.2868 41.8953 10.772 41.9128C11.254 41.9301 11.6643 41.5513 11.682 41.0662L11.9999 32.2714C12.0327 31.7427 12.4715 31.3296 13.0022 31.3296H19.7273C20.2577 31.3296 20.6966 31.7427 20.7296 32.2714L21.4725 52.8272C21.4727 52.8327 21.4729 52.8383 21.4733 52.8439C21.5516 54.2619 21.057 55.611 20.0809 56.6426C19.1047 57.674 17.7849 58.2422 16.3647 58.2422C14.9447 58.2422 13.6249 57.674 12.6487 56.6426C11.6725 55.6111 11.178 54.262 11.2563 52.8439C11.2566 52.8383 11.2569 52.8328 11.2571 52.8272L11.5327 45.2025C11.5502 44.7173 11.1712 44.3099 10.6861 44.2924C10.2043 44.2735 9.79368 44.6538 9.77598 45.139L9.50071 52.7557C9.39805 54.6578 10.0624 56.4669 11.372 57.8508C12.6834 59.2367 14.4566 60 16.3646 60C18.2728 60 20.0459 59.2367 21.3574 57.8508C22.667 56.4669 23.3313 54.6576 23.2286 52.7557L22.4858 32.1985C22.4856 32.193 22.4853 32.1874 22.485 32.1818C22.4574 31.6821 22.2978 31.2196 22.0415 30.8269L24.3744 19.6547C24.7576 19.5303 25.1263 19.3571 25.4675 19.1319C26.5173 18.439 27.2358 17.3297 27.4386 16.0882L28.5647 9.19944C28.7675 7.95807 28.4397 6.67756 27.6651 5.68651C26.8909 4.69545 25.7277 4.06779 24.4741 3.96467ZM5.13712 8.90623C4.99169 9.79557 4.14864 10.4011 3.26059 10.2554C2.37137 10.1101 1.76622 9.26834 1.91141 8.37912C2.04231 7.57861 2.73723 7.00838 3.52321 7.00838C3.61052 7.00838 3.69899 7.01541 3.78782 7.02994C4.67727 7.17537 5.28243 8.01713 5.13712 8.90623ZM13.4116 29.572L15.7774 18.2388L21.8941 19.7482C22.1065 19.8006 22.3213 19.8351 22.5368 19.856L20.4858 29.6783C20.2443 29.6094 19.99 29.572 19.7273 29.572H13.4116ZM26.8302 8.91596L25.7041 15.8047C25.5782 16.5745 25.1503 17.2352 24.4994 17.6649C23.8482 18.0947 23.0723 18.2284 22.3153 18.0415L14.926 16.2181C13.5372 15.8755 12.6303 14.5015 12.8611 13.0898L13.7912 7.40002C14.0097 6.06291 15.1852 5.08287 16.5204 5.08287C16.5947 5.08287 16.6695 5.08592 16.7448 5.09213L24.3301 5.71662C25.1075 5.78061 25.8001 6.15444 26.2806 6.76897C26.7607 7.38362 26.9559 8.14615 26.8302 8.91596Z" fill="black"></path></g><defs><clipPath id="clip0_243_1279"><rect width="60" height="60" fill="white"></rect></clipPath></defs></svg>