<svg width="202" height="62" viewBox="0 0 202 62" fill="none" xmlns="http://www.w3.org/2000/svg">
<path d="M65.912 54V45.6H67.292V54H65.912ZM71.252 54V45.6H72.632V54H71.252ZM66.86 50.28V49.02H71.552V50.28H66.86ZM80.071 54.12C79.495 54.12 78.975 53.992 78.511 53.736C78.055 53.472 77.691 53.112 77.419 52.656C77.155 52.2 77.023 51.688 77.023 51.12C77.023 50.552 77.155 50.044 77.419 49.596C77.683 49.14 78.039 48.78 78.487 48.516C78.943 48.252 79.447 48.12 79.999 48.12C80.535 48.12 81.007 48.244 81.415 48.492C81.831 48.74 82.155 49.08 82.387 49.512C82.627 49.944 82.747 50.436 82.747 50.988C82.747 51.084 82.739 51.184 82.723 51.288C82.715 51.384 82.699 51.492 82.675 51.612H77.947V50.532H81.991L81.499 50.964C81.483 50.612 81.415 50.316 81.295 50.076C81.175 49.836 81.003 49.652 80.779 49.524C80.563 49.396 80.295 49.332 79.975 49.332C79.639 49.332 79.347 49.404 79.099 49.548C78.851 49.692 78.659 49.896 78.523 50.16C78.387 50.416 78.319 50.724 78.319 51.084C78.319 51.444 78.391 51.76 78.535 52.032C78.679 52.304 78.883 52.516 79.147 52.668C79.411 52.812 79.715 52.884 80.059 52.884C80.355 52.884 80.627 52.832 80.875 52.728C81.131 52.624 81.347 52.472 81.523 52.272L82.363 53.124C82.083 53.452 81.743 53.7 81.343 53.868C80.943 54.036 80.519 54.12 80.071 54.12ZM89.3371 54.12C88.8171 54.12 88.3451 53.988 87.9211 53.724C87.5051 53.46 87.1731 53.104 86.9251 52.656C86.6851 52.2 86.5651 51.692 86.5651 51.132C86.5651 50.564 86.6851 50.056 86.9251 49.608C87.1731 49.152 87.5051 48.792 87.9211 48.528C88.3451 48.256 88.8171 48.12 89.3371 48.12C89.7771 48.12 90.1651 48.216 90.5011 48.408C90.8451 48.592 91.1171 48.848 91.3171 49.176C91.5171 49.504 91.6171 49.876 91.6171 50.292V51.948C91.6171 52.364 91.5171 52.736 91.3171 53.064C91.1251 53.392 90.8571 53.652 90.5131 53.844C90.1691 54.028 89.7771 54.12 89.3371 54.12ZM89.5531 52.872C90.0411 52.872 90.4331 52.708 90.7291 52.38C91.0331 52.052 91.1851 51.632 91.1851 51.12C91.1851 50.776 91.1171 50.472 90.9811 50.208C90.8451 49.944 90.6531 49.74 90.4051 49.596C90.1651 49.444 89.8811 49.368 89.5531 49.368C89.2331 49.368 88.9491 49.444 88.7011 49.596C88.4611 49.74 88.2691 49.944 88.1251 50.208C87.9891 50.472 87.9211 50.776 87.9211 51.12C87.9211 51.464 87.9891 51.768 88.1251 52.032C88.2691 52.296 88.4611 52.504 88.7011 52.656C88.9491 52.8 89.2331 52.872 89.5531 52.872ZM91.1011 54V52.452L91.3291 51.048L91.1011 49.656V48.24H92.4211V54H91.1011ZM97.0061 54V45.36H98.3261V54H97.0061ZM103.791 54V45.84H105.111V54H103.791ZM102.411 49.44V48.24H106.491V49.44H102.411ZM114.518 54V50.676C114.518 50.292 114.394 49.976 114.146 49.728C113.906 49.48 113.594 49.356 113.21 49.356C112.954 49.356 112.726 49.412 112.526 49.524C112.326 49.636 112.17 49.792 112.058 49.992C111.946 50.192 111.89 50.42 111.89 50.676L111.374 50.388C111.374 49.948 111.47 49.56 111.662 49.224C111.854 48.88 112.118 48.612 112.454 48.42C112.798 48.22 113.182 48.12 113.606 48.12C114.038 48.12 114.422 48.216 114.758 48.408C115.094 48.6 115.358 48.868 115.55 49.212C115.742 49.548 115.838 49.94 115.838 50.388V54H114.518ZM110.57 54V45.36H111.89V54H110.57ZM131.414 54L127.43 49.644C127.134 49.316 126.91 49.004 126.758 48.708C126.614 48.412 126.542 48.084 126.542 47.724C126.542 47.3 126.646 46.92 126.854 46.584C127.062 46.24 127.346 45.968 127.706 45.768C128.066 45.568 128.478 45.468 128.942 45.468C129.294 45.468 129.614 45.528 129.902 45.648C130.19 45.76 130.442 45.912 130.658 46.104C130.882 46.288 131.066 46.492 131.21 46.716L130.262 47.556C130.086 47.316 129.894 47.12 129.686 46.968C129.486 46.816 129.238 46.74 128.942 46.74C128.638 46.74 128.382 46.832 128.174 47.016C127.966 47.192 127.862 47.416 127.862 47.688C127.862 47.96 127.918 48.184 128.03 48.36C128.142 48.536 128.298 48.74 128.498 48.972L132.998 54H131.414ZM128.546 54.12C127.97 54.12 127.466 54.012 127.034 53.796C126.61 53.572 126.278 53.268 126.038 52.884C125.806 52.492 125.69 52.048 125.69 51.552C125.69 51.048 125.826 50.596 126.098 50.196C126.378 49.796 126.786 49.472 127.322 49.224L127.934 50.028C127.638 50.188 127.41 50.388 127.25 50.628C127.09 50.86 127.01 51.156 127.01 51.516C127.01 51.804 127.074 52.048 127.202 52.248C127.338 52.448 127.526 52.604 127.766 52.716C128.006 52.82 128.282 52.872 128.594 52.872C129.002 52.872 129.338 52.788 129.602 52.62C129.874 52.452 130.078 52.252 130.214 52.02L131.078 53.028C130.91 53.236 130.694 53.424 130.43 53.592C130.166 53.752 129.874 53.88 129.554 53.976C129.234 54.072 128.898 54.12 128.546 54.12ZM142.215 54V45.6H143.175L146.667 51.348H146.043L149.535 45.6H150.495V54H149.115V48.024L149.427 48.108L146.835 52.368H145.875L143.283 48.108L143.595 48.024V54H142.215ZM157.932 54.12C157.356 54.12 156.836 53.992 156.372 53.736C155.916 53.472 155.552 53.112 155.28 52.656C155.016 52.2 154.884 51.688 154.884 51.12C154.884 50.552 155.016 50.044 155.28 49.596C155.544 49.14 155.9 48.78 156.348 48.516C156.804 48.252 157.308 48.12 157.86 48.12C158.396 48.12 158.868 48.244 159.276 48.492C159.692 48.74 160.016 49.08 160.248 49.512C160.488 49.944 160.608 50.436 160.608 50.988C160.608 51.084 160.6 51.184 160.584 51.288C160.576 51.384 160.56 51.492 160.536 51.612H155.808V50.532H159.852L159.36 50.964C159.344 50.612 159.276 50.316 159.156 50.076C159.036 49.836 158.864 49.652 158.64 49.524C158.424 49.396 158.156 49.332 157.836 49.332C157.5 49.332 157.208 49.404 156.96 49.548C156.712 49.692 156.52 49.896 156.384 50.16C156.248 50.416 156.18 50.724 156.18 51.084C156.18 51.444 156.252 51.76 156.396 52.032C156.54 52.304 156.744 52.516 157.008 52.668C157.272 52.812 157.576 52.884 157.92 52.884C158.216 52.884 158.488 52.832 158.736 52.728C158.992 52.624 159.208 52.472 159.384 52.272L160.224 53.124C159.944 53.452 159.604 53.7 159.204 53.868C158.804 54.036 158.38 54.12 157.932 54.12ZM167.198 54.12C166.678 54.12 166.206 53.988 165.782 53.724C165.366 53.46 165.034 53.104 164.786 52.656C164.546 52.2 164.426 51.692 164.426 51.132C164.426 50.564 164.546 50.056 164.786 49.608C165.034 49.152 165.366 48.792 165.782 48.528C166.206 48.256 166.678 48.12 167.198 48.12C167.638 48.12 168.026 48.216 168.362 48.408C168.706 48.592 168.978 48.848 169.178 49.176C169.378 49.504 169.478 49.876 169.478 50.292V51.948C169.478 52.364 169.378 52.736 169.178 53.064C168.986 53.392 168.718 53.652 168.374 53.844C168.03 54.028 167.638 54.12 167.198 54.12ZM167.414 52.872C167.742 52.872 168.026 52.8 168.266 52.656C168.514 52.504 168.706 52.296 168.842 52.032C168.978 51.768 169.046 51.464 169.046 51.12C169.046 50.776 168.978 50.472 168.842 50.208C168.706 49.944 168.514 49.74 168.266 49.596C168.026 49.444 167.742 49.368 167.414 49.368C167.094 49.368 166.81 49.444 166.562 49.596C166.322 49.74 166.13 49.944 165.986 50.208C165.85 50.472 165.782 50.776 165.782 51.12C165.782 51.464 165.85 51.768 165.986 52.032C166.13 52.296 166.322 52.504 166.562 52.656C166.81 52.8 167.094 52.872 167.414 52.872ZM170.282 54H168.962V52.452L169.19 51.048L168.962 49.656V45.36H170.282V54ZM174.879 54V48.24H176.199V54H174.879ZM175.539 47.184C175.315 47.184 175.127 47.108 174.975 46.956C174.831 46.804 174.759 46.616 174.759 46.392C174.759 46.168 174.831 45.98 174.975 45.828C175.127 45.676 175.315 45.6 175.539 45.6C175.771 45.6 175.959 45.676 176.103 45.828C176.247 45.98 176.319 46.168 176.319 46.392C176.319 46.616 176.247 46.804 176.103 46.956C175.959 47.108 175.771 47.184 175.539 47.184ZM183.452 54.12C182.884 54.12 182.368 53.988 181.904 53.724C181.448 53.46 181.088 53.1 180.824 52.644C180.56 52.188 180.428 51.68 180.428 51.12C180.428 50.552 180.56 50.044 180.824 49.596C181.088 49.14 181.448 48.78 181.904 48.516C182.368 48.252 182.884 48.12 183.452 48.12C183.9 48.12 184.316 48.208 184.7 48.384C185.092 48.552 185.424 48.796 185.696 49.116L184.832 49.992C184.664 49.792 184.46 49.644 184.22 49.548C183.988 49.444 183.732 49.392 183.452 49.392C183.124 49.392 182.832 49.468 182.576 49.62C182.328 49.764 182.132 49.964 181.988 50.22C181.852 50.476 181.784 50.776 181.784 51.12C181.784 51.456 181.852 51.756 181.988 52.02C182.132 52.276 182.328 52.48 182.576 52.632C182.832 52.776 183.124 52.848 183.452 52.848C183.732 52.848 183.988 52.8 184.22 52.704C184.46 52.6 184.664 52.448 184.832 52.248L185.696 53.124C185.424 53.444 185.092 53.692 184.7 53.868C184.316 54.036 183.9 54.12 183.452 54.12ZM192.062 54.12C191.542 54.12 191.07 53.988 190.646 53.724C190.23 53.46 189.898 53.104 189.65 52.656C189.41 52.2 189.29 51.692 189.29 51.132C189.29 50.564 189.41 50.056 189.65 49.608C189.898 49.152 190.23 48.792 190.646 48.528C191.07 48.256 191.542 48.12 192.062 48.12C192.502 48.12 192.89 48.216 193.226 48.408C193.57 48.592 193.842 48.848 194.042 49.176C194.242 49.504 194.342 49.876 194.342 50.292V51.948C194.342 52.364 194.242 52.736 194.042 53.064C193.85 53.392 193.582 53.652 193.238 53.844C192.894 54.028 192.502 54.12 192.062 54.12ZM192.278 52.872C192.766 52.872 193.158 52.708 193.454 52.38C193.758 52.052 193.91 51.632 193.91 51.12C193.91 50.776 193.842 50.472 193.706 50.208C193.57 49.944 193.378 49.74 193.13 49.596C192.89 49.444 192.606 49.368 192.278 49.368C191.958 49.368 191.674 49.444 191.426 49.596C191.186 49.74 190.994 49.944 190.85 50.208C190.714 50.472 190.646 50.776 190.646 51.12C190.646 51.464 190.714 51.768 190.85 52.032C190.994 52.296 191.186 52.504 191.426 52.656C191.674 52.8 191.958 52.872 192.278 52.872ZM193.826 54V52.452L194.054 51.048L193.826 49.656V48.24H195.146V54H193.826ZM199.731 54V45.36H201.051V54H199.731Z" fill="#04CE78"/>
<path d="M67.72 37V8.76H72.2L83.32 26.08H81.04L92.12 8.76H96.64V37H90.36V19.36L91.48 19.64L84.24 30.92H80.08L72.88 19.64L73.96 19.36V37H67.72ZM111.096 37.44C108.989 37.44 107.109 37.0133 105.456 36.16C103.829 35.28 102.549 34.0667 101.616 32.52C100.683 30.9733 100.216 29.2267 100.216 27.28C100.216 25.3333 100.669 23.6 101.576 22.08C102.509 20.5333 103.763 19.32 105.336 18.44C106.909 17.56 108.683 17.12 110.656 17.12C112.576 17.12 114.269 17.5333 115.736 18.36C117.203 19.1867 118.349 20.3333 119.176 21.8C120.029 23.2667 120.456 24.9467 120.456 26.84C120.456 27.1867 120.429 27.56 120.376 27.96C120.349 28.3333 120.283 28.7733 120.176 29.28L103.416 29.32V25.12L117.576 25.08L114.936 26.84C114.909 25.72 114.736 24.8 114.416 24.08C114.096 23.3333 113.616 22.7733 112.976 22.4C112.363 22 111.603 21.8 110.696 21.8C109.736 21.8 108.896 22.0267 108.176 22.48C107.483 22.9067 106.936 23.52 106.536 24.32C106.163 25.12 105.976 26.0933 105.976 27.24C105.976 28.3867 106.176 29.3733 106.576 30.2C107.003 31 107.589 31.6267 108.336 32.08C109.109 32.5067 110.016 32.72 111.056 32.72C112.016 32.72 112.883 32.56 113.656 32.24C114.429 31.8933 115.109 31.3867 115.696 30.72L119.056 34.08C118.096 35.2 116.936 36.04 115.576 36.6C114.216 37.16 112.723 37.44 111.096 37.44ZM131.69 37.4C129.85 37.4 128.21 36.96 126.77 36.08C125.357 35.2 124.237 34 123.41 32.48C122.61 30.96 122.21 29.2267 122.21 27.28C122.21 25.3333 122.61 23.6 123.41 22.08C124.237 20.56 125.357 19.36 126.77 18.48C128.21 17.6 129.85 17.16 131.69 17.16C133.023 17.16 134.223 17.4133 135.29 17.92C136.383 18.4267 137.277 19.1333 137.97 20.04C138.69 20.92 139.09 21.9333 139.17 23.08V31.28C139.09 32.4267 138.703 33.4667 138.01 34.4C137.317 35.3067 136.423 36.04 135.33 36.6C134.237 37.1333 133.023 37.4 131.69 37.4ZM132.77 31.88C133.65 31.88 134.41 31.6933 135.05 31.32C135.69 30.92 136.197 30.3733 136.57 29.68C136.943 28.9867 137.13 28.1867 137.13 27.28C137.13 26.3733 136.943 25.5867 136.57 24.92C136.223 24.2267 135.717 23.68 135.05 23.28C134.41 22.88 133.663 22.68 132.81 22.68C131.957 22.68 131.197 22.88 130.53 23.28C129.89 23.68 129.37 24.2267 128.97 24.92C128.597 25.6133 128.41 26.4 128.41 27.28C128.41 28.16 128.597 28.9467 128.97 29.64C129.343 30.3333 129.863 30.88 130.53 31.28C131.197 31.68 131.943 31.88 132.77 31.88ZM142.89 37H136.89V31.76L137.81 27.04L136.77 22.32V7.96H142.89V37ZM147.199 37V17.56H153.319V37H147.199ZM150.279 14.88C149.319 14.88 148.519 14.56 147.879 13.92C147.266 13.2533 146.959 12.4533 146.959 11.52C146.959 10.56 147.266 9.76 147.879 9.12C148.519 8.48 149.319 8.16 150.279 8.16C151.239 8.16 152.026 8.48 152.639 9.12C153.252 9.76 153.559 10.56 153.559 11.52C153.559 12.4533 153.252 13.2533 152.639 13.92C152.026 14.56 151.239 14.88 150.279 14.88ZM165.749 37.4C163.962 37.4 162.362 36.96 160.949 36.08C159.562 35.2 158.455 34 157.629 32.48C156.829 30.96 156.429 29.2267 156.429 27.28C156.429 25.3333 156.829 23.6 157.629 22.08C158.455 20.56 159.562 19.36 160.949 18.48C162.362 17.6 163.962 17.16 165.749 17.16C167.055 17.16 168.229 17.4133 169.269 17.92C170.335 18.4267 171.202 19.1333 171.869 20.04C172.535 20.92 172.909 21.9333 172.989 23.08V31.48C172.909 32.6267 172.535 33.6533 171.869 34.56C171.229 35.44 170.375 36.1333 169.309 36.64C168.242 37.1467 167.055 37.4 165.749 37.4ZM166.989 31.88C168.295 31.88 169.349 31.4533 170.149 30.6C170.949 29.72 171.349 28.6133 171.349 27.28C171.349 26.3733 171.162 25.5733 170.789 24.88C170.442 24.1867 169.935 23.6533 169.269 23.28C168.629 22.88 167.882 22.68 167.029 22.68C166.175 22.68 165.415 22.88 164.749 23.28C164.109 23.6533 163.589 24.1867 163.189 24.88C162.815 25.5733 162.629 26.3733 162.629 27.28C162.629 28.16 162.815 28.9467 163.189 29.64C163.562 30.3333 164.082 30.88 164.749 31.28C165.415 31.68 166.162 31.88 166.989 31.88ZM171.109 37V31.76L172.029 27.04L171.109 22.32V17.56H177.109V37H171.109ZM193.458 37L188.778 29.44L187.458 28.6L179.818 17.56H186.978L191.338 24.64L192.618 25.44L200.538 37H193.458ZM179.458 37L187.418 25.68L190.898 29.6L186.138 37H179.458ZM192.578 28.56L189.098 24.64L193.498 17.56H200.138L192.578 28.56Z" fill="white"/>
<path d="M18.041 15.9773V22.6859H20.3387V18.2567C19.5378 17.5435 18.7819 16.7753 18.041 15.9773Z" fill="#04CE78"/>
<path d="M39.5264 17.8278V22.6859H41.9592V15.4785C41.1583 16.2716 40.3473 17.0597 39.5264 17.8278Z" fill="#04CE78"/>
<path d="M39.5261 41.6697V50.4233H39.5161C39.3359 55.501 35.136 59.581 30 59.581C24.859 59.581 20.6591 55.5059 20.4839 50.4233H20.4739V41.6697H18.041V50.0842C18.041 56.6531 23.4073 62.0001 30 62.0001C36.5927 62.0001 41.9589 56.6531 41.9589 50.0842V41.6697H39.5261Z" fill="#04CE78"/>
<path d="M20.4739 41.6699H13.8512V41.6051H11.9589C6.70782 41.6051 2.43283 37.3455 2.43283 32.1132C2.43283 26.881 6.70782 22.6214 11.9589 22.6214H20.3387V20.1973H11.9589C5.36625 20.1973 0 25.5442 0 32.1132C0 38.6822 5.36625 44.0292 11.9589 44.0292H20.4739V41.6699Z" fill="#04CE78"/>
<path d="M48.0413 20.1973H39.5264V22.6214H48.0413C53.2924 22.6214 57.5674 26.881 57.5674 32.1132C57.5674 37.3455 53.2924 41.6051 48.0413 41.6051H44.9327V41.6699H39.5264V44.0242H48.0413C54.634 44.0242 60.0003 38.6772 60.0003 32.1082C60.0003 25.5392 54.634 20.1973 48.0413 20.1973Z" fill="#04CE78"/>
<path d="M18.987 51.0963C14.9623 51.0963 11.6885 47.8343 11.6885 43.824C11.6885 39.8138 14.9623 36.5518 18.987 36.5518C23.0117 36.5518 26.2855 39.8138 26.2855 43.824C26.2855 47.8343 23.0117 51.0963 18.987 51.0963ZM18.987 38.9758C16.3039 38.9758 14.1213 41.1505 14.1213 43.824C14.1213 46.4975 16.3039 48.6722 18.987 48.6722C21.6701 48.6722 23.8527 46.4975 23.8527 43.824C23.8527 41.1505 21.6701 38.9758 18.987 38.9758Z" fill="white"/>
<path d="M22.6725 47.6342C24.7838 45.5306 24.7838 42.1198 22.6725 40.0161C20.5612 37.9125 17.1382 37.9125 15.0269 40.0161C12.9156 42.1198 12.9156 45.5306 15.0269 47.6343C17.1382 49.7379 20.5612 49.7379 22.6725 47.6342Z" fill="white"/>
<path d="M18.987 51.0963C14.9623 51.0963 11.6885 47.8343 11.6885 43.824C11.6885 39.8138 14.9623 36.5518 18.987 36.5518C23.0117 36.5518 26.2855 39.8138 26.2855 43.824C26.2855 47.8343 23.0117 51.0963 18.987 51.0963ZM18.987 38.9758C16.3039 38.9758 14.1213 41.1505 14.1213 43.824C14.1213 46.4975 16.3039 48.6722 18.987 48.6722C21.6701 48.6722 23.8527 46.4975 23.8527 43.824C23.8527 41.1505 21.6701 38.9758 18.987 38.9758Z" fill="#04CE78"/>
<path d="M30.3701 21.4736V34.9657C30.3701 39.1106 33.3085 42.4774 37.4684 42.4774L47.6353 42.6121" stroke="#04CE78" stroke-width="2.6" stroke-miterlimit="10" stroke-linecap="round" stroke-linejoin="round"/>
<path d="M27.747 2.33565L26.2903 2.24088C20.0831 1.82689 16.544 9.41339 21.0442 13.688C21.1644 13.8027 21.2945 13.9174 21.4247 14.0271L29.7994 21.6087" stroke="#04CE78" stroke-width="3" stroke-miterlimit="10" stroke-linecap="round" stroke-linejoin="round"/>
<path d="M33.2233 2.11104L34.68 2.01627C40.8872 1.60228 44.4264 9.18878 39.9261 13.4634C39.806 13.5781 39.6758 13.6928 39.5457 13.8025L31.1709 21.384" stroke="#04CE78" stroke-width="3" stroke-miterlimit="10" stroke-linecap="round" stroke-linejoin="round"/>
</svg>
