<svg xmlns="http://www.w3.org/2000/svg" width="70" height="70" viewBox="0 0 70 70" fill="none"><path d="M62.3435 32.8125H7.65601C5.23976 32.8125 3.28101 34.7713 3.28101 37.1875V51.4062C3.28101 53.8225 5.23976 55.7812 7.65601 55.7812H62.3435C64.7598 55.7812 66.7185 53.8225 66.7185 51.4062V37.1875C66.7185 34.7713 64.7598 32.8125 62.3435 32.8125Z" fill="#04CE78"></path><path d="M7.65592 32.8125C6.82441 32.8139 6.01081 33.0542 5.31201 33.5048C5.61765 34.0666 5.84961 34.6655 6.00217 35.2866C6.11164 35.8897 6.168 36.5012 6.17061 37.1142C6.1735 38.0874 6.28614 39.0571 6.50639 40.005C7.41092 43.4678 9.65748 45.5361 12.5133 45.5361C17.1179 45.5536 18.4195 41.1348 19.0911 38.4081C19.7604 41.1348 21.0653 45.5547 25.6689 45.5361C28.5269 45.5361 30.7723 43.4678 31.6758 40.005C31.8968 39.0557 32.0102 38.0845 32.0137 37.1098C32.0151 36.4984 32.0707 35.8882 32.18 35.2866C32.4078 34.4109 32.7709 33.5761 33.2562 32.8125H7.65592Z" fill="#01BDB2"></path><path d="M19.0912 18.5642C11.156 9.40622 0.612286 17.9375 3.89682 26.6197C4.99057 29.5432 7.44604 31.7242 8.13729 34.8075C8.48291 36.3486 8.2226 37.9214 8.62291 39.4526C9.13369 41.405 10.3117 43.4022 12.6063 43.3475C17.7699 43.225 16.2824 34.3875 19.0912 34.0604C21.901 34.3886 20.4135 43.225 25.5771 43.3475C27.874 43.4022 29.0498 41.405 29.5606 39.4526C29.9598 37.9214 29.7006 36.3486 30.0462 34.8075C30.7374 31.7242 33.1896 29.5432 34.2867 26.6197C37.5701 17.9375 27.0231 9.40622 19.0912 18.5642Z" fill="#E4F4FD"></path><path d="M62.3435 32.8125H36.7432C37.2282 33.5758 37.5909 34.4102 37.8183 35.2855C37.9284 35.8874 37.9844 36.4979 37.9857 37.1098C37.9893 38.0841 38.1023 39.0549 38.3225 40.0039C39.2271 43.4678 41.4725 45.5361 44.3305 45.5361C48.9352 45.5536 50.2368 41.1348 50.9083 38.4081C51.5777 41.1348 52.8771 45.5547 57.4861 45.5361C60.3846 45.5361 62.5743 43.5203 63.4941 40.0039C63.7135 39.0563 63.8258 38.0869 63.8288 37.1142C63.8314 36.5012 63.8878 35.8897 63.9972 35.2866C64.1498 34.6655 64.3817 34.0666 64.6874 33.5048C63.9886 33.0542 63.175 32.8139 62.3435 32.8125Z" fill="#01BDB2"></path><path d="M50.9084 18.5642C42.9765 9.40622 32.4295 17.9375 35.713 26.6197C36.8067 29.5432 39.2622 31.7242 39.9534 34.8075C40.299 36.3486 40.0398 37.9214 40.439 39.4526C40.9498 41.405 42.1278 43.4022 44.4225 43.3475C49.5861 43.225 48.0986 34.3875 50.9084 34.0604C53.7172 34.3886 52.2297 43.225 57.3933 43.3475C59.6901 43.4022 60.8659 41.405 61.3767 39.4526C61.777 37.9214 61.5167 36.3486 61.8623 34.8075C62.5536 31.7242 65.0058 29.5432 66.1028 26.6197C69.3873 17.9375 58.8436 9.40622 50.9084 18.5642Z" fill="#E4F4FD"></path><path d="M21.8748 25.1562H16.406C15.8019 25.1562 15.3123 25.6459 15.3123 26.25V28.4375C15.3123 29.0416 15.8019 29.5312 16.406 29.5312H21.8748C22.4788 29.5312 22.9685 29.0416 22.9685 28.4375V26.25C22.9685 25.6459 22.4788 25.1562 21.8748 25.1562Z" fill="#00B6A7"></path><path d="M53.5935 25.1562H48.1248C47.5207 25.1562 47.031 25.6459 47.031 26.25V28.4375C47.031 29.0416 47.5207 29.5312 48.1248 29.5312H53.5935C54.1976 29.5312 54.6873 29.0416 54.6873 28.4375V26.25C54.6873 25.6459 54.1976 25.1562 53.5935 25.1562Z" fill="#00B6A7"></path><path d="M4.94473 30.7781C5.23457 31.2211 5.51019 31.6531 5.77379 32.0906C4.72532 32.4696 3.81881 33.162 3.17724 34.0738C2.53567 34.9855 2.19009 36.0726 2.18738 37.1875V51.4062C2.18912 52.8561 2.76585 54.2461 3.79106 55.2713C4.81627 56.2965 6.20626 56.8732 7.65613 56.875H62.3436C63.7935 56.8732 65.1835 56.2965 66.2087 55.2713C67.2339 54.2461 67.8106 52.8561 67.8124 51.4062V37.1875C67.8112 36.0652 67.4619 34.971 66.8128 34.0556C66.1636 33.1402 65.2464 32.4487 64.1877 32.0764C64.448 31.6454 64.7204 31.2156 65.0058 30.7781C65.8332 29.6012 66.5279 28.3364 67.0774 27.0068C67.9368 24.8152 67.9966 22.3908 67.2464 20.1594C66.4961 17.928 64.9837 16.0322 62.9747 14.805C59.8838 12.962 55.1719 12.6503 50.8593 16.9586C46.5466 12.6503 41.8336 12.9642 38.7438 14.805C37.1176 15.7946 35.8098 17.2303 34.9758 18.9415C34.1412 17.2307 32.8336 15.7952 31.2079 14.805C28.1169 12.9631 23.4039 12.6503 19.0913 16.9586C14.7786 12.6492 10.0657 12.9653 6.97582 14.805C4.96724 16.0318 3.45499 17.9269 2.70454 20.1576C1.95408 22.3884 2.0134 24.8122 2.87207 27.0036C3.42164 28.3343 4.11675 29.6002 4.94473 30.7781ZM65.6249 37.1875V51.4062C65.6249 52.2765 65.2792 53.1111 64.6638 53.7264C64.0485 54.3418 63.2139 54.6875 62.3436 54.6875H7.65613C6.78589 54.6875 5.95129 54.3418 5.33594 53.7264C4.72058 53.1111 4.37488 52.2765 4.37488 51.4062V37.1875C4.37725 36.4768 4.6115 35.7864 5.04205 35.221C5.47259 34.6556 6.07591 34.2462 6.76035 34.055C6.88666 34.378 6.9901 34.7095 7.06988 35.047C7.19609 35.7167 7.26089 36.3966 7.26348 37.0781C7.26402 37.9714 7.36491 38.8618 7.56426 39.7326C8.34957 42.735 10.1499 44.4434 12.5135 44.4467C16.3799 44.4467 17.3949 40.7104 18.0697 37.9936C18.3093 37.0497 18.5827 35.2111 19.0913 35.21C19.5999 35.2089 19.8733 37.0508 20.1139 37.9936C20.7888 40.7093 21.8038 44.4467 25.6691 44.4467C28.0349 44.4467 29.8341 42.735 30.6183 39.7326C30.8183 38.8608 30.9199 37.9693 30.9213 37.0748C30.9234 36.3959 30.9875 35.7186 31.1127 35.0514C31.2021 34.6607 31.3224 34.2778 31.4725 33.9062H38.478C38.6279 34.2764 38.7482 34.6578 38.8379 35.047C38.9638 35.7149 39.0286 36.3929 39.0314 37.0726C39.0309 37.9664 39.1318 38.8573 39.3322 39.7283C40.1175 42.7306 41.9179 44.439 44.2814 44.4423C48.1479 44.4423 49.1618 40.7061 49.8366 37.9892C50.0772 37.0464 50.3496 35.2056 50.8593 35.2056C51.3689 35.2056 51.6413 37.0464 51.8819 37.9892C52.5568 40.705 53.5707 44.4423 57.4371 44.4423C59.8007 44.4423 61.601 42.7306 62.3863 39.7283C62.5856 38.8575 62.6865 37.967 62.6871 37.0737C62.6899 36.3937 62.7547 35.7153 62.8807 35.047C62.961 34.7036 63.0662 34.3666 63.1957 34.0386C63.8916 34.2213 64.5074 34.6294 64.9469 35.1991C65.3864 35.7687 65.6248 36.468 65.6249 37.1875ZM21.8749 30.625C22.455 30.625 23.0114 30.3945 23.4217 29.9843C23.8319 29.574 24.0624 29.0176 24.0624 28.4375H32.1332C31.8991 28.817 31.6574 29.1965 31.4047 29.5837C30.3005 31.0839 29.4802 32.7735 28.9843 34.569C28.827 35.3671 28.7449 36.1783 28.7393 36.9917C28.7424 37.7272 28.6646 38.4607 28.5074 39.1792C28.1355 40.6011 27.36 42.3051 25.6079 42.2581C23.6008 42.2034 22.9708 40.3254 22.2391 37.4543C21.6922 35.3248 21.13 32.97 19.0968 32.97C17.0635 32.97 16.4969 35.3237 15.9555 37.4543C15.2139 40.3539 14.5861 42.2526 12.5244 42.2592C10.8466 42.2592 10.0547 40.589 9.68723 39.1792C9.53018 38.4633 9.45242 37.7323 9.45535 36.9993C9.44928 36.1844 9.36689 35.3719 9.20926 34.5723C8.71125 32.7751 7.8883 31.0844 6.78113 29.5837C6.52957 29.1965 6.28676 28.8181 6.0527 28.4375H14.2186C14.2186 29.0176 14.4491 29.574 14.8593 29.9843C15.2696 30.3945 15.826 30.625 16.4061 30.625H21.8749ZM16.4061 28.4375V26.25H21.8749V28.4375H16.4061ZM53.5936 30.625C54.1738 30.625 54.7302 30.3945 55.1404 29.9843C55.5507 29.574 55.7811 29.0176 55.7811 28.4375H63.9011C63.6671 28.817 63.4254 29.1965 63.1727 29.5837C62.0668 31.0832 61.2446 32.7725 60.7468 34.5679C60.5891 35.3675 60.5067 36.1801 60.5007 36.995C60.5034 37.7278 60.426 38.4588 60.2699 39.1748C59.8969 40.5967 59.0755 42.3303 57.3703 42.2537C55.3633 42.2067 54.7333 40.3211 54.0016 37.45C53.4547 35.3204 52.8925 32.9656 50.8593 32.9656C48.826 32.9656 48.2594 35.3194 47.7169 37.45C46.9852 40.3211 46.3552 42.2067 44.3482 42.2537C42.6332 42.3358 41.8216 40.6022 41.4486 39.1748C41.2922 38.4584 41.2144 37.7271 41.2168 36.9939C41.2116 36.1793 41.1296 35.3671 40.9718 34.5679C40.4739 32.7725 39.6517 31.0832 38.5458 29.5837C38.2943 29.1965 38.0514 28.8181 37.8174 28.4375H45.9374C45.9374 29.0176 46.1679 29.574 46.5781 29.9843C46.9883 30.3945 47.5447 30.625 48.1249 30.625H53.5936ZM48.1249 28.4375V26.25H53.5936V28.4375H48.1249ZM39.8627 16.684C43.1341 14.735 46.9371 15.6997 50.0346 19.2795C50.3827 20.2037 51.022 20.9896 51.856 21.5186C52.69 22.0476 53.6734 22.2909 54.6579 22.2118C54.9479 22.2118 55.2261 22.0966 55.4313 21.8915C55.6364 21.6864 55.7516 21.4082 55.7516 21.1181C55.7516 20.828 55.6364 20.5498 55.4313 20.3447C55.2261 20.1396 54.9479 20.0243 54.6579 20.0243C54.1624 20.1021 53.6551 20.016 53.2131 19.7791C52.7711 19.5422 52.4185 19.1675 52.2089 18.7118C55.2036 15.6067 58.7714 14.8411 61.858 16.6829C63.4272 17.6501 64.605 19.1397 65.1842 20.8896C65.7633 22.6395 65.7068 24.5376 65.0244 26.25H55.7811C55.7811 25.6698 55.5507 25.1134 55.1404 24.7032C54.7302 24.2929 54.1738 24.0625 53.5936 24.0625H48.1249C47.5447 24.0625 46.9883 24.2929 46.5781 24.7032C46.1679 25.1134 45.9374 25.6698 45.9374 26.25H36.6952C36.0126 24.5377 35.956 22.6395 36.5354 20.8897C37.1148 19.1398 38.2931 17.6505 39.8627 16.684ZM35.3007 28.4375C35.7382 29.2578 36.2249 30.0289 36.7127 30.7781C36.9194 31.0953 37.1207 31.407 37.3164 31.7187H32.6341C32.8299 31.407 33.0311 31.0953 33.2379 30.7781C33.7257 30.0289 34.2168 29.2578 34.6499 28.4375H35.3007ZM8.09363 16.684C11.3355 14.7514 15.0936 15.6909 18.1769 19.1865C18.5105 20.1348 19.1486 20.9459 19.9917 21.4932C20.8349 22.0405 21.8355 22.2932 22.8374 22.2118C23.1275 22.2118 23.4057 22.0966 23.6108 21.8915C23.8159 21.6864 23.9311 21.4082 23.9311 21.1181C23.9311 20.828 23.8159 20.5498 23.6108 20.3447C23.4057 20.1396 23.1275 20.0243 22.8374 20.0243C22.3486 20.1014 21.848 20.0186 21.4101 19.7882C20.9722 19.5579 20.6204 19.1922 20.4071 18.7458C23.4072 15.6154 26.9827 14.8345 30.0868 16.684C31.6564 17.6505 32.8349 19.1397 33.4147 20.8894C33.9944 22.6392 33.9384 24.5374 33.2564 26.25H24.0624C24.0624 25.6698 23.8319 25.1134 23.4217 24.7032C23.0114 24.2929 22.455 24.0625 21.8749 24.0625H16.4061C15.826 24.0625 15.2696 24.2929 14.8593 24.7032C14.4491 25.1134 14.2186 25.6698 14.2186 26.25H4.92176C4.23953 24.5372 4.18361 22.6387 4.76384 20.8888C5.34408 19.1389 6.52325 17.6498 8.09363 16.684Z" fill="#1E120B"></path></svg>