<svg xmlns="http://www.w3.org/2000/svg" width="70" height="70" viewBox="0 0 70 70" fill="none"><path d="M35 8.75L3.28125 6.5625V15.3125L35 13.125H37.1875V8.75H35Z" fill="#99A2A7"></path><path d="M29.5377 53.5937H9.85017C6.64822 49.2871 4.23377 45.2486 4.38143 41.5625C4.44835 40.309 4.79571 39.0865 5.39793 37.9851C5.80624 37.2141 6.36444 36.5323 7.03976 35.9799C7.71508 35.4275 8.49393 35.0155 9.33061 34.7681C10.1673 34.5208 11.0449 34.443 11.9121 34.5394C12.7792 34.6357 13.6184 34.9043 14.3804 35.3294L16.5067 36.5107C17.4817 37.0523 18.5785 37.3365 19.6938 37.3365C20.809 37.3365 21.9059 37.0523 22.8808 36.5107L25.0072 35.3294C25.7692 34.9043 26.6083 34.6357 27.4755 34.5394C28.3426 34.443 29.2203 34.5208 30.057 34.7681C30.8936 35.0155 31.6725 35.4275 32.3478 35.9799C33.0231 36.5323 33.5813 37.2141 33.9896 37.9851C34.592 39.0865 34.9394 40.309 35.0064 41.5625C35.1541 45.2486 32.7396 49.2871 29.5377 53.5937Z" fill="#E8EDF1"></path><path d="M60.1563 53.5937H40.4688C37.2669 49.2871 34.8524 45.2486 35.0001 41.5625C35.067 40.309 35.4144 39.0865 36.0166 37.9851C36.4249 37.2141 36.9831 36.5323 37.6584 35.9799C38.3337 35.4275 39.1126 35.0155 39.9493 34.7681C40.7859 34.5208 41.6636 34.443 42.5307 34.5394C43.3979 34.6357 44.2371 34.9043 44.999 35.3294L47.1254 36.5107C48.1003 37.0523 49.1972 37.3365 50.3124 37.3365C51.4277 37.3365 52.5246 37.0523 53.4995 36.5107L55.6259 35.3294C56.3878 34.9043 57.227 34.6357 58.0941 34.5394C58.9613 34.443 59.8389 34.5208 60.6756 34.7681C61.5123 35.0155 62.2911 35.4275 62.9665 35.9799C63.6418 36.5323 64.2 37.2141 64.6083 37.9851C65.2106 39.0865 65.5581 40.309 65.6251 41.5625C65.7727 45.2486 63.3583 49.2871 60.1563 53.5937Z" fill="#E8EDF1"></path><path d="M7.65625 53.5938H62.3438C63.5041 53.5938 64.6169 54.0547 65.4373 54.8752C66.2578 55.6956 66.7188 56.8084 66.7188 57.9688V66.7188H3.28125V57.9688C3.28125 56.8084 3.74219 55.6956 4.56266 54.8752C5.38313 54.0547 6.49593 53.5938 7.65625 53.5938Z" fill="#04CE78"></path><path d="M65.625 31.7188C64.2789 32.4884 63.1633 33.6043 62.394 34.9506C61.6246 36.2969 61.2297 37.8245 61.25 39.375C61.2703 37.8245 60.8754 36.2969 60.106 34.9506C59.3367 33.6043 58.2211 32.4884 56.875 31.7188C58.2211 30.9491 59.3367 29.8332 60.106 28.4869C60.8754 27.1406 61.2703 25.613 61.25 24.0625C61.2297 25.613 61.6246 27.1406 62.394 28.4869C63.1633 29.8332 64.2789 30.9491 65.625 31.7188Z" fill="#A4D4F4"></path><path d="M13.125 50.3125C11.7789 51.0821 10.6633 52.198 9.89396 53.5443C9.12465 54.8906 8.72966 56.4183 8.75 57.9688C8.77034 56.4183 8.37535 54.8906 7.60603 53.5443C6.83672 52.198 5.72111 51.0821 4.375 50.3125C5.72111 49.5429 6.83672 48.427 7.60603 47.0807C8.37535 45.7344 8.77034 44.2067 8.75 42.6562C8.72966 44.2067 9.12465 45.7344 9.89396 47.0807C10.6633 48.427 11.7789 49.5429 13.125 50.3125Z" fill="#A4D4F4"></path><path d="M41.5625 3.28125C43.303 3.28125 44.9722 3.97265 46.2029 5.20336C47.4336 6.43407 48.125 8.10327 48.125 9.84375V16.4062H35V9.84375C35 8.10327 35.6914 6.43407 36.9221 5.20336C38.1528 3.97265 39.822 3.28125 41.5625 3.28125Z" fill="#B5B8B9"></path><path d="M39.375 16.4062H43.75V20.7812H39.375V16.4062Z" fill="#99A2A7"></path><path d="M39.375 20.7812H43.75C44.3302 20.7812 44.8866 21.0117 45.2968 21.422C45.707 21.8322 45.9375 22.3886 45.9375 22.9688V29.5312H37.1875V22.9688C37.1875 22.3886 37.418 21.8322 37.8282 21.422C38.2384 21.0117 38.7948 20.7812 39.375 20.7812Z" fill="#E8EDF1"></path><path d="M37.1875 25.1562H45.9375V29.5312H37.1875V25.1562Z" fill="#D9DBDD"></path><path d="M17.5 7.54277V14.3322L3.28125 15.3125V6.5625L17.5 7.54277Z" fill="#B5B8B9"></path><path d="M2.5349 5.76288C2.42526 5.86523 2.33784 5.98904 2.27808 6.1266C2.21831 6.26417 2.18748 6.41256 2.1875 6.56255V15.3126C2.1875 15.6026 2.30273 15.8808 2.50785 16.0859C2.71297 16.2911 2.99117 16.4063 3.28125 16.4063C3.30627 16.4063 3.33129 16.4055 3.35645 16.4037L33.9062 14.2969V16.4063C33.9062 16.6964 34.0215 16.9746 34.2266 17.1797C34.4317 17.3848 34.7099 17.5001 35 17.5001H38.2812V19.8757C37.642 20.1025 37.0886 20.5216 36.697 21.0753C36.3053 21.6291 36.0946 22.2905 36.0938 22.9688V29.5313C36.0938 29.8214 36.209 30.0996 36.4141 30.3047C36.6192 30.5098 36.8974 30.6251 37.1875 30.6251H45.9375C46.2276 30.6251 46.5058 30.5098 46.7109 30.3047C46.916 30.0996 47.0312 29.8214 47.0312 29.5313V22.9688C47.0304 22.2905 46.8197 21.6291 46.428 21.0753C46.0364 20.5216 45.483 20.1025 44.8438 19.8757V17.5001H48.125C48.4151 17.5001 48.6933 17.3848 48.8984 17.1797C49.1035 16.9746 49.2188 16.6964 49.2188 16.4063V9.8438C49.2187 8.00972 48.5602 6.23661 47.3631 4.84706C46.1661 3.4575 44.51 2.54383 42.6961 2.27227C40.8822 2.00071 39.0312 2.38932 37.4796 3.36738C35.9281 4.34544 34.7792 5.84797 34.242 7.60161L3.35645 5.4714C3.20681 5.46076 3.0566 5.48117 2.91523 5.53132C2.77385 5.58148 2.64437 5.66032 2.5349 5.76288ZM39.375 21.8751H43.75C44.04 21.8754 44.318 21.9907 44.523 22.1958C44.7281 22.4008 44.8434 22.6788 44.8438 22.9688V24.0626H38.2812V22.9688C38.2816 22.6788 38.3969 22.4008 38.602 22.1958C38.807 21.9907 39.085 21.8754 39.375 21.8751ZM38.2812 28.4376V26.2501H44.8438V28.4376H38.2812ZM42.6562 19.6875H40.4688V17.5001H42.6562V19.6875ZM36.0938 9.8438C36.0938 8.3934 36.6699 7.0024 37.6955 5.97681C38.7211 4.95122 40.1121 4.37505 41.5625 4.37505C43.0129 4.37505 44.4039 4.95122 45.4295 5.97681C46.4551 7.0024 47.0312 8.3934 47.0312 9.8438V15.3126H36.0938V9.8438ZM33.9062 9.8438V12.104L18.5938 13.1602V8.71491L33.908 9.7712C33.9079 9.7954 33.9062 9.81946 33.9062 9.8438ZM4.375 7.73423L16.4062 8.56411V13.311L4.375 14.1409V7.73423Z" fill="#000D44"></path><path d="M62.3438 52.5H62.298C64.8145 48.9114 66.8644 45.1616 66.7178 41.5187C66.6439 40.1031 66.254 38.7219 65.5767 37.4765C65.0891 36.547 64.4137 35.7289 63.5934 35.0741C64.2342 34.0921 65.0995 33.2767 66.1177 32.6952C66.2978 32.6035 66.4489 32.4639 66.5545 32.2916C66.6601 32.1194 66.7161 31.9214 66.7162 31.7194C66.7163 31.5173 66.6606 31.3192 66.5552 31.1469C66.4498 30.9746 66.2987 30.8347 66.1188 30.7429C65.9647 30.6638 62.3438 28.7544 62.3438 24.0625C62.3438 23.7724 62.2285 23.4942 62.0234 23.2891C61.8183 23.084 61.5401 22.9688 61.25 22.9688C60.9599 22.9688 60.6817 23.084 60.4766 23.2891C60.2715 23.4942 60.1562 23.7724 60.1562 24.0625C60.1562 28.7544 56.5353 30.6638 56.3858 30.7405C56.2052 30.8317 56.0533 30.9711 55.947 31.1433C55.8408 31.3155 55.7843 31.5138 55.7838 31.7162C55.7833 31.9185 55.8389 32.117 55.9443 32.2898C56.0498 32.4625 56.201 32.6026 56.3812 32.6946C56.7959 32.9235 57.1837 33.198 57.5374 33.513C56.6803 33.6591 55.8543 33.95 55.0948 34.3733L52.9684 35.5547C52.1569 36.009 51.2425 36.2475 50.3125 36.2475C49.3825 36.2475 48.4681 36.009 47.6566 35.5547L45.5302 34.3733C44.6408 33.8774 43.6613 33.5642 42.6492 33.4521C41.6371 33.3399 40.6128 33.431 39.6363 33.7201C38.6599 34.0092 37.7511 34.4904 36.9632 35.1355C36.1753 35.7807 35.5242 36.5766 35.0481 37.4768C35.0323 37.5069 35.0187 37.5371 35.0031 37.5673C34.9877 37.5371 34.9742 37.5069 34.9583 37.4768C34.4822 36.5766 33.8311 35.7806 33.0432 35.1355C32.2553 34.4904 31.3465 34.0092 30.3701 33.7201C29.3937 33.431 28.3694 33.3398 27.3573 33.452C26.3451 33.5642 25.3656 33.8774 24.4762 34.3733L22.3498 35.5547C21.5384 36.009 20.6239 36.2475 19.6939 36.2475C18.7639 36.2475 17.8495 36.009 17.038 35.5547L14.9115 34.3733C14.0221 33.8774 13.0426 33.5642 12.0305 33.4521C11.0184 33.3399 9.99414 33.4311 9.01776 33.7201C8.04137 34.0092 7.13257 34.4905 6.3447 35.1356C5.55682 35.7807 4.90575 36.5766 4.42969 37.4768C3.75241 38.7222 3.36253 40.1034 3.28863 41.5192C3.2066 43.5675 3.82457 45.8258 5.1707 48.4008C4.78208 48.7634 4.35048 49.077 3.88555 49.3347C3.7049 49.4259 3.55304 49.5653 3.44678 49.7375C3.34052 49.9097 3.28402 50.108 3.28354 50.3103C3.28305 50.5127 3.33861 50.7112 3.44405 50.8839C3.54949 51.0566 3.70069 51.1968 3.8809 51.2888C4.59518 51.6912 5.23421 52.2146 5.76953 52.8355C4.71963 53.2228 3.81353 53.9224 3.17314 54.8401C2.53274 55.7578 2.18877 56.8497 2.1875 57.9688V66.7188C2.1875 67.0088 2.30273 67.287 2.50785 67.4921C2.71297 67.6973 2.99117 67.8125 3.28125 67.8125H66.7188C67.0088 67.8125 67.287 67.6973 67.4921 67.4921C67.6973 67.287 67.8125 67.0088 67.8125 66.7188V57.9688C67.8109 56.5188 67.2342 55.1288 66.2089 54.1036C65.1837 53.0783 63.7937 52.5016 62.3438 52.5ZM61.25 28.6973C61.8586 29.8568 62.6916 30.8839 63.7006 31.7188C62.6916 32.5536 61.8586 33.5807 61.25 34.7402C60.6414 33.5807 59.8084 32.5536 58.7994 31.7188C59.8084 30.8839 60.6414 29.8568 61.25 28.6973ZM36.0928 41.6063C36.1546 40.5153 36.4594 39.4519 36.9847 38.4937C37.3193 37.8532 37.7795 37.2866 38.3379 36.828C38.8964 36.3693 39.5415 36.0279 40.2348 35.8241C40.9352 35.6127 41.671 35.5445 42.3983 35.6238C43.1256 35.703 43.8295 35.9281 44.4679 36.2854L46.5944 37.4668C47.7304 38.1029 49.0106 38.4368 50.3125 38.4368C51.6144 38.4368 52.8946 38.1029 54.0306 37.4668L56.1572 36.2852C57.0921 35.762 58.1609 35.5271 59.229 35.61C59.8527 36.766 60.1718 38.0616 60.1562 39.375C60.1562 39.6651 60.2715 39.9433 60.4766 40.1484C60.6817 40.3535 60.9599 40.4688 61.25 40.4688C61.5401 40.4688 61.8183 40.3535 62.0234 40.1484C62.2285 39.9433 62.3438 39.6651 62.3438 39.375C62.3406 38.6246 62.4413 37.8774 62.6428 37.1546C63.0428 37.5465 63.3795 37.9983 63.6408 38.4937C64.1663 39.4518 64.4711 40.5152 64.5329 41.6063C64.6112 43.5626 64.0752 46.3888 59.6038 52.5H41.0208C38.4527 49.0021 35.9557 45.0308 36.0928 41.6063ZM38.3268 52.5H31.6796C32.999 50.6186 34.1898 48.6928 35.0031 46.7614C35.8165 48.6928 37.0074 50.6186 38.3268 52.5ZM5.47422 41.6063C5.53604 40.5152 5.84083 39.4518 6.36631 38.4937C6.70083 37.8532 7.16103 37.2867 7.71943 36.828C8.27782 36.3693 8.92294 36.0279 9.61625 35.8241C10.3167 35.6127 11.0525 35.5445 11.7799 35.6237C12.5072 35.7029 13.2111 35.9279 13.8496 36.2852L15.9761 37.4665C17.1121 38.1026 18.3923 38.4366 19.6942 38.4366C20.9961 38.4366 22.2763 38.1026 23.4123 37.4665L25.5391 36.2852C26.1774 35.9276 26.8813 35.7025 27.6087 35.6233C28.336 35.5441 29.0719 35.6123 29.7723 35.824C30.4656 36.0277 31.1107 36.3691 31.6691 36.8277C32.2274 37.2864 32.6876 37.8529 33.0221 38.4934C33.5476 39.4516 33.8524 40.515 33.9142 41.606C33.992 43.5626 33.4559 46.3887 28.9844 52.5H12.0427C12.506 52.0218 13.0366 51.6138 13.6177 51.2889C13.7977 51.1973 13.9489 51.0576 14.0545 50.8854C14.1601 50.7132 14.2161 50.5151 14.2162 50.3131C14.2163 50.1111 14.1606 49.913 14.0552 49.7406C13.9497 49.5683 13.7987 49.4285 13.6188 49.3366C13.4647 49.2576 9.84375 47.3482 9.84375 42.6562C9.84375 42.3662 9.72852 42.088 9.5234 41.8829C9.31828 41.6777 9.04008 41.5625 8.75 41.5625C8.45992 41.5625 8.18172 41.6777 7.9766 41.8829C7.77148 42.088 7.65625 42.3662 7.65625 42.6562C7.67301 44.0063 7.33554 45.3372 6.67748 46.5161C5.81301 44.6616 5.41666 43.0441 5.47422 41.6063ZM8.75 47.291C9.3586 48.4506 10.1916 49.4776 11.2005 50.3125C10.1916 51.1474 9.3586 52.1744 8.75 53.334C8.1414 52.1744 7.30842 51.1474 6.29945 50.3125C7.30842 49.4776 8.1414 48.4506 8.75 47.291ZM65.625 65.625H4.375V57.9688C4.37599 57.2127 4.63762 56.48 5.11578 55.8944C5.59395 55.3087 6.25941 54.9058 7 54.7535C7.44264 55.7671 7.66627 56.8628 7.65625 57.9688C7.65625 58.2588 7.77148 58.537 7.9766 58.7421C8.18172 58.9473 8.45992 59.0625 8.75 59.0625C9.04008 59.0625 9.31828 58.9473 9.5234 58.7421C9.72852 58.537 9.84375 58.2588 9.84375 57.9688C9.83292 56.8384 10.0665 55.7191 10.5286 54.6875H62.3438C63.2137 54.6885 64.0477 55.0345 64.6628 55.6497C65.278 56.2648 65.624 57.0988 65.625 57.9688V65.625Z" fill="#000D44"></path><path d="M41.5634 47.0313C41.7664 47.0311 41.9654 46.9744 42.1381 46.8676C42.3108 46.7607 42.4503 46.6079 42.541 46.4263C42.6318 46.2446 42.6701 46.0413 42.6519 45.8391C42.6336 45.6369 42.5594 45.4437 42.4376 45.2813C41.4805 44.0058 41.0746 42.8613 41.2296 41.8801C41.3332 41.2452 41.6728 40.6728 42.1804 40.2776L42.1767 40.2801C42.4145 40.117 42.5783 39.8666 42.6324 39.5834C42.6866 39.3001 42.6266 39.0069 42.4657 38.7677C42.3048 38.5284 42.0558 38.3623 41.7731 38.3056C41.4904 38.249 41.1967 38.3062 40.9559 38.465L40.9543 38.4661L40.9468 38.4713C39.9562 39.1924 39.2861 40.2715 39.0791 41.4791C38.8041 43.0834 39.3454 44.8043 40.6877 46.5939C40.7895 46.7299 40.9217 46.8403 41.0738 46.9162C41.2258 46.9922 41.3934 47.0316 41.5634 47.0313Z" fill="#000D44"></path></svg>