<svg xmlns="http://www.w3.org/2000/svg" width="70" height="70" viewBox="0 0 70 70" fill="none"><g clip-path="url(#clip0_237_956)"><path d="M3.56592 47.1113C3.56592 54.4098 3.56592 66.5021 3.56592 66.7862C3.56592 67.791 4.38008 68.6054 5.38496 68.6054H7.81035C8.81496 68.6054 9.62939 67.791 9.62939 66.7862C9.62939 65.442 9.62939 54.0908 9.62939 47.1113H3.56592Z" fill="#C6A875"></path><path d="M8.11182 68.5784C8.11236 68.5782 8.11291 68.5782 8.11346 68.5781C7.2535 68.4335 6.59779 67.6872 6.59779 66.7861C6.59779 66.5019 6.59779 54.4098 6.59779 47.1112H3.56592C3.56592 54.4097 3.56592 66.502 3.56592 66.7861C3.56592 67.7907 4.38008 68.6053 5.38496 68.6053C7.92219 68.6054 7.87721 68.6177 8.11182 68.5784Z" fill="#B5915D"></path><path d="M11.4488 25.0708V45.7383C11.4488 46.7431 10.6346 47.5575 9.62962 47.5575H3.56601C2.56112 47.5575 1.74683 46.7431 1.74683 45.7383V22.3927C1.74683 21.388 2.56099 20.5736 3.56601 20.5736H9.62962C10.6345 20.5736 11.4488 21.388 11.4488 22.3927V25.0708Z" fill="#AA9A79"></path><path d="M6.59774 45.7383V22.3927C6.59774 21.388 7.4119 20.5736 8.41692 20.5736H3.56601C2.56112 20.5736 1.74683 21.388 1.74683 22.3927V45.7382C1.74683 46.7429 2.56099 47.5574 3.56601 47.5574H8.41692C7.41204 47.5575 6.59774 46.7429 6.59774 45.7383Z" fill="#A08D70"></path><path d="M11.4481 25.0715H1.74683V43.0613H11.4481V25.0715Z" fill="#C6A875"></path><path d="M6.59774 25.0715H1.74683V43.0613H6.59774V25.0715Z" fill="#B5915D"></path><path d="M64.0977 14.3456C62.1454 12.3033 60.0595 11.1609 59.0567 10.846L59.0575 10.8489C53.8586 8.64759 48.1367 9.65152 43.4341 12.7732C41.418 11.4346 39.2331 10.497 36.9956 10.0237C36.2536 9.90075 35.7636 10.3601 35.6518 11.015L35.6515 11.0147C34.812 13.8756 31.5796 15.27 28.9292 13.9351C28.9292 13.9351 28.9292 13.9351 28.9289 13.9351C27.7178 13.3212 27.4726 14.4387 27.2761 14.6285C25.9707 16.5845 23.7777 17.8946 21.2725 17.9877L21.2736 17.9908C21.2736 17.9908 20.1032 17.9622 19.7001 18.8937C15.3164 28.2969 18.9867 40.8319 27.7922 46.937C25.7997 62.3174 35.1507 75.5988 35.7352 64.5028C35.8326 62.6843 35.2947 53.887 41.1367 52.1993C41.1371 52.1993 41.1386 52.1983 41.1386 52.1983C42.6407 51.7458 44.121 51.7143 45.7293 52.1983L45.7307 52.1993C47.4174 52.685 49.1861 54.1868 50.1314 56.706C50.1865 56.8619 50.2499 57.0587 50.2499 57.0587C51.6676 61.5159 50.6567 64.308 51.5304 67.0592C53.4217 73.0077 60.8743 60.8274 59.0752 46.9369C69.7338 39.5481 72.4548 23.2252 64.0977 14.3456Z" fill="#B0DCF7"></path><path d="M30.6714 47.1071C30.762 45.399 29.696 44.5769 29.696 44.5769L29.6973 44.5755C21.9352 38.373 18.6265 26.8618 22.5554 17.828C22.1392 17.9159 21.711 17.9714 21.2725 17.9877L21.2736 17.9908C21.2736 17.9908 20.1032 17.9623 19.7001 18.8937C15.2992 28.334 19.0156 40.8519 27.7922 46.9371C25.9346 61.2756 33.9485 73.8373 35.5095 66.3885C33.2101 64.2576 30.072 57.0566 30.6714 47.1071Z" fill="#7AC1DD"></path><path d="M64.0979 14.3456C62.1455 12.3033 60.0596 11.1609 59.0568 10.846L59.0576 10.8489C54.1059 8.7523 48.5627 9.53323 43.8388 12.5114C38.5095 28.3176 44.804 45.8023 59.2012 54.5472C59.4248 52.1466 59.4172 49.5728 59.0758 46.937C69.734 39.5481 72.4549 23.2252 64.0979 14.3456Z" fill="#BBE6FC"></path><path d="M14.5398 3.39643V6.12041C14.5398 7.24902 13.6249 8.16354 12.4967 8.16354H7.58561C6.4574 8.16354 5.54248 7.24889 5.54248 6.12041V3.39643C5.54248 2.26795 6.4574 1.35303 7.58561 1.35303H12.4968C13.6249 1.35303 14.5398 2.26795 14.5398 3.39643Z" fill="#DBDADF"></path><path d="M12.4969 4.97425H7.58568C6.53637 4.97425 5.67231 4.18251 5.55678 3.16382C5.53723 3.33622 5.5427 3.15233 5.5427 6.12036C5.5427 7.24897 6.45762 8.16349 7.58582 8.16349H12.497C13.6252 8.16349 14.5402 7.24884 14.5402 6.12036C14.5402 3.15397 14.5455 3.33485 14.5261 3.16382C14.4101 4.18265 13.5463 4.97425 12.4969 4.97425Z" fill="#B8BFC1"></path><path d="M68.454 19.5047L68.4569 19.5111C67.6253 17.3697 66.2192 15.1018 64.4075 13.3097C64.0262 12.8998 63.3849 12.8718 62.969 13.2492C62.5499 13.6294 62.5184 14.2776 62.8986 14.6968C63.0226 14.8334 63.5313 15.3036 64.1672 16.1119C70.8705 24.5762 68.2704 39.2764 58.4124 46.1114C58.0975 46.3296 57.9309 46.7051 57.9801 47.0852C59.4452 58.3966 54.5874 67.5873 52.9137 67.5891C52.7771 67.5891 52.5126 67.1103 52.3506 66.476C51.7437 64.131 52.487 60.3018 51.0166 56.3636C48.4333 48.9636 38.2829 48.9438 35.6981 56.38C34.2642 60.4686 34.9545 64.1653 34.3699 66.4784C34.087 67.5573 33.8067 67.5891 33.8067 67.5891C32.1708 67.5873 27.2643 58.4817 28.7408 47.0852C28.79 46.7054 28.6233 46.3296 28.3083 46.1114C21.0269 41.0628 17.2997 31.2722 19.3784 22.7509C19.714 21.3826 20.05 20.5671 20.3704 19.7828C20.577 19.3149 20.6184 19.0674 21.1916 19.0427C21.2584 19.0454 21.3242 19.042 21.3882 19.0322C24.1962 18.8804 26.8302 17.3329 28.308 14.8323C32.2023 16.6248 35.7659 14.3227 36.5712 11.308C36.5947 11.2258 36.6147 11.1172 36.6598 11.0576C36.7964 11.0446 39.685 11.5919 42.7935 13.6558C43.137 13.884 43.5835 13.8839 43.9271 13.656C49.4655 9.97961 55.6642 9.87734 60.2733 12.6799C61.3707 13.3444 62.6551 11.6842 61.1395 10.8111C55.9501 7.79101 49.2944 7.90367 43.3604 11.5844C41.1499 10.2137 38.6705 9.31091 37.0918 9.0424C35.7919 8.82666 34.8634 9.68279 34.6428 10.5853C34.0783 12.8709 31.5308 14.1482 29.3105 13.0424C28.1468 12.4471 27.0453 12.8908 26.632 13.6352C26.588 13.7144 26.5425 13.7923 26.4953 13.8694C26.4726 13.9064 26.4524 13.9451 26.4346 13.9846C26.3158 14.1215 24.7096 16.8585 21.1691 16.9901C20.0798 17.0373 19.1274 17.531 18.7014 18.4981C18.1243 19.739 17.6924 21.0073 17.3778 22.304C15.2035 31.1851 18.8319 41.6973 26.6345 47.4338C25.4197 58.3381 29.8349 69.6344 33.8051 69.6381C37.1591 69.6381 36.5859 63.4153 36.8268 60.9527C37.1321 57.6999 38.2117 54.1112 41.3491 53.1978V53.1975C45.1745 52.1037 48.0748 53.9754 49.1976 57.3819L49.1974 57.382C50.5326 61.5576 49.5368 64.4303 50.4777 67.3784C51.1025 69.344 52.2713 69.6381 52.9136 69.6381C56.8561 69.6381 61.3096 58.4178 60.0863 47.4338C68.9332 40.9303 72.2388 28.3435 68.454 19.5047Z" fill="#231F20"></path><path d="M19.4128 5.81507C19.9788 5.81507 20.4377 5.35638 20.4377 4.79022C20.4377 4.22407 19.9788 3.76538 19.4128 3.76538H15.5018V3.42851C15.5018 1.73702 14.1259 0.361084 12.4347 0.361084H7.52539C5.83418 0.361084 4.45825 1.73702 4.45825 3.42851V3.76538H2.74161C1.3658 3.76538 0.00723031 4.80103 0.00723031 6.85974C0.00723031 12.7065 -0.0534728 12.4807 0.176898 12.8296L4.63284 19.5749H3.50723C1.93948 19.5749 0.66389 20.8503 0.66389 22.4182C0.66389 22.5452 0.66389 45.3688 0.66389 45.7551C0.66389 46.9613 1.42022 47.9917 2.48239 48.4042V66.7955C2.48239 68.3632 3.75784 69.6388 5.32573 69.6388H7.75016C9.31791 69.6388 10.5935 68.3633 10.5935 66.7955V56.1447C10.5935 55.5785 10.1347 55.1198 9.56866 55.1198C9.00264 55.1198 8.54381 55.5785 8.54381 56.1447V66.7955C8.54381 67.2331 8.1878 67.5892 7.75002 67.5892H5.32573C4.88809 67.5892 4.53194 67.2334 4.53194 66.7955V48.5982H8.54381V52.8651C8.54381 53.4312 9.00264 53.8899 9.56866 53.8899C10.1347 53.8899 10.5935 53.4312 10.5935 52.8651V48.4039C11.6557 47.9914 12.412 46.9608 12.412 45.7549V31.2766C12.412 30.7105 11.9532 30.2518 11.3872 30.2518C10.8211 30.2518 10.3623 30.7105 10.3623 31.2766V42.0531H2.71358V26.1197H10.3624V27.815C10.3624 28.3812 10.8213 28.8399 11.3873 28.8399C11.9533 28.8399 12.4121 28.3812 12.4121 27.815V22.4181C12.4121 20.8503 11.1367 19.5747 9.56879 19.5747H7.08926L2.05678 11.9567V6.85974C2.05678 5.98651 2.41321 5.83681 2.76909 5.81507H4.45838V6.15194C4.45838 7.84329 5.83432 9.21909 7.52553 9.21909H12.435C14.1262 9.21909 15.5021 7.84329 15.5021 6.15194V5.81507C15.5018 5.81507 19.4128 5.81507 19.4128 5.81507ZM10.3623 44.1026V45.7551C10.3623 46.1928 10.0064 46.5489 9.56852 46.5489H3.50723C3.06959 46.5489 2.71344 46.193 2.71344 45.7551V44.1026H10.3623ZM10.3623 22.4181V24.0703H2.71358V22.4181C2.71358 21.9804 3.06959 21.6243 3.50737 21.6243C10.9774 21.6243 2.37643 21.6243 9.56879 21.6243C10.0063 21.6244 10.3623 21.9803 10.3623 22.4181ZM13.4523 6.15181C13.4523 6.7129 12.9958 7.1694 12.4347 7.1694H7.52539C6.9643 7.1694 6.5078 6.7129 6.5078 6.15181V3.42864C6.5078 2.86741 6.9643 2.41077 7.52539 2.41077H12.4348C12.9959 2.41077 13.4524 2.86741 13.4524 3.42864L13.4523 6.15181Z" fill="#231F20"></path></g><defs><clipPath id="clip0_237_956"><rect width="70" height="70" fill="white"></rect></clipPath></defs></svg>