<svg xmlns="http://www.w3.org/2000/svg" width="70" height="70" viewBox="0 0 70 70" fill="none"><path d="M53.7766 28.4375L55.835 15.0631C55.9214 14.4998 55.9652 13.9311 55.9652 13.3623C55.9652 7.19031 50.9613 2.1875 44.7903 2.1875H43.1071C40.1353 2.1875 37.285 3.36766 35.1828 5.46875C33.0807 3.36766 30.2314 2.1875 27.2586 2.1875H25.5754C19.4033 2.1875 14.4005 7.19031 14.3994 13.3623C14.3994 13.9322 14.4432 14.5009 14.5296 15.0631L16.5891 28.4375" fill="#DCDCDC"></path><path d="M55.9651 13.3623C55.9651 7.19031 50.9612 2.1875 44.7902 2.1875H43.107C40.1352 2.1875 37.2849 3.36766 35.1827 5.46875C33.272 3.55906 30.7421 2.42047 28.0657 2.22688C22.2645 2.63375 17.6816 7.45719 17.6816 13.3612C17.6816 13.9311 17.7254 14.4998 17.8118 15.062L19.8702 28.4375H53.7765L55.8349 15.0631C55.9213 14.4998 55.9651 13.9311 55.9651 13.3623Z" fill="#EEEEEE"></path><path d="M43.9326 33.2642C49.7907 32.3433 53.7764 30.5277 53.7764 28.4375C53.7764 25.4177 45.4518 22.9688 35.1826 22.9688C24.9134 22.9688 16.5889 25.4177 16.5889 28.4375C16.5889 30.5277 20.5745 32.3433 26.4326 33.2642" fill="#C8C8C8"></path><path d="M19.8701 13.125H17.6826C17.6826 8.90313 21.117 5.46875 25.3389 5.46875V7.65625C22.3234 7.65625 19.8701 10.1095 19.8701 13.125Z" fill="white"></path><path d="M16.8931 27.4772C18.7896 29.9053 26.1681 31.7188 35.0001 31.7188C44.1526 31.7188 51.7443 29.7719 53.2898 27.2103C51.3932 24.7822 44.0148 22.9688 35.1828 22.9688C26.0303 22.9688 18.4385 24.9156 16.8931 27.4772Z" fill="#959595"></path><path d="M47.2139 39.375C45.1642 38.0089 43.9326 35.7077 43.9326 33.2434V31.7188C43.9326 29.9064 42.4637 28.4375 40.6514 28.4375H29.7139C27.9015 28.4375 26.4326 29.9064 26.4326 31.7188V33.2434C26.4326 35.7077 25.2011 38.0078 23.1514 39.375" fill="#FFD992"></path><path d="M43.9327 33.2434V31.7188C43.9327 29.9064 42.4637 28.4375 40.6514 28.4375H32.8125C31.0002 28.4375 29.5312 29.9064 29.5312 31.7188V33.2434C29.5312 35.7077 28.2997 38.0078 26.25 39.375H47.2139C45.1642 38.0078 43.9327 35.7077 43.9327 33.2434Z" fill="#FFE1B2"></path><path d="M35.1826 39.375H52.6826L49.0109 47.6361C48.5471 48.6795 48.3076 49.8094 48.3076 50.9513C48.3076 56.2855 47.0651 61.5464 44.6796 66.3184C44.2225 67.2339 43.2862 67.8125 42.2614 67.8125C40.7684 67.8125 39.5576 66.6017 39.5576 65.1087C39.5576 61.0903 39.1179 57.0839 38.2462 53.1606L37.8448 51.3548C37.5681 50.1069 36.4612 49.2188 35.1826 49.2188C33.904 49.2188 32.7982 50.1069 32.5204 51.3537L32.119 53.1595C31.2473 57.0828 30.8076 61.0892 30.8076 65.1077C30.8076 66.6006 29.5968 67.8114 28.1039 67.8114C27.0801 67.8114 26.1439 67.2328 25.6856 66.3162C23.3001 61.5453 22.0576 56.2833 22.0576 50.9491C22.0576 49.8072 21.8181 48.6773 21.3543 47.6339L17.6826 39.375H35.1826Z" fill="#DCDCDC"></path><path d="M35.1826 39.375H21.2668L24.4518 46.5423C24.9167 47.5858 25.1562 48.7145 25.1562 49.8575C25.1562 55.1917 26.3987 60.4537 28.7842 65.2247C29.1134 65.882 29.6931 66.3556 30.3701 66.5766C30.6447 66.1533 30.8076 65.6512 30.8076 65.1098C30.8076 61.0914 31.2473 57.085 32.119 53.1617L32.5204 51.3559C32.7983 50.1069 33.9051 49.2188 35.1826 49.2188C36.4601 49.2188 37.567 50.1069 37.8448 51.3537L38.2462 53.1595C39.1179 57.0828 39.5576 61.0892 39.5576 65.1077C39.5576 66.6006 40.7684 67.8114 42.2614 67.8114C43.2851 67.8114 44.2214 67.2328 44.6797 66.3162C47.0651 61.5453 48.3076 56.2833 48.3076 50.9491C48.3076 49.8072 48.5472 48.6773 49.0109 47.6339L52.6826 39.375H35.1826Z" fill="#EEEEEE"></path><path d="M54.8495 28.6027L54.8571 28.6038L56.9155 15.2283C57.0107 14.6092 57.0588 13.9803 57.0577 13.3612C57.0577 6.5975 51.554 1.09375 44.7902 1.09375H43.107C40.1746 1.09375 37.3987 2.11312 35.1827 3.98453C32.9679 2.11312 30.192 1.09375 27.2596 1.09375H25.5763C18.8115 1.09375 13.3077 6.5975 13.3066 13.3623C13.3066 13.9836 13.3548 14.6125 13.4499 15.2305L15.5084 28.6048L15.516 28.6038C15.7162 31.9419 21.757 33.5322 25.2635 34.1731C25.0196 35.8116 24.1348 37.2859 22.7873 38.2812H17.6838C17.3141 38.2812 16.9685 38.4683 16.7673 38.7789C16.566 39.0895 16.5343 39.4811 16.6852 39.8191L20.357 48.0802C20.7605 48.9891 20.9662 49.9548 20.9662 50.9512C20.9662 56.4266 22.2612 61.9095 24.709 66.8073C25.3554 68.1023 26.657 68.9062 28.104 68.9062C30.1985 68.9062 31.9015 67.2022 31.9015 65.1087C31.9015 61.1778 32.3346 57.237 33.1866 53.398L33.588 51.5911C33.7554 50.8386 34.4116 50.3125 35.1827 50.3125C35.9549 50.3125 36.6101 50.8386 36.7774 51.5911L37.1788 53.398C38.0309 57.2359 38.464 61.1756 38.464 65.1087C38.464 67.2033 40.168 68.9062 42.2615 68.9062C43.7096 68.9062 45.0112 68.1023 45.6587 66.8073C48.1076 61.9095 49.4015 56.4277 49.4015 50.9512C49.4015 49.9559 49.6071 48.9902 50.0118 48.0802L53.6824 39.8191C53.8323 39.48 53.8016 39.0895 53.5993 38.7789C53.397 38.4683 53.0524 38.2812 52.6827 38.2812H47.5793C46.2318 37.2859 45.347 35.8116 45.103 34.1731C48.6096 33.5322 54.6493 31.9419 54.8495 28.6027ZM25.5763 3.28125H27.2596C29.9601 3.28125 32.4998 4.33234 34.4095 6.24203C34.8371 6.66969 35.5284 6.66859 35.956 6.24203C37.8668 4.33234 40.4054 3.28125 43.107 3.28125H44.7902C50.3487 3.28125 54.8713 7.80391 54.8713 13.3634C54.8713 13.872 54.832 14.3894 54.7543 14.8969L53.1137 25.5577C49.8423 23.1306 42.4813 21.875 35.1827 21.875C27.8841 21.875 20.5232 23.1306 17.2518 25.5577L15.6112 14.8969C15.5335 14.3894 15.4941 13.872 15.4941 13.3623C15.4952 7.80391 20.0179 3.28125 25.5763 3.28125ZM48.0124 47.1909C47.483 48.382 47.214 49.6464 47.214 50.9502C47.214 56.0886 45.9999 61.2325 43.702 65.8284C43.4274 66.3775 42.8762 66.7188 42.2615 66.7188C41.3734 66.7188 40.6515 65.9958 40.6515 65.1087C40.6515 61.0159 40.202 56.9166 39.3138 52.9233L38.9124 51.1164C38.5209 49.3555 36.9874 48.125 35.1827 48.125C33.378 48.125 31.8446 49.3555 31.453 51.1164L31.0516 52.9233C30.1635 56.9177 29.714 61.017 29.714 65.1087C29.714 65.9969 28.991 66.7188 28.104 66.7188C27.4904 66.7188 26.9391 66.3775 26.6646 65.8284C24.3666 61.2325 23.1526 56.0886 23.1526 50.9502C23.1526 49.6464 22.8835 48.3809 22.3552 47.1909L19.366 40.4688H51.0005L48.0124 47.1909ZM25.853 38.2812C26.9205 36.8441 27.5265 35.0897 27.5265 33.2445V31.7188C27.5265 30.5123 28.5076 29.5312 29.714 29.5312H40.6515C41.8579 29.5312 42.839 30.5123 42.839 31.7188V33.2445C42.839 35.0908 43.4449 36.8441 44.5124 38.2812H25.853ZM45.0265 31.9648V31.7188C45.0265 29.3059 43.0643 27.3438 40.6515 27.3438H29.714C27.3012 27.3438 25.339 29.3059 25.339 31.7188V31.9648C19.7904 30.9192 17.6827 29.2819 17.6827 28.4375C17.6827 26.9106 23.6929 24.0625 35.1827 24.0625C46.6726 24.0625 52.6827 26.9106 52.6827 28.4375C52.6827 29.2819 50.5751 30.9192 45.0265 31.9648Z" fill="#000D44"></path><path d="M25.3389 7.65625V5.46875C21.117 5.46875 17.6826 8.90313 17.6826 13.125H19.8701C19.8701 10.1095 22.3234 7.65625 25.3389 7.65625Z" fill="#000D44"></path></svg>