<svg xmlns="http://www.w3.org/2000/svg" width="70" height="70" viewBox="0 0 70 70" fill="none"><g clip-path="url(#clip0_239_1090)"><path d="M52.6828 20.254L52.6845 24.2455C52.6849 25.0009 52.0729 25.6137 51.3176 25.6142L46.9406 25.6169C46.1853 25.6173 45.5725 25.0054 45.572 24.25L45.5703 20.2531L52.6828 20.254Z" fill="#BCF1F8"></path><path d="M52.6846 24.2458C52.6846 25.0004 52.0734 25.6143 51.3174 25.6143H47.2158C47.9719 25.6143 48.583 25.0004 48.583 24.2458L48.5816 21.5127L52.6832 21.51L52.6846 24.2458Z" fill="#A0F0F2"></path><path d="M62.8906 61.4551V38.6008C62.8906 36.3549 61.5326 34.3319 59.4539 33.4811C57.91 32.849 56.1632 32.9473 54.6999 33.7486L51.6619 35.4121C50.8472 35.8582 49.9331 36.092 49.0042 36.092H48.8865C47.9577 36.092 47.0436 35.8582 46.2288 35.4121L43.1908 33.7486C41.7275 32.9475 39.9808 32.8492 38.4368 33.4811C36.358 34.3319 35 36.3549 35 38.6008V61.4551H62.8906Z" fill="#FCF1F2"></path><path d="M62.8905 38.6012V61.4551H58.789V38.6012C58.789 36.3549 57.4313 34.3315 55.3519 33.4811C55.3368 33.4756 55.3231 33.4688 55.3081 33.4633C55.9644 33.2008 56.6603 33.0696 57.3575 33.0696C58.0685 33.0696 58.7808 33.2063 59.4534 33.4811C61.5329 34.3315 62.8905 36.3549 62.8905 38.6012Z" fill="#F4E5E0"></path><path d="M35 60.0879V38.6008C35 36.3549 33.642 34.3319 31.5633 33.4811C30.0193 32.849 28.2726 32.9473 26.8093 33.7486L23.7713 35.4121C22.9566 35.8582 22.0425 36.092 21.1136 36.092H20.9959C20.067 36.092 19.1529 35.8582 18.3382 35.4121L15.3002 33.7486C13.8369 32.9475 12.0902 32.8492 10.5462 33.4811C8.4674 34.3319 7.10938 36.3549 7.10938 38.6008V60.0879H35Z" fill="#FCF1F2"></path><path d="M34.9999 38.6012V60.0879H30.8983V38.6012C30.8983 36.3549 29.5407 34.3315 27.4612 33.4811C27.4462 33.4756 27.4325 33.4688 27.4175 33.4633C28.0737 33.2008 28.7696 33.0696 29.4669 33.0696C30.1778 33.0696 30.8901 33.2063 31.5628 33.4811C33.6423 34.3315 34.9999 36.3549 34.9999 38.6012Z" fill="#F4E5E0"></path><path d="M61.4714 34.9016C61.2157 35.4143 60.4323 36.992 59.597 38.6709C58.3282 41.2249 55.7319 42.7875 52.9565 42.7875C52.504 42.7875 52.046 42.7465 51.588 42.6604C48.077 42.0041 45.5327 38.9389 45.5327 35.3678V35.0301L46.2286 35.4116C47.0435 35.8586 47.9581 36.0924 48.8864 36.0924H49.004C49.9323 36.0924 50.847 35.8586 51.6618 35.4116L54.6997 33.7491C55.5241 33.2979 56.4401 33.0696 57.3575 33.0696C58.0685 33.0696 58.7808 33.2063 59.4534 33.4811C60.2409 33.8038 60.9259 34.2946 61.4714 34.9016Z" fill="#E6D6D1"></path><path d="M61.4714 34.9016C61.2157 35.4143 60.4323 36.992 59.597 38.6709C59.3687 39.1303 59.0966 39.5582 58.789 39.9506V38.6012C58.789 36.3549 57.4313 34.3315 55.3519 33.4811C55.3368 33.4756 55.3231 33.4688 55.3081 33.4633C55.9644 33.2008 56.6603 33.0696 57.3575 33.0696C58.0685 33.0696 58.7808 33.2063 59.4534 33.4811C60.2409 33.8038 60.9259 34.2946 61.4714 34.9016Z" fill="#D3C6C3"></path><path d="M41.367 39.5965C41.367 40.723 41.0238 41.7922 40.4195 42.685C39.8139 43.5777 38.9484 44.2928 37.9012 44.7098L35 45.8664V38.6012C35 37.4773 35.3391 36.4109 35.9393 35.5182C36.5381 34.6254 37.398 33.9062 38.4371 33.4811C38.608 33.4113 38.7816 33.3498 38.958 33.2979L40.8311 37.2285C41.1838 37.9682 41.367 38.7775 41.367 39.5965Z" fill="#E6D6D1"></path><path d="M66.2402 68.291H3.75977C2.24957 68.291 1.02539 67.0668 1.02539 65.5566V51.8848C1.02539 50.3746 2.24957 49.1504 3.75977 49.1504H7.10938L8.47998 52.5487C9.31055 54.6249 11.3214 55.9863 13.5576 55.9863H28.5631C30.7993 55.9863 32.8103 54.6249 33.6407 52.5487L35 49.1504L36.3593 52.5487C37.1898 54.6249 39.2007 55.9863 41.4369 55.9863H56.4536C58.6898 55.9863 60.7008 54.6249 61.5312 52.5487L62.8906 49.1504H66.2402C67.7504 49.1504 68.9746 50.3746 68.9746 51.8848V65.5566C68.9746 67.0668 67.7504 68.291 66.2402 68.291Z" fill="#FF8D95"></path><path d="M68.9746 51.8848V65.5566C68.9746 67.0674 67.751 68.291 66.2402 68.291H62.1387C63.6494 68.291 64.873 67.0674 64.873 65.5566V51.8848C64.873 50.6215 64.0172 49.5578 62.8523 49.2447L62.8906 49.1504H66.2402C67.751 49.1504 68.9746 50.374 68.9746 51.8848Z" fill="#FF738A"></path><path d="M44.1444 8.54711L30.759 7.14355C28.5906 6.91797 26.5385 6.04844 24.8678 4.64844L21.7406 2.02822C21.4945 1.82205 21.1836 1.70898 20.8626 1.70898H8.76652C8.12804 1.70898 7.83806 2.50646 8.32752 2.91648L19.3265 12.1338C22.709 14.9693 26.9172 16.6373 31.3236 16.8902L44.2437 17.6306L44.1444 8.54711Z" fill="#BCF1F8"></path><path d="M36.9769 17.2143L35.1188 17.1076L31.3235 16.8903C26.9171 16.6373 22.7089 14.9694 19.3265 12.1338L16.8724 10.0776L16.4731 9.7426L18.1397 7.75061C18.6251 7.17229 19.4878 7.0971 20.0661 7.58108L21.5577 8.83206C24.2606 11.0961 27.6226 12.4291 31.1431 12.6315L35.6452 12.8899C36.3589 12.9309 36.9208 13.5147 36.9345 14.2297L36.9769 17.2143Z" fill="#00DDF9"></path><path d="M43.5088 5.6494L43.5178 20.1479C43.5182 20.9032 44.131 21.5153 44.8865 21.5148L53.3668 21.5096C54.1221 21.5092 54.7342 20.8964 54.7337 20.1409L54.7246 5.64243C54.7242 4.88706 54.1115 4.27497 53.356 4.27551L44.8757 4.28071C44.1203 4.28112 43.5084 4.89389 43.5088 5.6494Z" fill="#736572"></path><path d="M54.7339 20.1414C54.7339 20.896 54.1214 21.5085 53.3667 21.5099H52.6831L48.5815 21.5126V21.5099H49.2651C49.9815 21.5085 50.5708 20.9562 50.6282 20.2535C50.631 20.2166 50.6323 20.1796 50.6323 20.1414L50.6228 5.64233C50.6228 4.91499 50.0554 4.32163 49.339 4.27788L53.3558 4.27515C54.1118 4.27515 54.7243 4.88628 54.7243 5.64233L54.7339 20.1414Z" fill="#615260"></path><path d="M66.2402 48.1256H63.916V38.6014C63.916 35.9277 62.3171 33.5456 59.8423 32.5324C58.0037 31.7801 55.95 31.8957 54.2075 32.8496L51.1695 34.5131C49.8136 35.2575 48.0773 35.2575 46.7214 34.5131L43.6834 32.8496C41.9409 31.8954 39.8869 31.7796 38.0484 32.5326C36.7612 33.0595 35.7118 33.9574 35.0001 35.0735C34.2885 33.9573 33.2391 33.0593 31.9519 32.5324C30.1133 31.7801 28.0595 31.8957 26.317 32.8496L23.279 34.5131C21.9231 35.2575 20.1868 35.2575 18.831 34.5131L15.7929 32.8496C14.0504 31.8954 11.9965 31.7796 10.1579 32.5326C7.68291 33.5456 6.08398 35.9277 6.08398 38.6014V48.1256H3.75977C1.68656 48.1256 0 49.8122 0 51.8854V65.5572C0 67.6304 1.68656 69.317 3.75977 69.317H7.10938C7.67566 69.317 8.13477 68.858 8.13477 68.2916C8.13477 67.7252 7.67566 67.2662 7.10938 67.2662H3.75977C2.81736 67.2662 2.05078 66.4996 2.05078 65.5572V51.8854C2.05078 50.943 2.81736 50.1764 3.75977 50.1764H6.4173L7.52801 52.93C8.5199 55.41 10.8868 57.0123 13.5577 57.0123H28.5631C31.2341 57.0123 33.601 55.4098 34.5929 52.93L35.0001 51.912L35.4074 52.93C36.3993 55.41 38.7662 57.0123 41.4371 57.0123H56.4539C59.1248 57.0123 61.4917 55.4098 62.4836 52.93L63.5852 50.1764H66.2402C67.1826 50.1764 67.9492 50.943 67.9492 51.8854V65.5572C67.9492 66.4996 67.1826 67.2662 66.2402 67.2662H11.8945C11.3282 67.2662 10.8691 67.7252 10.8691 68.2916C10.8691 68.858 11.3282 69.317 11.8945 69.317H66.2402C68.3134 69.317 70 67.6304 70 65.5572V51.8854C70 49.8122 68.3134 48.1256 66.2402 48.1256ZM48.8865 37.118H49.0041C50.102 37.118 51.1912 36.8393 52.1542 36.3119L55.1923 34.6484C56.3901 33.9926 57.8017 33.9134 59.0654 34.4303C59.4899 34.6041 59.8769 34.8367 60.2189 35.1163L58.6787 38.2142C57.412 40.7622 54.5738 42.1762 51.7772 41.6535C49.2149 41.1744 47.2484 39.2035 46.7074 36.7413C47.4059 36.9874 48.1437 37.118 48.8865 37.118ZM38.4463 34.6086L39.9053 37.6699C40.1904 38.2682 40.3412 38.9347 40.3412 39.5974C40.3412 41.4417 39.2343 43.0749 37.5211 43.7583L36.0254 44.3549V38.6016C36.0254 36.9048 36.9637 35.3807 38.4463 34.6086ZM32.6886 52.1685C32.01 53.8652 30.3905 54.9617 28.563 54.9617H13.5576C11.7301 54.9617 10.1108 53.8652 9.43086 52.1658L8.13477 48.9521V38.6015C8.13477 36.7641 9.23385 35.1269 10.9345 34.4306C12.1982 33.9134 13.6099 33.993 14.8077 34.6486L17.8458 36.312C19.8032 37.3913 22.3062 37.3913 24.2636 36.312L27.3016 34.6486C28.4994 33.9927 29.9111 33.9136 31.1747 34.4305C32.8755 35.1269 33.9746 36.764 33.9746 38.6015V48.9537L32.6886 52.1685ZM60.5793 52.1685C59.9006 53.8652 58.2812 54.9617 56.4536 54.9617H41.437C39.6095 54.9617 37.9902 53.8652 37.3114 52.1685L36.0254 48.9537V46.5625L38.2808 45.6629C40.7783 44.6669 42.392 42.2859 42.392 39.5972C42.392 38.6312 42.1723 37.6595 41.7566 36.7875L40.473 34.0943C41.2397 34.0836 42.0049 34.2687 42.6984 34.6483L44.5133 35.6421C44.6404 39.5874 47.4964 42.9395 51.4002 43.6694C51.9139 43.7654 52.4281 43.812 52.9379 43.812C56.0957 43.8119 59.0748 42.0245 60.5151 39.1272L61.5725 37.0004C61.7621 37.5017 61.8652 38.0419 61.8652 38.6014V48.9536L60.5793 52.1685Z" fill="#000D44"></path><path d="M37.9599 27.7306C37.5474 27.3425 36.8985 27.3622 36.5104 27.7744C36.1223 28.1869 36.1419 28.8357 36.5543 29.2239L37.702 30.3041C38.1137 30.6917 38.7627 30.6732 39.1515 30.2603C39.5397 29.8479 39.52 29.199 39.1077 28.8108L37.9599 27.7306Z" fill="#000D44"></path><path d="M44.2234 29.4258C44.6036 29.0061 44.5716 28.3577 44.152 27.9774L40.5154 24.6825C40.0957 24.302 39.4472 24.334 39.067 24.7537C38.6868 25.1734 38.7188 25.8217 39.1384 26.2021L42.775 29.497C43.1308 29.8161 43.8481 29.8044 44.2234 29.4258Z" fill="#000D44"></path><path d="M7.6689 3.70289L18.6678 12.9201C22.195 15.877 26.6687 17.6508 31.2648 17.9144L42.4914 18.5592L42.4924 20.1489C42.4931 21.3522 43.3874 22.3475 44.5455 22.5135L44.5466 24.2509C44.5474 25.57 45.6208 26.6427 46.94 26.6427H46.9414L48.1044 26.642L48.1077 31.8592C48.108 32.4253 48.5671 32.8839 49.1331 32.8839H49.1338C49.7001 32.8835 50.1589 32.4242 50.1585 31.8578L50.1552 26.6406L51.3181 26.6399C51.9574 26.6395 52.5583 26.3903 53.01 25.9379C53.4618 25.4855 53.7103 24.8845 53.7099 24.2452L53.7088 22.5081C54.2182 22.4354 54.6891 22.2038 55.0592 21.8333C55.5109 21.381 55.7594 20.7799 55.759 20.1402L55.751 12.867C55.7504 12.301 55.2915 11.8427 54.7256 11.8427C54.7253 11.8427 54.7249 11.8427 54.7245 11.8427C54.1582 11.8434 53.6996 12.3029 53.7002 12.8692L53.7083 20.142C53.6733 20.3782 53.6024 20.4496 53.366 20.4846L44.8859 20.4899H44.8858C44.697 20.4899 44.5434 20.3365 44.5433 20.1477L44.5343 5.64922C44.5341 5.46041 44.6877 5.30674 44.8764 5.3066L53.3567 5.30141C53.5927 5.33627 53.6642 5.40736 53.6992 5.64334L53.7002 8.0835C53.7005 8.64979 54.1594 9.10848 54.7256 9.10848H54.726C55.2923 9.1082 55.7512 8.64896 55.751 8.08268L55.75 5.64225C55.7496 5.00295 55.5004 4.40221 55.048 3.95049C54.596 3.49904 53.9956 3.25062 53.357 3.25062C53.3565 3.25062 53.3558 3.25062 53.3552 3.25062L44.8749 3.25582C43.5554 3.25678 42.4824 4.33098 42.4832 5.65059L42.4843 7.33564L30.8649 6.12418C28.8926 5.91896 27.0465 5.13707 25.5261 3.86299L22.3994 1.24305C21.9694 0.882519 21.4238 0.68414 20.8625 0.68414H8.76661C7.21608 0.626308 6.44362 2.75174 7.6689 3.70289ZM51.317 24.5893L46.9403 24.5921H46.9401C46.7513 24.5921 46.5978 24.4386 46.5976 24.2498L46.5966 22.5397L51.6583 22.5366L51.6594 24.2468C51.6592 24.471 51.5247 24.592 51.317 24.5893ZM19.9852 11.3485L17.9166 9.61502L18.9263 8.41039C19.1047 8.25207 19.2045 8.24291 19.4078 8.36787L20.8997 9.61816C23.7518 12.0084 27.3687 13.4425 31.0842 13.6555L35.5867 13.914C35.7642 13.9243 35.9057 14.0714 35.909 14.249L35.9433 16.1291L31.3824 15.8672C27.2241 15.6285 23.1765 14.0238 19.9852 11.3485ZM20.8625 2.73492C20.9426 2.73492 21.0206 2.76322 21.082 2.81477L24.2091 5.43484C26.044 6.97252 28.2723 7.91615 30.6525 8.16402L42.4857 9.39777L42.4901 16.5051L37.9964 16.247L37.9592 14.2114C37.9365 12.9678 36.946 11.9379 35.7042 11.8666L31.2016 11.6081C27.9239 11.42 24.7332 10.1551 22.2169 8.04631L20.725 6.79602C20.2351 6.38545 19.6148 6.19062 18.9781 6.24627C18.3416 6.30232 17.7648 6.60297 17.3545 7.09283L16.3448 8.2976L9.70669 2.73492H20.8625Z" fill="#000D44"></path><path d="M58.7389 30.2604C59.1277 30.6733 59.7767 30.6919 60.1884 30.3041L61.3362 29.2239C61.7485 28.8358 61.7682 28.1869 61.3801 27.7744C60.9919 27.3622 60.3429 27.3424 59.9306 27.7307L58.7828 28.8109C58.3705 29.1992 58.3508 29.848 58.7389 30.2604Z" fill="#000D44"></path><path d="M53.6672 29.4258C54.0484 29.8463 54.6971 29.8766 55.1156 29.497L58.7522 26.2021C59.1719 25.8219 59.2039 25.1736 58.8236 24.7537C58.4433 24.3341 57.7949 24.3021 57.3752 24.6825L53.7386 27.9774C53.3188 28.3576 53.2869 29.0061 53.6672 29.4258Z" fill="#000D44"></path></g><defs><clipPath id="clip0_239_1090"><rect width="70" height="70" fill="white"></rect></clipPath></defs></svg>