<svg width="30" height="31" viewBox="0 0 30 31" fill="none" xmlns="http://www.w3.org/2000/svg">
<path d="M9.02051 7.98859V11.3429H10.1694V9.12831C9.76889 8.77168 9.39094 8.38761 9.02051 7.98859Z" fill="#1F5FFF"/>
<path d="M19.7632 8.91383V11.3429H20.9796V7.7392C20.5791 8.13573 20.1737 8.52977 19.7632 8.91383Z" fill="#1F5FFF"/>
<path d="M19.763 20.8348V25.2116H19.758C19.6679 27.7504 17.568 29.7904 15 29.7904C12.4295 29.7904 10.3295 27.7529 10.2419 25.2116H10.2369V20.8348H9.02051V25.042C9.02051 28.3265 11.7036 31 15 31C18.2963 31 20.9795 28.3265 20.9795 25.042V20.8348H19.763Z" fill="#1F5FFF"/>
<path d="M10.2369 20.8348H6.92558V20.8024H5.97947C3.35391 20.8024 1.21642 18.6726 1.21642 16.0565C1.21642 13.4403 3.35391 11.3105 5.97947 11.3105H10.1694V10.0985H5.97947C2.68313 10.0985 0 12.772 0 16.0565C0 19.3409 2.68313 22.0144 5.97947 22.0144H10.2369V20.8348Z" fill="#1F5FFF"/>
<path d="M24.0207 10.0985H19.7632V11.3105H24.0207C26.6462 11.3105 28.7837 13.4403 28.7837 16.0565C28.7837 18.6726 26.6462 20.8024 24.0207 20.8024H22.4663V20.8348H19.7632V22.0119H24.0207C27.317 22.0119 30.0001 19.3385 30.0001 16.054C30.0001 12.7695 27.317 10.0985 24.0207 10.0985Z" fill="#1F5FFF"/>
<path d="M9.4935 25.5483C7.48115 25.5483 5.84424 23.9172 5.84424 21.9121C5.84424 19.907 7.48115 18.276 9.4935 18.276C11.5058 18.276 13.1428 19.907 13.1428 21.9121C13.1428 23.9172 11.5058 25.5483 9.4935 25.5483ZM9.4935 19.488C8.15194 19.488 7.06066 20.5754 7.06066 21.9121C7.06066 23.2489 8.15194 24.3362 9.4935 24.3362C10.8351 24.3362 11.9263 23.2489 11.9263 21.9121C11.9263 20.5754 10.8351 19.488 9.4935 19.488Z" fill="#04CE78"/>
<path d="M11.3363 23.8171C12.3919 22.7653 12.3919 21.0599 11.3363 20.0081C10.2806 18.9562 8.56909 18.9562 7.51345 20.0081C6.45782 21.0599 6.45782 22.7653 7.51345 23.8171C8.56909 24.869 10.2806 24.869 11.3363 23.8171Z" fill="#04CE78"/>
<path d="M9.4935 25.5483C7.48115 25.5483 5.84424 23.9172 5.84424 21.9121C5.84424 19.907 7.48115 18.276 9.4935 18.276C11.5058 18.276 13.1428 19.907 13.1428 21.9121C13.1428 23.9172 11.5058 25.5483 9.4935 25.5483ZM9.4935 19.488C8.15194 19.488 7.06066 20.5754 7.06066 21.9121C7.06066 23.2489 8.15194 24.3362 9.4935 24.3362C10.8351 24.3362 11.9263 23.2489 11.9263 21.9121C11.9263 20.5754 10.8351 19.488 9.4935 19.488Z" fill="#1F5FFF"/>
<path d="M15.1851 10.7369V17.483C15.1851 19.5554 16.6543 21.2388 18.7342 21.2388L23.8176 21.3062" stroke="#1F5FFF" stroke-width="1.3" stroke-miterlimit="10" stroke-linecap="round" stroke-linejoin="round"/>
<path d="M13.8735 1.16776L13.1452 1.12038C10.0416 0.913382 8.27198 4.70663 10.5221 6.84392C10.5822 6.90128 10.6473 6.95864 10.7123 7.01351L14.8997 10.8043" stroke="#1F5FFF" stroke-width="1.3" stroke-miterlimit="10" stroke-linecap="round" stroke-linejoin="round"/>
<path d="M16.6116 1.05552L17.34 1.00813C20.4436 0.801139 22.2132 4.59439 19.9631 6.73168C19.903 6.78904 19.8379 6.8464 19.7728 6.90126L15.5854 10.692" stroke="#1F5FFF" stroke-width="1.3" stroke-miterlimit="10" stroke-linecap="round" stroke-linejoin="round"/>
</svg>
